SplineFontDB: 3.0
FontName: Exo-MediumItalic
FullName: Exo Medium Italic
FamilyName: Exo
Weight: Medium
Copyright: Copyright (c) 2011 Natanael Gama (exo@ndiscovered.com), with Reserved Font Name "Exo"
Version: 1.00
ItalicAngle: 0
UnderlinePosition: -50
UnderlineWidth: 50
Ascent: 800
Descent: 200
sfntRevision: 0x00010000
LayerCount: 2
Layer: 0 0 "Back"  1
Layer: 1 0 "Fore"  0
XUID: [1021 762 1116966003 11794580]
FSType: 8
OS2Version: 0
OS2_WeightWidthSlopeOnly: 0
OS2_UseTypoMetrics: 1
CreationTime: 1317847902
ModificationTime: 1325018842
PfmFamily: 33
TTFWeight: 500
TTFWidth: 5
LineGap: 90
VLineGap: 0
OS2TypoAscent: 0
OS2TypoAOffset: 1
OS2TypoDescent: 0
OS2TypoDOffset: 1
OS2TypoLinegap: 90
OS2WinAscent: 0
OS2WinAOffset: 1
OS2WinDescent: 0
OS2WinDOffset: 1
HheadAscent: 0
HheadAOffset: 1
HheadDescent: 0
HheadDOffset: 1
OS2Vendor: 'PfEd'
Lookup: 4 0 0 "'ordn' Ordinals lookup 21"  {"'ordn' Ordinals lookup 21-1"  } ['ordn' ('DFLT' <'dflt' > 'grek' <'dflt' > 'latn' <'dflt' > ) ]
Lookup: 1 0 0 "'smcp' Lowercase to Small Capitals lookup 16"  {"'smcp' Lowercase to Small Capitals lookup 16-1" ("smcp" ) } ['smcp' ('DFLT' <'dflt' > 'grek' <'dflt' > 'latn' <'FRA ' 'dflt' > ) ]
Lookup: 1 0 0 "'c2sc' Capitals to Small Capitals in Latin lookup 17"  {"'c2sc' Capitals to Small Capitals in Latin lookup 17 subtable" ("smcp" ) } ['c2sc' ('latn' <'dflt' > ) ]
Lookup: 4 0 0 "'dlig' Discretionary Ligatures lookup 14"  {"'dlig' Discretionary Ligatures lookup 14-1"  } ['dlig' ('DFLT' <'dflt' > 'grek' <'dflt' > 'latn' <'dflt' > ) ]
Lookup: 4 0 1 "'liga' Standard Ligatures lookup 15"  {"'liga' Standard Ligatures lookup 15-1"  } ['liga' ('DFLT' <'dflt' > 'grek' <'dflt' > 'latn' <'FRA ' 'dflt' > ) ]
Lookup: 1 0 0 "'frac' Diagonal Fractions lookup 13"  {"'frac' Diagonal Fractions lookup 13-1"  } ['frac' ('DFLT' <'dflt' > 'grek' <'dflt' > 'latn' <'FRA ' 'dflt' > ) ]

StartChar: a
Encoding: 97 97 0
Width: 540
VWidth: 0
Flags: W
HStem: -6.7 86.15<189.43 334.812> 0.3 21G<422.815 498.475> 0.3 21G<422.815 498.475>
VStem: 427.55 68<0.3 29.8668>
DStem2: 468.9 443 565.55 479 0.144691 0.989477<-332.156 2.16979>
LayerCount: 2
Fore
SplineSet
85.35 283.1 m 0x90
 123 500.85 225.5 532.5 310.8 541 c 0
 382.6 548.65 514.55 528 565.55 479 c 9
 495.55 0.3 l 17
 427.55 0.3 l 1x50
 413.7 58.8 l 17
 385.45 36.05 308 -6.7 234.6 -6.7 c 3
 123.45 -6.7 44.9 48.1 85.35 283.1 c 0x90
174.2 256.55 m 0
 154 128.75 174.75 79.45 248.55 79.45 c 3x90
 320.3 79.45 362.4 98.45 420.65 128.05 c 1
 468.9 443 l 1
 416.7 457.65 352.6 464.75 314.75 457.2 c 0
 255.15 445.95 202.35 431.95 174.2 256.55 c 0
EndSplineSet
AlternateSubs2: "'salt' Access All Alternates in Latin lookup 4-1" a.salt
Substitution2: "'smcp' Lowercase to Small Capitals lookup 16-1" a.smcp
EndChar

StartChar: z
Encoding: 122 122 1
Width: 460
VWidth: 0
Flags: HW
LayerCount: 2
Fore
SplineSet
43.05 1 m 25
 54.3 86.7 l 25
 382.5 445 l 17
 99.95 445 l 1
 112.05 531 l 25
 517.05 531 l 25
 504.95 445 l 25
 184.25 87 l 17
 446 87 l 17
 447 86 433.05 1 433.05 1 c 25
 43.05 1 l 25
EndSplineSet
Substitution2: "'smcp' Lowercase to Small Capitals lookup 16-1" z.smcp
EndChar

StartChar: e
Encoding: 101 101 2
Width: 525
VWidth: 0
Flags: W
HStem: -7 82.25<180.403 442.048> 456.5 84.5<251.66 445.323>
LayerCount: 2
Fore
SplineSet
86.3 284 m 0
 117.3 447 156.8 540.7 351.8 541 c 0
 474.65 541.15 560.65 505.65 547.45 388 c 0
 522.9 162.7 207.15 206.75 170.15 221.75 c 1
 151.25 109.45 170.4 76.1 241.4 75.25 c 0
 312.9 70.15 408.05 79.15 481.7 90 c 1
 471.3 22 l 17
 388.35 -1.3 304.6 -8.8 213.95 -7 c 0
 86.1 -5.35 50.3 90 86.3 284 c 0
179.2 286.25 m 0
 179.2 286.25 433.2 255.85 454.55 382.75 c 0
 465.65 447.9 426.15 456.65 346.15 456.5 c 0
 204.7 456.2 196.4 370.35 179.2 286.25 c 0
EndSplineSet
Substitution2: "'smcp' Lowercase to Small Capitals lookup 16-1" e.smcp
EndChar

StartChar: o
Encoding: 111 111 3
Width: 562
VWidth: 0
Flags: W
HStem: -5 84.5<197.782 396.96> 451.95 84.5<250.911 446.866>
LayerCount: 2
Fore
SplineSet
85.85 261.75 m 0
 119.85 478.75 188.05 536.45 363.55 536.45 c 3
 534.25 536.45 589.65 444.85 558.35 254.25 c 0
 525.65 57.25 466.85 -5 289.45 -5 c 3
 115.2 -5 55.85 71.75 85.85 261.75 c 0
177.85 258 m 0
 150.65 96.05 198.55 79.5 293.75 79.5 c 3
 391.25 79.5 438.15 92.6 466.35 258 c 0
 493.7 420.6 461.15 451.95 353.3 451.95 c 3
 249.25 451.95 206.9 431.5 177.85 258 c 0
EndSplineSet
Substitution2: "'smcp' Lowercase to Small Capitals lookup 16-1" o.smcp
EndChar

StartChar: c
Encoding: 99 99 5
Width: 494
VWidth: 0
Flags: HW
LayerCount: 2
Fore
SplineSet
86.15 270.5 m 0
 128.5 516.75 208.8 538.45 304 538.45 c 3
 356 538.45 462 524.95 531.5 509.25 c 1
 522 446.25 l 1
 522 446.25 395.85 453.95 306.85 453.95 c 3
 246.5 453.95 210.9 446.7 177.15 262.3 c 0
 151.35 117.35 181.1 77.8 247.15 77.8 c 3
 339.15 77.8 472.3 88.35 472.3 88.35 c 1
 461.95 23.65 l 17
 378.75 -0.85 316.15 -7 225.8 -5.85 c 0
 124.25 -4.85 51.45 68.45 86.15 270.5 c 0
EndSplineSet
Substitution2: "'smcp' Lowercase to Small Capitals lookup 16-1" c.smcp
EndChar

StartChar: d
Encoding: 100 100 6
Width: 551
VWidth: 0
Flags: HW
LayerCount: 2
Fore
SplineSet
86 269 m 0
 109.6 412.35 154.6 539 304.55 539 c 3
 349.55 539 429.15 525.45 485.1 500.5 c 1
 530.8 785 l 1
 621.1 785 l 1
 496.25 0 l 1
 426.3 0 l 1
 414.5 57.5 l 17
 383.25 36.4 294.55 -6 227.9 -6 c 3
 91.05 -6 64.2 138.45 86 269 c 0
178.3 264.5 m 0
 157.9 142.75 181.95 80.45 243.25 80.45 c 3
 315.05 80.45 374.75 101.6 425.15 122.85 c 1
 473.6 430.9 l 1
 416.3 447.85 370.15 455.25 300.95 455.25 c 1
 245.75 455.25 203.95 420 178.3 264.5 c 0
EndSplineSet
AlternateSubs2: "'salt' Access All Alternates in Latin lookup 4-1" d.salt
Substitution2: "'smcp' Lowercase to Small Capitals lookup 16-1" d.smcp
EndChar

StartChar: A
Encoding: 65 65 7
Width: 667
VWidth: 0
Flags: W
HStem: 0 21G<42 153.521 556.631 654> 0 21G<42 153.521 556.631 654> 192.6 87.65<287.1 510.25> 712 20G<410.645 521.959>
DStem2: 42 0 143.1 0 0.459786 0.88803<46.4844 263.658 361.564 728.254> 518.25 732 453.25 607.15 0.182342 -0.983235<110.905 442.718 531.424 727.414>
LayerCount: 2
Fore
SplineSet
42 0 m 1xb0
 421 732 l 1
 518.25 732 l 1
 654 0 l 1
 560.4 0 l 1
 524.1 192.6 l 1
 243.45 192.6 l 1
 143.1 0 l 1
 42 0 l 1xb0
287.1 280.25 m 1
 510.25 280.25 l 1
 453.25 607.15 l 1
 287.1 280.25 l 1
EndSplineSet
Substitution2: "'c2sc' Capitals to Small Capitals in Latin lookup 17 subtable" a.smcp
EndChar

StartChar: p
Encoding: 112 112 8
Width: 558
VWidth: 0
Flags: HW
LayerCount: 2
Fore
SplineSet
13.25 -270 m 1
 144.6 518 l 1
 225.4 529.8 322 534.45 404.2 534.45 c 3
 563.2 534.45 573.25 380.2 555.7 250.75 c 0
 535.9 106.35 472.75 -8.3 335.05 -8.3 c 1
 290.05 -8.3 206.65 2.55 153.1 29 c 1
 104.4 -270 l 1
 13.25 -270 l 1
165.3 98.85 m 1
 205.05 83.85 269.5 66.25 335.4 77.3 c 0
 386.55 84.95 438.2 104.35 463.85 264.8 c 0
 485.75 401.3 451.55 451.45 390.15 451.45 c 2
 224.15 451.45 l 2
 165.3 98.85 l 1
EndSplineSet
AlternateSubs2: "'salt' Access All Alternates in Latin lookup 4-1" p.salt
Substitution2: "'smcp' Lowercase to Small Capitals lookup 16-1" p.smcp
EndChar

StartChar: b
Encoding: 98 98 9
Width: 554
VWidth: 0
Flags: HW
LayerCount: 2
Fore
SplineSet
56.1 0 m 1
 180.1 785 l 1
 270.4 785 l 1
 225.7 500.5 l 1
 289.35 525.45 368.55 539 413.55 539 c 3
 569.45 539 571.7 386.5 550.2 257 c 0
 527.7 125.2 489.05 -14.5 332.65 -6 c 1
 266 -2.6 180.9 36.4 156.25 57.5 c 9
 126.05 0 l 1
 56.1 0 l 1
166.75 122.85 m 1
 211.15 101.6 264.9 80.45 336.7 80.45 c 3
 404.8 80.45 439.65 141.05 458.35 264.5 c 0
 476.35 386 475.1 455.25 395.25 455.25 c 1
 326.05 455.25 279.05 447.85 216.05 430.9 c 1
 166.75 122.85 l 1
EndSplineSet
AlternateSubs2: "'salt' Access All Alternates in Latin lookup 4-1" b.salt
Substitution2: "'smcp' Lowercase to Small Capitals lookup 16-1" b.smcp
EndChar

StartChar: q
Encoding: 113 113 10
Width: 553
VWidth: 0
Flags: HW
LayerCount: 2
Fore
SplineSet
87.85 272.5 m 0
 115.6 445.3 190 537.6 317.55 537.6 c 3
 423.55 537.6 532.15 519.35 578.9 512.65 c 1
 455.2 -270 l 17
 363.2 -270 l 9
 410.2 29 l 1
 348.35 2.55 283.35 -10 238.35 -10 c 3
 85.35 -10 62.1 109.4 87.85 272.5 c 0
180 269.05 m 0
 164.55 157.05 151.8 73.9 251.4 73.9 c 3
 317.3 73.9 346.35 77.9 421.55 98 c 1
 477.7 454.6 l 2
 311.7 454.6 l 2
 218 454.6 189.15 331.6 180 269.05 c 0
EndSplineSet
Substitution2: "'smcp' Lowercase to Small Capitals lookup 16-1" q.smcp
EndChar

StartChar: n
Encoding: 110 110 11
Width: 545
VWidth: 0
Flags: HW
LayerCount: 2
Fore
SplineSet
56.1 0 m 1
 140.1 531 l 1
 208.6 531 l 1
 222.4 470.5 l 1
 285.05 504.9 341.6 540 422.6 540 c 3
 533.4 540 571.95 457.1 557.35 365.5 c 2
 499.1 0 l 9
 407.1 0 l 17
 465.35 366.1 l 2
 474.9 428.5 444.65 455.5 398 455.5 c 3
 324.45 455.5 284.85 437 211.9 401.5 c 1
 148.1 0 l 1
 56.1 0 l 1
EndSplineSet
AlternateSubs2: "'salt' Access All Alternates in Latin lookup 4-1" n.salt
Substitution2: "'smcp' Lowercase to Small Capitals lookup 16-1" n.smcp
EndChar

StartChar: i
Encoding: 105 105 12
Width: 203
VWidth: 0
Flags: HW
LayerCount: 2
Fore
SplineSet
55.35 0 m 1
 139.35 531 l 1
 231.35 531 l 1
 147.35 0 l 1
 55.35 0 l 1
142.7 614.2 m 2
 152.2 677.65 l 2
 154.2 692.65 164.2 702.65 180.2 702.65 c 2
 245.2 702.65 l 2
 260.2 702.65 266.05 691.65 264.05 677.65 c 2
 254.55 614.2 l 2
 252.55 599.2 241.7 591.2 227.7 591.2 c 2
 162.7 591.2 l 2
 148.7 591.2 140.7 600.2 142.7 614.2 c 2
EndSplineSet
Substitution2: "'smcp' Lowercase to Small Capitals lookup 16-1" i.smcp
EndChar

StartChar: h
Encoding: 104 104 13
Width: 545
VWidth: 0
Flags: W
HStem: 0 21G<56.1 151.278 407.1 502.287> 0 21G<56.1 151.278 407.1 502.287> 455.5 84.5<315.322 452.471> 763.7 20G<176.936 271.95>
DStem2: 56.1 0 148.1 0 0.15628 0.987713<14.3777 435.383 490.685 793.449> 407.1 0 499.1 0 0.157133 0.987577<14.4562 434.454>
LayerCount: 2
Fore
SplineSet
56.1 0 m 1xb0
 180.1 783.7 l 1
 271.95 783.7 l 1
 222.25 470.5 l 1
 284.3 504.6 341.6 540 422.6 540 c 3
 533.4 540 571.95 457.1 557.35 365.5 c 2
 499.1 0 l 9
 407.1 0 l 17
 465.35 366.1 l 2
 474.9 428.5 445.5 455.5 398 455.5 c 3
 324.45 455.5 284.85 437 211.9 401.5 c 1
 148.1 0 l 1
 56.1 0 l 1xb0
EndSplineSet
Substitution2: "'smcp' Lowercase to Small Capitals lookup 16-1" h.smcp
EndChar

StartChar: u
Encoding: 117 117 14
Width: 544
VWidth: 0
Flags: HW
LayerCount: 2
Fore
SplineSet
73.3 165.5 m 2
 130.7 531 l 9
 222.7 531 l 17
 165.15 164.9 l 2
 153.9 94 186 75.5 232.65 75.5 c 3
 306.2 75.5 345.8 94 418.75 129.5 c 1
 481.7 531 l 1
 573.7 531 l 1
 489.55 0 l 1
 421.05 0 l 1
 407.4 60.5 l 1
 344.15 24.9 289.05 -9 208.05 -9 c 3
 97.25 -9 57.85 67.95 73.3 165.5 c 2
EndSplineSet
AlternateSubs2: "'salt' Access All Alternates in Latin lookup 4-1" u.salt
Substitution2: "'smcp' Lowercase to Small Capitals lookup 16-1" u.smcp
EndChar

StartChar: r
Encoding: 114 114 15
Width: 424
VWidth: 0
Flags: W
HStem: 0 21G<56.1 151.267> 0 21G<56.1 151.267> 444.45 86.55<303.946 474.564>
VStem: 140.1 69.15<491.422 531>
LayerCount: 2
Fore
SplineSet
56.1 0 m 1xb0
 140.1 531 l 1
 210.1 531 l 1
 221.1 464 l 1
 281.5 499.15 341 536.85 418.65 536.85 c 27
 446 536.85 476 535.15 487.6 529.3 c 1
 473.05 439.35 l 1
 460.45 441.9 428.45 444.45 399.15 444.45 c 27
 325.15 444.45 281.3 426.6 209.25 386.15 c 1
 148.1 0 l 1
 56.1 0 l 1xb0
EndSplineSet
AlternateSubs2: "'salt' Access All Alternates in Latin lookup 4-1" r.salt
Substitution2: "'smcp' Lowercase to Small Capitals lookup 16-1" r.smcp
EndChar

StartChar: m
Encoding: 109 109 16
Width: 891
VWidth: 0
Flags: HW
LayerCount: 2
Fore
SplineSet
56.1 0 m 1
 140.1 531 l 1
 208.6 531 l 1
 222.4 468.8 l 1
 285.65 503.5 333.1 537.45 415.8 537.45 c 1
 477.3 537.45 528.45 502.55 543.45 455.2 c 1
 600.8 495.95 673.95 537.45 767.95 537.45 c 1
 860.9 537.45 919 465.6 902.7 362.1 c 2
 845.3 0 l 1
 753.3 0 l 1
 810.85 362.7 l 2
 819.55 419.15 787.45 452.95 743.35 452.95 c 1
 667.85 452.95 621.7 440.7 557.1 400.85 c 1
 556.95 399.65 551.55 361.75 551.4 360.4 c 2
 494 0 l 1
 402 0 l 1
 459.4 362.7 l 2
 468.1 419.15 435.3 452.95 391.2 452.95 c 1
 317.65 452.95 284 435.3 211.05 399.8 c 1
 148.1 0 l 1
 56.1 0 l 1
EndSplineSet
AlternateSubs2: "'salt' Access All Alternates in Latin lookup 4-1" m.salt
Substitution2: "'smcp' Lowercase to Small Capitals lookup 16-1" m.smcp
EndChar

StartChar: f
Encoding: 102 102 17
Width: 403
VWidth: 0
Flags: HW
LayerCount: 2
Fore
SplineSet
89.15 448 m 1
 99.65 512.3 l 1
 199.15 531 l 1
 206.65 576.45 l 2
 230.75 728.05 268.45 785.15 385.05 785.15 c 1
 426.4 785.15 485.95 768.4 504.95 761.15 c 1
 496.3 702.85 l 1
 496.15 702.85 390.15 703 390.15 703 c 2
 324 703.15 313.1 673.65 297.15 567.45 c 2
 291.15 531 l 1
 446.1 531 l 1
 432.75 448 l 1
 276.95 448 l 1
 202.9 0 l 1
 110.9 0 l 1
 184.1 448 l 1
 89.15 448 l 1
EndSplineSet
AlternateSubs2: "'salt' Access All Alternates in Latin lookup 4-1" f.salt
Substitution2: "'smcp' Lowercase to Small Capitals lookup 16-1" f.smcp
EndChar

StartChar: l
Encoding: 108 108 18
Width: 294
VWidth: 0
Flags: W
HStem: 0 64.55<204.834 276.15> 763 20G<175.635 270.8>
DStem2: 84.8 189 177.85 195 0.156304 0.987709<-70.6994 601.392>
LayerCount: 2
Fore
SplineSet
84.8 189 m 2
 178.8 783 l 1
 270.8 783 l 1
 177.85 195 l 2
 162.6 100.5 179.85 92.45 216 83 c 2
 216 83 284.6 64.55 286.5 64.55 c 1
 276.15 0 l 1
 202.15 0 l 2
 107.15 0 64.5 58.2 84.8 189 c 2
EndSplineSet
Substitution2: "'smcp' Lowercase to Small Capitals lookup 16-1" l.smcp
EndChar

StartChar: j
Encoding: 106 106 19
Width: 224
VWidth: 0
Flags: HW
LayerCount: 2
Fore
SplineSet
22.9 -270 m 1
 149.9 531 l 1
 241.9 531 l 1
 156.9 -4 l 2
 143.9 -90 125.9 -180.1 85.9 -270 c 1
 22.9 -270 l 1
152.95 614.2 m 2
 163.45 677.65 l 2
 165.45 692.65 175.45 702.65 191.45 702.65 c 2
 256.45 702.65 l 2
 271.45 702.65 277.45 691.65 275.45 677.65 c 2
 264.95 614.2 l 2
 262.95 599.2 252.1 591.2 238.1 591.2 c 2
 173.1 591.2 l 2
 159.1 591.2 150.95 600.2 152.95 614.2 c 2
EndSplineSet
Substitution2: "'smcp' Lowercase to Small Capitals lookup 16-1" j.smcp
EndChar

StartChar: t
Encoding: 116 116 20
Width: 377
VWidth: 0
Flags: W
HStem: -0.15 64.55<262.317 334.6> 449 83<288.55 420.3> 449 62<97.7 130.65>
VStem: 239.2 72.5<655.709 680>
DStem2: 142.55 189.15 235.45 195.15 0.155356 0.987859<-71.072 263.01>
LayerCount: 2
Fore
SplineSet
87.8 449 m 1xb0
 97.7 511 l 1xb0
 196.55 532 l 1
 239.2 680 l 1
 311.7 680 l 1
 288.55 532 l 1
 433.65 532 l 1
 420.3 449 l 1xd0
 275.2 449 l 1
 235.45 195.15 l 2
 221.05 100.35 237.3 92.3 273.45 82.85 c 2
 273.45 82.85 342.2 64.4 344.1 64.4 c 1
 334.6 -0.15 l 1
 258.8 -0.15 l 2
 164.35 -0.15 122.25 57.5 142.55 189.15 c 2
 183.2 449 l 1
 87.8 449 l 1xb0
EndSplineSet
AlternateSubs2: "'salt' Access All Alternates in Latin lookup 4-1" t.salt
Substitution2: "'smcp' Lowercase to Small Capitals lookup 16-1" t.smcp
EndChar

StartChar: s
Encoding: 115 115 21
Width: 508
VWidth: 0
Flags: W
HStem: -9.25 85.55<87.9926 386.472> 12.45 63.85<72.1 287.833> 220.85 86.9<185.604 402.787> 455.7 84.55<205.595 509.669> 455.7 65.55<293.411 515.2>
DStem2: 93.7 358 186.3 358.6 0.157224 0.987563<-30.6933 109.128> 397.35 124.75 488.9 111.1 0.142754 0.989758<-45.6694 86.8>
LayerCount: 2
Fore
SplineSet
61.75 12.45 m 9x60
 72.1 76.3 l 17x60
 339.65 76.3 l 18
 342.2 76.3 388.55 72.25 397.35 124.75 c 2
 405.15 171.4 l 2
 410.55 202.95 402.45 220.85 362.65 220.85 c 10
 222.6 220.85 l 2
 128.6 220.85 77.7 257.55 93.7 358 c 10
 101.7 408.25 l 18
 115.55 493.65 158.15 540.25 261.15 540.25 c 3xb0
 326.8 540.25 478.3 531.35 525.55 521.25 c 9
 515.2 455.7 l 17x28
 259.9 455.7 l 2
 203.55 455.7 196.25 422.55 193.25 402.85 c 10
 186.3 358.6 l 18
 176.5 299.25 210.45 307.75 236.05 307.75 c 2
 378.55 307.75 l 2
 469.45 307.75 510.05 249.1 497.9 173.5 c 1
 488.9 111.1 l 2
 471.9 2.1 395.5 -9.25 338.3 -9.25 c 3xb0
 275.2 -9.25 97.7 2.9 61.75 12.45 c 9x60
EndSplineSet
Substitution2: "'smcp' Lowercase to Small Capitals lookup 16-1" s.smcp
EndChar

StartChar: k
Encoding: 107 107 22
Width: 501
VWidth: 0
Flags: W
HStem: 0 21G<56.1 151.322 386.936 508.1> 0 21G<56.1 151.322 386.936 508.1> 511 20G<429.9 540.1> 762 20G<176.929 272.1>
VStem: 439.1 101<489.198 531>
DStem2: 56.1 0 148.1 0 0.156611 0.98766<14.4082 278.165 340.406 791.77> 317.6 288 228.05 261.4 0.551689 -0.83405<0 285.721>
LayerCount: 2
Fore
SplineSet
56.1 0 m 1xb8
 180.1 782 l 1
 272.1 782 l 1
 199 322 l 1
 284.15 348.6 420.7 453 439.1 531 c 1
 540.1 531 l 1
 507.6 417.4 383.8 318.6 317.6 288 c 1
 508.1 0 l 1
 400.1 0 l 1
 228.05 261.4 l 1
 190.05 260.4 l 9
 148.1 0 l 17
 56.1 0 l 1xb8
EndSplineSet
Substitution2: "'smcp' Lowercase to Small Capitals lookup 16-1" k.smcp
EndChar

StartChar: g
Encoding: 103 103 23
Width: 554
VWidth: 0
Flags: HW
LayerCount: 2
Fore
SplineSet
32.2 -248 m 1
 42 -187 l 1
 291 -187 l 2
 338.9 -187 381 -156 391 -92 c 2
 410.5 31.25 l 1
 348.8 4.95 286.2 -6.75 241.2 -6.75 c 3
 82.25 -6.75 62.4 117.6 88.15 280.7 c 0
 115.6 451.85 197.8 537.9 311.75 537.9 c 3
 417.75 537.9 532.6 519.65 579.35 512.95 c 1
 482.7 -96.5 l 2
 462.25 -223.8 378.75 -281.8 281.7 -272 c 2
 32.2 -248 l 1
180.3 271.45 m 0
 169.1 194.3 146.15 76.3 250.85 76.3 c 3
 316.75 76.3 345.8 80.3 421 100.4 c 1
 477.85 454.9 l 2
 316.1 454.9 l 2
 216.45 454.9 187.75 318.7 180.3 271.45 c 0
EndSplineSet
AlternateSubs2: "'salt' Access All Alternates in Latin lookup 4-1" g.salt
Substitution2: "'smcp' Lowercase to Small Capitals lookup 16-1" g.smcp
EndChar

StartChar: v
Encoding: 118 118 24
Width: 520
VWidth: 0
Flags: W
HStem: 0 21G<205.235 334.243> 0 21G<205.235 334.243> 511 20G<91.15 191.829 473.425 560.05>
DStem2: 187.5 531 91.15 531 0.217894 -0.975973<0 432.069> 278.9 108.7 323.85 0 0.461124 0.887336<0 464.203>
LayerCount: 2
Fore
SplineSet
91.15 531 m 25xa0
 187.5 531 l 17
 278.9 108.7 l 1
 448.7 442.6 l 2
 461.7 469.6 470.5 489.95 476.35 531.3 c 9
 554.4 531.3 l 17
 565.7 491.7 559.6 455.45 543.1 421.9 c 1
 323.85 0 l 9
 209.7 0 l 25
 91.15 531 l 25xa0
EndSplineSet
Substitution2: "'smcp' Lowercase to Small Capitals lookup 16-1" v.smcp
EndChar

StartChar: w
Encoding: 119 119 25
Width: 806
VWidth: 0
Flags: HW
LayerCount: 2
Fore
SplineSet
91.15 531 m 1
 184.95 531 l 1
 273.8 112.95 l 1
 444.45 440.05 l 1
 457.45 467.05 466.25 487.4 472.1 528.75 c 1
 545.9 528.75 l 1
 556.45 493.2 553.8 461.45 538.65 428.5 c 1
 513.1 370.85 l 1
 563.2 118.05 l 1
 739.8 442.6 l 1
 752.8 469.6 761.6 489.95 767.45 531.3 c 1
 842.1 531.3 l 1
 853.4 491.7 849 454.6 830.8 421.9 c 2
 596.25 0 l 1
 500.9 0 l 1
 448.15 259.3 l 1
 314.5 0 l 1
 209.7 0 l 1
 91.15 531 l 1
EndSplineSet
Substitution2: "'smcp' Lowercase to Small Capitals lookup 16-1" w.smcp
EndChar

StartChar: y
Encoding: 121 121 26
Width: 552
VWidth: 0
Flags: HW
LayerCount: 2
Fore
SplineSet
91.3 531 m 1
 186.9 531 l 1
 242.5 127.85 l 2
 249.45 81.55 303.45 89 305.85 88.85 c 1
 482.8 444.15 l 2
 496.2 471.3 502.1 491.5 507.95 532.85 c 1
 587.7 532.85 l 1
 599 493.25 591.4 453.9 574.65 420.05 c 1
 367.3 0.85 l 2
 280.55 -175.55 199.1 -254.35 96.35 -274.25 c 1
 96.35 -208.8 l 1
 179.6 -157.15 227.85 -71.45 264.85 0 c 1
 226.05 0 162.1 18.4 148.45 116.9 c 2
 91.3 531 l 1
EndSplineSet
Substitution2: "'smcp' Lowercase to Small Capitals lookup 16-1" y.smcp
EndChar

StartChar: x
Encoding: 120 120 27
Width: 537
VWidth: 0
Flags: W
HStem: 0 21G<22.5 159.272 394.137 511.1> 0 21G<22.5 159.272 394.137 511.1> 511 20G<106.5 224.552 466.159 598.85>
DStem2: 22.5 0 142.3 0 0.655418 0.755267<78.5191 324.089 450.593 703.063> 213.55 531 106.5 531 0.490339 -0.871532<0 218.779 342.567 556.781>
LayerCount: 2
Fore
SplineSet
22.5 0 m 1xa0
 254.95 269.8 l 1
 106.5 531 l 1
 213.55 531 l 1
 319 339.3 l 1
 483.3 531 l 1
 598.85 531 l 1
 365.95 256.6 l 1
 511.1 0 l 1
 405.25 0 l 1
 301.2 187.25 l 1
 142.3 0 l 1
 22.5 0 l 1xa0
EndSplineSet
AlternateSubs2: "'salt' Access All Alternates in Latin lookup 4-1" x.salt
Substitution2: "'smcp' Lowercase to Small Capitals lookup 16-1" x.smcp
EndChar

StartChar: V
Encoding: 86 86 28
Width: 674
VWidth: 0
Flags: HW
LayerCount: 2
Fore
SplineSet
147 732 m 1
 243.9 732 l 1
 348.35 136.85 l 1
 651.65 732 l 1
 756 732 l 1
 378.5 0 l 1
 280.5 0 l 1
 147 732 l 1
EndSplineSet
Substitution2: "'c2sc' Capitals to Small Capitals in Latin lookup 17 subtable" v.smcp
EndChar

StartChar: W
Encoding: 87 87 29
Width: 1004
VWidth: 0
Flags: HW
LayerCount: 2
Fore
SplineSet
147 732 m 1
 241.35 732 l 1
 346.95 140.05 l 1
 647.15 732 l 1
 749.15 732 l 1
 629.05 493.5 l 1
 685.8 134.95 l 1
 986.75 732 l 1
 1086.2 732 l 1
 714.7 0 l 1
 617.9 0 l 1
 560.8 354.05 l 1
 379.55 0 l 1
 280.5 0 l 1
 147 732 l 1
EndSplineSet
Substitution2: "'c2sc' Capitals to Small Capitals in Latin lookup 17 subtable" w.smcp
EndChar

StartChar: C
Encoding: 67 67 30
Width: 576
VWidth: 0
Flags: W
HStem: -6 89<252.778 539.333> 651 89<322.312 608.095>
LayerCount: 2
Fore
SplineSet
110.95 372.65 m 0
 149.5 606.5 214.6 740 413.6 740 c 0
 479.4 740 586.35 724.35 656.3 708.5 c 1
 645.05 635.7 l 1
 626.2 638.25 507.1 652.7 410.9 651 c 1
 351.55 650.15 248.55 655 202.95 366 c 1
 175.25 203.7 201 90.65 315.6 83 c 1
 368.75 80.45 440.7 82.65 561.4 91.15 c 1
 551 18.35 l 1
 468.85 -5.1 376.45 -6.45 299 -6 c 0
 110.75 -5.55 81.45 191.25 110.95 372.65 c 0
EndSplineSet
Substitution2: "'c2sc' Capitals to Small Capitals in Latin lookup 17 subtable" c.smcp
EndChar

StartChar: D
Encoding: 68 68 31
Width: 664
VWidth: 0
Flags: HW
LayerCount: 2
Fore
SplineSet
74.75 0 m 1
 190.75 731.15 l 2
 190.75 732 419.2 732 470.2 732 c 0
 691.3 732 695.1 495.8 671.45 358.5 c 0
 633.85 135.45 542.45 0 356.75 0 c 0
 74.75 0 l 1
180.85 90.05 m 1
 365.6 90.05 l 2
 485.7 90.05 555.9 216.2 579.6 364 c 0
 611.15 562.85 567.7 644.5 451.9 644.5 c 2
 268.65 644.5 l 1
 180.85 90.05 l 1
EndSplineSet
Substitution2: "'c2sc' Capitals to Small Capitals in Latin lookup 17 subtable" d.smcp
EndChar

StartChar: O
Encoding: 79 79 32
Width: 666
VWidth: 0
Flags: W
HStem: -4 89<239.133 468.542> 648 89<316.614 560.488>
LayerCount: 2
Fore
SplineSet
111.85 364.75 m 0
 165.85 707.75 275.25 737 449.2 737 c 3
 623.05 737 734.45 690.05 683.85 357.25 c 0
 634.55 34.25 522.4 -4 348.35 -4 c 3
 183.65 -4 58.85 31.75 111.85 364.75 c 0
203.85 361 m 0
 165.4 119.6 211.9 85 354.1 85 c 3
 487.7 85 554.95 126.1 591.85 361 c 0
 635.85 640.65 562.5 648 443.45 648 c 3
 317.2 648 248 642 203.85 361 c 0
EndSplineSet
Substitution2: "'c2sc' Capitals to Small Capitals in Latin lookup 17 subtable" o.smcp
EndChar

StartChar: S
Encoding: 83 83 33
Width: 573
VWidth: 0
Flags: HW
LayerCount: 2
Fore
SplineSet
76.75 17.5 m 9
 88 91.15 l 17
 130.4 85.45 242 81 335 81 c 0
 376.3 81 454.65 86.9 466.45 163.65 c 2
 476.1 223.85 l 2
 484.5 276.65 482.6 313.75 411.4 313.75 c 10
 282.75 313.75 l 2
 120.65 313.75 117.575 421.683 128.7 492.5 c 10
 138.85 561.2 l 18
 163.1 715.55 257 740.95 365.6 738 c 0
 432.85 736.9 561.7 723.5 618.1 712.65 c 9
 606.85 639.85 l 17
 554.9 640.9 371.6 649 361.7 649 c 1
 289 652.4 244.35 641.9 230.55 554 c 10
 221.75 496.25 l 18
 206.55 400.65 251.35 405.75 304.5 405.75 c 2
 433.75 405.75 l 18
 561.1 405.75 580.8 309.45 568.25 227.75 c 2
 558.6 160.5 l 2
 537.15 3.1 411.3 -8 326.75 -8 c 3
 240.445 -8 120.75 6.45 76.75 17.5 c 9
EndSplineSet
Substitution2: "'c2sc' Capitals to Small Capitals in Latin lookup 17 subtable" s.smcp
EndChar

StartChar: G
Encoding: 71 71 34
Width: 610
VWidth: 0
Flags: HW
LayerCount: 2
Fore
SplineSet
113.4 373.45 m 0
 153.45 607.3 216.4 739.15 415.4 739.15 c 0
 480.9 740 579.3 725.25 656.45 708.65 c 1
 646.05 636.45 l 1
 594.15 644.1 471 650.8 412.85 651.65 c 1
 348.75 652.5 250.1 649.15 207.95 365.45 c 1
 181.95 202.3 205.9 82.05 318.55 82.9 c 1
 394.15 82.9 495.3 136.55 495.3 136.55 c 9
 526 311 l 25
 375 311 l 25
 384.65 371.5 l 17
 427.7 384.45 484.9 396.5 563.65 396.5 c 0
 584.65 396.5 606.8 395.5 630.8 393.5 c 9
 568.45 0 l 17
 499.45 0 l 0
 483.9 55.8 l 1
 451.6 25.6 376.65 -5.95 300.05 -6.7 c 0
 110.6 -7.8 83.45 197.75 113.4 373.45 c 0
EndSplineSet
Substitution2: "'c2sc' Capitals to Small Capitals in Latin lookup 17 subtable" g.smcp
EndChar

StartChar: Q
Encoding: 81 81 35
Width: 670
VWidth: 0
Flags: HW
LayerCount: 2
Fore
SplineSet
115.25 365.5 m 0
 169.25 708.5 278.65 737 452.6 737 c 3
 626.45 737 737.85 689.3 687.25 356.5 c 1
 637.95 33.5 525.8 -3.7 351.75 -4 c 1
 187.05 -4 62.25 32.5 115.25 365.5 c 0
207.25 361 m 0
 168.8 119.6 215.3 85 357.5 85 c 3
 491.1 85 558.35 126.1 595.25 361 c 0
 639.25 640.65 565.9 648 446.85 648 c 3
 320.6 648 251.4 642 207.25 361 c 0
304.65 -33 m 9
 364.15 -33 l 17
 410.3 -79.55 466.2 -74.9 527.35 -55.25 c 1
 513 -144.25 l 1
 429.35 -169.9 301.2 -140.65 304.65 -33 c 9
EndSplineSet
Substitution2: "'c2sc' Capitals to Small Capitals in Latin lookup 17 subtable" q.smcp
EndChar

StartChar: M
Encoding: 77 77 36
Width: 809
VWidth: 0
Flags: W
HStem: 0 21G<65 161.889 368.982 479.779 684.55 777.645> 0 21G<65 161.889 368.982 479.779 684.55 777.645> 712 20G<228.896 358.578 696.446 832.65>
DStem2: 65 0 157.3 0 0.224325 0.974514<20.7052 603.616> 355.6 732 287.65 568.15 0.147263 -0.989097<152.057 585.686> 441.85 152.7 470.6 0 0.4143 0.91014<0 498.997> 684.55 0 776.1 0 0.0770247 0.997029<7.05161 570.945>
LayerCount: 2
Fore
SplineSet
65 0 m 1xa0
 233.5 732 l 1
 355.6 732 l 1
 441.85 152.7 l 1
 705.55 732 l 1
 832.65 732 l 1
 776.1 0 l 1
 684.55 0 l 1
 731.75 569 l 1
 470.6 0 l 1
 371.95 0 l 1
 287.65 568.15 l 1
 157.3 0 l 1
 65 0 l 1xa0
EndSplineSet
AlternateSubs2: "'salt' Access All Alternates in Latin lookup 4-1" M.salt
Substitution2: "'c2sc' Capitals to Small Capitals in Latin lookup 17 subtable" m.smcp
EndChar

StartChar: I
Encoding: 73 73 37
Width: 233
VWidth: 0
Flags: W
HStem: 0 21G<83.25 178.419> 0 21G<83.25 178.419> 712 20G<196.081 291.25>
VStem: 83.25 208
DStem2: 83.25 0 175.25 0 0.156517 0.987675<14.3996 741.134>
LayerCount: 2
Fore
SplineSet
83.25 0 m 1xb0
 199.25 732 l 1
 291.25 732 l 1
 175.25 0 l 1
 83.25 0 l 1xb0
EndSplineSet
Substitution2: "'c2sc' Capitals to Small Capitals in Latin lookup 17 subtable" i.smcp
EndChar

StartChar: J
Encoding: 74 74 38
Width: 359
VWidth: 0
Flags: HW
LayerCount: 2
Fore
SplineSet
35.75 21.6 m 1
 50.4 90.6 l 1
 126.5 75.3 219.35 56.2 239 181.65 c 1
 326.3 732 l 1
 418.3 732 l 1
 328.3 165 l 2
 321.3 118 308 50 253 18 c 0
 195 -16 82.75 -12.4 35.75 21.6 c 1
EndSplineSet
Substitution2: "'c2sc' Capitals to Small Capitals in Latin lookup 17 subtable" j.smcp
EndChar

StartChar: H
Encoding: 72 72 39
Width: 638
VWidth: 0
Flags: W
HStem: 0 21G<79 174.208 494 589.169> 0 21G<79 174.208 494 589.169> 309.5 89<233.35 543.65> 712 20G<191.831 287 606.783 702>
DStem2: 79 0 171 0 0.156517 0.987675<14.3996 327.856 417.747 741.134> 494 0 586 0 0.156517 0.987675<14.3996 313.457 403.347 741.134>
LayerCount: 2
Fore
SplineSet
79 0 m 1xb0
 195 732 l 1
 287 732 l 1
 233.35 398.5 l 1
 556.35 398.5 l 1
 610 732 l 1
 702 732 l 1
 586 0 l 1
 494 0 l 1
 543.65 309.5 l 1
 220.65 309.5 l 1
 171 0 l 1
 79 0 l 1xb0
EndSplineSet
Substitution2: "'c2sc' Capitals to Small Capitals in Latin lookup 17 subtable" h.smcp
EndChar

StartChar: E
Encoding: 69 69 40
Width: 565
VWidth: 0
Flags: HW
LayerCount: 2
Fore
SplineSet
92.9 130.5 m 2
 166.95 597.5 l 2
 184 702.4 245.9 735.4 323.85 732 c 1
 323.85 732 619.1 718.4 636.35 716 c 1
 624.8 642.25 l 1
 318.3 642.25 l 2
 269.7 642.25 261.45 613.25 257.45 586.25 c 2
 229.35 410.25 l 1
 545.05 400.1 l 1
 532.65 325.8 l 1
 214.8 315.95 l 1
 186.4 138.75 l 2
 179.1 85.75 212.25 86.75 241.25 86.75 c 2
 537.75 86.75 l 1
 525.35 14 l 1
 509.45 11.9 216.85 -3 216.85 -3 c 1
 149.6 -6.75 76.55 27.65 92.9 130.5 c 2
EndSplineSet
Substitution2: "'c2sc' Capitals to Small Capitals in Latin lookup 17 subtable" e.smcp
EndChar

StartChar: L
Encoding: 76 76 41
Width: 533
VWidth: 0
Flags: W
HStem: 0 89<191.397 520.45> 712 20G<188.226 282.6>
DStem2: 94.5 130.5 188.15 141 0.159127 0.987258<-17.5185 609.263>
LayerCount: 2
Fore
SplineSet
94.5 130.5 m 2
 191.45 732 l 1
 282.6 732 l 1
 188.15 141 l 2
 180.15 88 214 89 243 89 c 2
 534 89 l 1
 520.45 0 l 1
 214.25 0 l 2
 143.65 0 79.05 33.65 94.5 130.5 c 2
EndSplineSet
Substitution2: "'c2sc' Capitals to Small Capitals in Latin lookup 17 subtable" l.smcp
EndChar

StartChar: F
Encoding: 70 70 42
Width: 566
VWidth: 0
Flags: HW
LayerCount: 2
Fore
SplineSet
74 0 m 17
 167.8 594.5 l 2
 184.85 699.4 246.9 735.4 325 732 c 1
 325 732 620.25 718.4 637.5 716 c 1
 626.1 642.25 l 1
 319.6 642.25 l 2
 271 642.25 262.6 613.25 258.6 586.25 c 2
 231.2 409.65 l 1
 546.2 399.5 l 1
 534.8 325.2 l 1
 215.8 315.35 l 1
 166 0 l 9
 74 0 l 17
EndSplineSet
Substitution2: "'c2sc' Capitals to Small Capitals in Latin lookup 17 subtable" f.smcp
EndChar

StartChar: K
Encoding: 75 75 43
Width: 585
VWidth: 0
Flags: HW
LayerCount: 2
Fore
SplineSet
74.75 0 m 1
 190.75 732 l 1
 281.25 732 l 1
 230.15 410 l 1
 308.6 410 l 1
 571.6 732 l 1
 684.75 732 l 1
 387.5 360.05 l 1
 568.75 0 l 1
 460.4 0 l 1
 301.75 322.5 l 1
 217.05 322.5 l 9
 166.25 0 l 17
 74.75 0 l 1
EndSplineSet
Substitution2: "'c2sc' Capitals to Small Capitals in Latin lookup 17 subtable" k.smcp
EndChar

StartChar: T
Encoding: 84 84 44
Width: 581
VWidth: 0
Flags: W
HStem: 0 21G<242.25 337.41> 0 21G<242.25 337.41> 643 89<148.75 343.85 435.85 651.35>
DStem2: 242.25 0 334.25 0 0.156073 0.987746<14.3587 650.977>
LayerCount: 2
Fore
SplineSet
134.35 643 m 1xa0
 148.75 732 l 1
 665.75 732 l 1
 651.35 643 l 1
 435.85 643 l 1
 334.25 0 l 1
 242.25 0 l 1
 343.85 643 l 1
 134.35 643 l 1xa0
EndSplineSet
Substitution2: "'c2sc' Capitals to Small Capitals in Latin lookup 17 subtable" t.smcp
EndChar

StartChar: P
Encoding: 80 80 45
Width: 595
VWidth: 0
Flags: W
HStem: 0 21G<70.35 165.575> 0 21G<70.35 165.575> 290.5 87.5<222.863 497.061> 307.95 70.05<222.25 445.315> 643.5 88.5<264.25 534.1>
DStem2: 70.35 0 162.35 0 0.156517 0.987675<14.3996 326.598 397.116 665.918>
LayerCount: 2
Fore
SplineSet
70.35 0 m 1x98
 186.35 732 l 1
 492.35 732 l 2
 574.8 732 665.05 682.95 641.25 511.75 c 0
 609.35 285.25 499.55 289.45 423 290.5 c 0xa8
 383 290.95 217 304.95 212 307.95 c 1
 162.35 0 l 1
 70.35 0 l 1x98
222.25 378 m 2x18
 432.4 378 l 2x28
 482.3 378 529.2 395.1 548.25 515.8 c 1
 565.6 634.65 513.65 643.5 475.25 643.5 c 2
 264.25 643.5 l 1
 222.25 378 l 2x18
EndSplineSet
Substitution2: "'c2sc' Capitals to Small Capitals in Latin lookup 17 subtable" p.smcp
EndChar

StartChar: R
Encoding: 82 82 46
Width: 608
VWidth: 0
Flags: W
HStem: 0 21G<70.35 165.528 479.776 588.35> 0 21G<70.35 165.528 479.776 588.35> 302.75 76.3<223.4 311.53> 643.5 88.5<265.25 534.776>
DStem2: 70.35 0 162.35 0 0.156517 0.987675<14.3996 320.947 398.333 666.074> 482.95 298.25 390.95 290.25 0.3332 -0.942856<0 282.34>
LayerCount: 2
Fore
SplineSet
70.35 0 m 1xb0
 186.35 732 l 1
 497.6 732 l 2
 589.35 732 658.35 675.25 639.55 506 c 0
 619.2 316.7 513.75 302.55 482.95 298.25 c 1
 588.35 0 l 1
 486.35 0 l 1
 390.95 290.25 l 1
 210.45 302.75 l 1
 162.35 0 l 1
 70.35 0 l 1xb0
223.4 379.05 m 1
 433.65 379.05 l 2
 488.05 379.05 537.7 410.15 546.55 509.75 c 0
 556.95 628.55 530.55 643.5 479.75 643.5 c 2
 265.25 643.5 l 1
 223.4 379.05 l 1
EndSplineSet
Substitution2: "'c2sc' Capitals to Small Capitals in Latin lookup 17 subtable" r.smcp
EndChar

StartChar: U
Encoding: 85 85 47
Width: 655
VWidth: 0
Flags: HW
LayerCount: 2
Fore
SplineSet
122.35 309.2 m 2
 189.45 732 l 1
 282.3 732 l 1
 214.75 304.7 l 2
 187 129.1 230.15 84 346.4 84 c 3
 470.25 84 529 139.9 554.9 304.7 c 2
 622.45 732 l 1
 715.45 732 l 1
 648.65 300.2 l 2
 621.45 130.2 561.8 -5 337.1 -5 c 3
 177.3 -5 84.65 71.4 122.35 309.2 c 2
EndSplineSet
Substitution2: "'c2sc' Capitals to Small Capitals in Latin lookup 17 subtable" u.smcp
EndChar

StartChar: B
Encoding: 66 66 48
Width: 597
VWidth: 0
Flags: HW
LayerCount: 2
Fore
SplineSet
74.75 0 m 1
 190.75 732 l 1
 477.5 732 l 2
 625 732 654.05 624.95 642.55 534.95 c 0
 630.85 440.65 581.15 394.5 521.75 380 c 1
 557.35 373.95 609.25 312.25 595.4 200.25 c 0
 579.45 74.85 516.25 0 362.25 0 c 2
 74.75 0 l 1
181.7 87.5 m 1
 374.85 87.5 l 2
 421.35 87.5 485.65 102.45 502.85 210.2 c 0
 513.95 278.65 491.95 340.85 414.7 340.85 c 9
 221.55 340.85 l 1
 181.7 87.5 l 1
235.5 426.85 m 1
 427.15 426.85 l 2
 495.4 426.85 538.2 463.45 549.85 537.35 c 0
 563.65 626.4 520.55 644.5 462.85 644.5 c 2
 270.35 644.5 l 1
 235.5 426.85 l 1
EndSplineSet
Substitution2: "'c2sc' Capitals to Small Capitals in Latin lookup 17 subtable" b.smcp
EndChar

StartChar: N
Encoding: 78 78 49
Width: 662
VWidth: 0
Flags: W
HStem: 0 21G<74.75 170.913 507.84 608.919> 0 21G<74.75 170.913 507.84 608.919> 712 20G<187.581 290.594 626.59 721.75>
DStem2: 74.75 0 167.75 0 0.156517 0.987675<14.5561 581.769> 281.35 732 256.35 560.25 0.419565 -0.907725<145.413 618.855> 541 170.25 605.75 0 0.156517 0.987675<0 568.717>
LayerCount: 2
Fore
SplineSet
74.75 0 m 1xa0
 190.75 732 l 1
 281.35 732 l 1
 541 170.25 l 1
 629.75 732 l 1
 721.75 732 l 1
 605.75 0 l 0
 517.15 0 l 1
 256.35 560.25 l 1
 167.75 0 l 1
 74.75 0 l 1xa0
EndSplineSet
AlternateSubs2: "'salt' Access All Alternates in Latin lookup 4-1" N.salt
Substitution2: "'c2sc' Capitals to Small Capitals in Latin lookup 17 subtable" n.smcp
EndChar

StartChar: X
Encoding: 88 88 50
Width: 612
VWidth: 0
Flags: W
HStem: 0 21G<36.5 159.391 461.852 569.05> 0 21G<36.5 159.391 461.852 569.05> 712 20G<149.5 256.72 573.156 696>
DStem2: 36.5 0 144.4 0 0.601814 0.798636<64.9357 409.735 557.045 916.562> 248.05 732 149.5 732 0.401606 -0.915812<0 313.895 459.128 759.712>
LayerCount: 2
Fore
SplineSet
36.5 0 m 1xa0
 311 366.85 l 1
 149.5 732 l 1
 248.05 732 l 1
 372.9 444 l 1
 588.1 732 l 1
 696 732 l 1
 412.95 353.2 l 1
 569.05 0 l 1
 470.5 0 l 1
 351.2 275.9 l 1
 144.4 0 l 1
 36.5 0 l 1xa0
EndSplineSet
AlternateSubs2: "'salt' Access All Alternates in Latin lookup 4-1" X.salt
Substitution2: "'c2sc' Capitals to Small Capitals in Latin lookup 17 subtable" x.smcp
EndChar

StartChar: Z
Encoding: 90 90 51
Width: 562
VWidth: 0
Flags: HW
LayerCount: 2
Fore
SplineSet
32.75 0 m 1
 47.15 89 l 1
 513.1 643 l 1
 134.35 643 l 1
 148.75 732 l 1
 644.75 732 l 1
 630.35 643 l 1
 167.25 89 l 1
 543.15 89 l 1
 528.75 0 l 1
 32.75 0 l 1
EndSplineSet
Substitution2: "'c2sc' Capitals to Small Capitals in Latin lookup 17 subtable" z.smcp
EndChar

StartChar: Y
Encoding: 89 89 52
Width: 637
VWidth: 0
Flags: HW
LayerCount: 2
Fore
SplineSet
147 732 m 1
 244.95 732 l 1
 360.95 359.55 l 1
 611.35 732 l 1
 719 732 l 1
 392.95 251 l 1
 353.3 0 l 1
 261.3 0 l 1
 300.95 251 l 1
 147 732 l 1
EndSplineSet
Substitution2: "'c2sc' Capitals to Small Capitals in Latin lookup 17 subtable" y.smcp
EndChar

StartChar: AE
Encoding: 198 198 59
Width: 946
VWidth: 0
Flags: HW
LayerCount: 2
Fore
SplineSet
28.05 0 m 1
 416.65 596.2 l 2
 513.45 743.35 594.7 733.05 685.95 732 c 1
 685.95 732 983.9 718.4 1001 716 c 1
 989.6 641.4 l 1
 680.55 641.4 l 2
 631.95 641.4 627.8 614.95 622.1 587.95 c 1
 593 405.4 l 1
 908.85 395.25 l 1
 897.45 320.95 l 1
 577.6 311.1 l 1
 550.2 137.05 l 2
 542.2 84.05 576.05 85.05 605.05 85.05 c 2
 901.55 85.05 l 1
 889.15 12.3 l 1
 873.4 10.2 581.25 -4.7 581.25 -4.7 c 2
 514.5 -8.7 441.05 24.6 455.65 121.45 c 2
 470.3 220.55 l 1
 277.4 220.55 l 1
 132.55 0 l 1
 28.05 0 l 1
332.95 308.05 m 1
 485.25 308.05 l 1
 536.45 616.3 l 1
 332.95 308.05 l 1
EndSplineSet
EndChar

StartChar: Ccedilla
Encoding: 199 199 60
Width: 576
VWidth: 0
Flags: HW
LayerCount: 2
Fore
SplineSet
110.95 372.65 m 0
 149.5 606.5 214.6 740 413.6 740 c 0
 479.4 740 586.35 724.35 656.3 708.5 c 1
 645.05 635.7 l 1
 626.2 638.25 507.1 652.7 410.9 651 c 1
 351.55 650.15 250.25 655 204.65 366 c 0
 176.95 203.7 201 90.65 315.6 83 c 1
 368.75 80.45 440.7 82.65 561.4 91.15 c 1
 551 18.35 l 1
 468.85 -5.1 376.45 -6.45 299 -6 c 0
 110.75 -5.55 81.45 191.25 110.95 372.65 c 0
185.4 -174.35 m 9
 192.45 -131.05 l 25
 245.05 -116.05 l 17
 275.9 -107.45 283.7 -74.85 289.7 -36.85 c 1
 313.5 -37.7 364.2 -36.85 364.2 -36.85 c 17
 348.2 -138.85 319.7 -174.35 237.9 -174.35 c 2
 185.4 -174.35 l 9
EndSplineSet
Substitution2: "'c2sc' Capitals to Small Capitals in Latin lookup 17 subtable" ccedilla.smcp
EndChar

StartChar: Eth
Encoding: 208 208 61
Width: 663
VWidth: 0
Flags: HW
LayerCount: 2
Fore
SplineSet
63.6 344.5 m 1
 73.05 401.5 l 1
 138.05 401.5 l 1
 189.9 731.15 l 1
 189.9 732 419.4 732 470.4 732 c 1
 691.5 732 695.1 493.25 671.45 358.5 c 0
 633.85 139.05 543.1 0 357.4 0 c 2
 73.9 0 l 1
 128.6 344.5 l 1
 63.6 344.5 l 1
180 90.05 m 1
 365.5 90.05 l 2
 484.55 90.05 554.9 216.2 578.6 364 c 0
 610.15 562.85 567.45 644.5 453.3 644.5 c 2
 267.8 644.5 l 1
 230.05 401.5 l 1
 361.55 401.5 l 1
 352.1 344.5 l 1
 220.6 344.5 l 1
 180 90.05 l 1
EndSplineSet
Substitution2: "'c2sc' Capitals to Small Capitals in Latin lookup 17 subtable" eth.smcp
EndChar

StartChar: Oslash
Encoding: 216 216 76
Width: 666
VWidth: 0
Flags: HW
LayerCount: 2
Fore
SplineSet
61.8 0 m 1
 126.8 80.25 l 1
 96 133.4 86.45 225.3 109.15 365.5 c 0
 163.15 708.5 272.7 737 446.65 737 c 0
 520.2 737 583.2 729.3 626.5 695.05 c 1
 656.05 732 l 1
 720.8 732 l 1
 660.45 657.4 l 1
 694.15 602.4 704.15 507.05 681.15 356.5 c 0
 631.85 33.5 519.7 -4 345.65 -4 c 0
 271.45 -4 205 2.85 159.85 40.85 c 1
 126.55 0 l 1
 61.8 0 l 1
201.15 361 m 0
 186.1 267 185.5 205.9 197.95 166.35 c 1
 565.15 621.5 l 1
 536.7 646.55 492.45 648 440.75 648 c 0
 314.5 648 245.3 642 201.15 361 c 0
221.95 117 m 1
 248.4 91.3 291.25 85 351.55 85 c 0
 485.15 85 552.25 126.1 589.15 361 c 0
 605.5 467.2 605.4 532.8 591.8 574.4 c 1
 221.95 117 l 1
EndSplineSet
Substitution2: "'c2sc' Capitals to Small Capitals in Latin lookup 17 subtable" oslash.smcp
EndChar

StartChar: ae
Encoding: 230 230 88
Width: 887
VWidth: 0
Flags: HW
LayerCount: 2
Fore
SplineSet
52.05 281.45 m 0
 93.95 508.55 189.4 532.5 274.7 541 c 0
 334.75 547.8 439.7 532.6 498.15 499.05 c 1
 535 526.35 585.7 540.85 660.85 541 c 0
 783.7 541.15 871.8 505.65 858.6 388 c 0
 834.05 162.7 518.45 206.75 481.45 221.75 c 1
 462.55 109.45 481.7 76.1 552.7 75.25 c 0
 624.2 70.15 718.55 79.15 792.2 90 c 1
 780.95 22 l 1
 698 -1.3 616.6 -8.8 525.95 -7 c 0
 463.6 -6.25 422.9 16.9 402.15 62.85 c 1
 362.95 26.9 267 -7 200.6 -7 c 0
 88.45 -7 10.75 57.5 52.05 281.45 c 0
140.2 256.25 m 0
 120 128.45 132.95 80 214.4 79.15 c 0
 275.85 78.3 357.05 96.8 385.6 125 c 1
 381.05 167.7 385.75 220.8 397.45 284 c 0
 409.25 346 422.2 398.35 445.35 438.2 c 1
 392.55 452.7 317.3 464.6 280.6 457.2 c 0
 221.85 445.95 168.35 431.65 140.2 256.25 c 0
490.35 286.25 m 1
 490.35 286.25 744.5 255.85 765.85 382.75 c 0
 776.95 447.9 737.3 456.65 657.3 456.5 c 0
 515.85 456.2 507.55 370.35 490.35 286.25 c 1
EndSplineSet
Substitution2: "'smcp' Lowercase to Small Capitals lookup 16-1" ae.smcp
EndChar

StartChar: ccedilla
Encoding: 231 231 89
Width: 496
VWidth: 0
Flags: HW
LayerCount: 2
Fore
SplineSet
87.85 270.5 m 0
 130.2 516.75 210.5 537.7 305.7 537.7 c 3
 357.7 537.7 461 525.7 533.2 508.5 c 1
 523.7 445.5 l 1
 523.7 445.5 397.55 453.2 308.55 453.2 c 3
 248.2 453.2 212.6 446.7 178.85 262.3 c 0
 153.05 117.35 182.8 77.8 248.85 77.8 c 3
 340.85 77.8 474 88.35 474 88.35 c 1
 463.65 23.65 l 17
 378.95 -3.85 310.5 -6.55 227.5 -5.85 c 0
 125.95 -5 53.15 68.45 87.85 270.5 c 0
141.2 -174.65 m 9
 148.1 -131.35 l 25
 200.85 -116.35 l 17
 230.85 -104.35 239.35 -75.15 245.35 -37.15 c 1
 269.15 -38 319.85 -37.15 319.85 -37.15 c 17
 303.85 -139.15 275.5 -174.65 193.7 -174.65 c 2
 141.2 -174.65 l 9
EndSplineSet
Substitution2: "'smcp' Lowercase to Small Capitals lookup 16-1" ccedilla.smcp
EndChar

StartChar: eth
Encoding: 240 240 98
Width: 537
VWidth: 0
Flags: HW
LayerCount: 2
Fore
SplineSet
76.6 262.35 m 0
 107.85 447.65 162.3 531 297.3 531 c 1
 387.85 531 l 2
 393.85 531 444.45 531 457.5 517.5 c 1
 450.95 561.25 436.4 606.05 407.5 639.9 c 1
 262.2 583.1 l 1
 246 642.5 l 1
 351.35 683.5 l 1
 313.4 703.8 264.75 706.35 226.1 704.5 c 1
 238.35 783 l 1
 336.65 783 402.85 763.7 451.1 723.7 c 1
 568.9 769.65 l 1
 586.1 710.25 l 1
 495.7 675.6 l 1
 574.9 558.3 557.85 364.65 540.6 254.4 c 0
 512 75.8 454.1 0 321.6 0 c 1
 213.3 0 l 1
 76.3 0 52.85 122.45 76.6 262.35 c 0
168.6 258.9 m 0
 144 110.4 179.25 87.6 232.3 89.3 c 1
 328.15 89.3 l 1
 380.05 88.45 424.55 109.2 448.6 258.9 c 0
 471.1 399.6 459.2 442 381.8 442 c 2
 292.75 442 l 1
 231.55 442 194.2 411.7 168.6 258.9 c 0
EndSplineSet
Substitution2: "'smcp' Lowercase to Small Capitals lookup 16-1" eth.smcp
EndChar

StartChar: oslash
Encoding: 248 248 105
Width: 565
VWidth: 0
Flags: HW
LayerCount: 2
Fore
SplineSet
44.55 0 m 1
 104.65 66.05 l 1
 78.4 108.05 73.85 174.2 87.7 261.45 c 0
 121.7 478.45 189.9 536 365.4 536 c 0
 424.2 536 469.95 525.3 502.4 504.15 c 1
 526.7 531 l 1
 595.7 531 l 1
 538.3 468.5 l 1
 569.8 422.8 576.05 349.1 560.2 254.4 c 0
 527.5 57.4 467.85 -5 290.45 -5 c 0
 222.3 -5 172.15 6.7 138 31.25 c 1
 109.3 0 l 1
 44.55 0 l 1
178.7 145.75 m 1
 439.1 435.75 l 1
 419.8 447.5 391.35 451.5 354.3 451.5 c 0
 250.25 451.5 208.75 431.5 179.7 258 c 0
 171.2 205.85 171.05 169.85 178.7 145.75 c 1
201.45 99.65 m 1
 222.45 82.5 254.3 79.5 295.6 79.5 c 0
 393.1 79.5 439.85 92.6 468.2 258 c 0
 479.4 323.1 478.85 365.1 467.1 392.35 c 1
 201.45 99.65 l 1
EndSplineSet
Substitution2: "'smcp' Lowercase to Small Capitals lookup 16-1" oslash.smcp
EndChar

StartChar: thorn
Encoding: 254 254 106
Width: 551
VWidth: 0
Flags: HW
LayerCount: 2
Fore
SplineSet
22.5 -270 m 1
 189.5 782 l 1
 281.5 782 l 1
 231.65 471.6 l 17
 262.9 492.7 361.1 538.5 427.75 538.5 c 3
 545.9 538.5 579.1 393.7 559.3 262.35 c 0
 542.5 152.15 513.65 -10.75 340.75 -10.75 c 3
 295.75 -10.75 217 1.95 161.35 27.5 c 1
 114.5 -270 l 1
 22.5 -270 l 1
172.7 96.5 m 1
 240.2 75.3 290.45 75.55 339.25 73 c 1
 391.9 73 444.9 108.25 466.3 266.3 c 0
 482.45 388.9 457.55 457.15 402.2 452.9 c 1
 341.45 449.5 279.9 429.2 221.85 406.25 c 1
 172.7 96.5 l 1
EndSplineSet
Substitution2: "'smcp' Lowercase to Small Capitals lookup 16-1" thorn.smcp
EndChar

StartChar: Thorn
Encoding: 222 222 113
Width: 552
VWidth: 0
Flags: HW
LayerCount: 2
Fore
SplineSet
56.1 0 m 1
 94.1 243 133.1 486 171.1 729 c 1
 263.1 729 l 1
 241.1 588 l 1
 424.6 588 l 2
 488.3 588 589.5 552.9 566.6 373.05 c 0
 540.55 163.95 444.05 153.7 359 153.25 c 0
 318.1 152.95 234.65 152.1 175.95 173.1 c 1
 148.1 0 l 1
 56.1 0 l 1
186.2 240.75 m 2
 357.7 240.75 l 2
 416.5 240.75 453.55 254.95 472.75 376.25 c 1
 490.1 495.25 430 499.65 398.5 499.65 c 1
 227 499.65 l 1
 186.2 240.75 l 2
EndSplineSet
Substitution2: "'c2sc' Capitals to Small Capitals in Latin lookup 17 subtable" thorn.smcp
EndChar

StartChar: uni00B5
Encoding: 181 181 114
Width: 592
VWidth: 0
Flags: HW
LayerCount: 2
Fore
SplineSet
41.15 -270 m 1
 109.9 165.5 l 1
 168.15 531 l 1
 260.15 531 l 1
 201.75 164.9 l 2
 192.2 102.5 222.6 75.5 269.25 75.5 c 0
 342.8 75.5 382.4 94 455.35 129.5 c 1
 519.15 531 l 1
 611.15 531 l 1
 527.15 0 l 1
 458.65 0 l 1
 444.85 60.5 l 1
 383.55 28.2 329.4 -4.95 256.5 -6.75 c 0
 224.25 -7.5 198.65 -0.45 177.7 12.7 c 1
 133.15 -270 l 1
 41.15 -270 l 1
EndSplineSet
EndChar

StartChar: germandbls
Encoding: 223 223 115
Width: 570
VWidth: 0
Flags: HW
LayerCount: 2
Fore
SplineSet
56.1 0 m 1
 146.1 566 l 2
 164.1 682 236.6 778.05 406.75 778.05 c 3
 699.65 778.05 632.75 523.05 520.55 448.35 c 0
 479.2 422.25 424.25 406.35 415 351.4 c 0
 399.5 260.8 601.2 314.7 578.25 170.7 c 2
 571.85 128.2 l 2
 555.1 16.05 457.9 -8 390.1 -8 c 3
 322.1 -8 263.1 5.95 226.85 11 c 9
 237.5 81.65 l 17
 276.15 81.05 335.8 76.5 396.4 76.5 c 3
 435.55 76.5 470.35 99.8 478.05 139.8 c 2
 484.15 172.15 l 1
 496.55 250.7 299.45 202.85 321.25 348.45 c 0
 332.1 422.65 349.65 445.4 455.95 504.9 c 0
 493.2 526.95 515.65 561.55 521.2 602.1 c 0
 531.05 678.5 479.6 689.5 402.5 689.5 c 3
 318.4 689.5 253.55 664.55 235.85 552.5 c 2
 148.1 0 l 1
 56.1 0 l 1
EndSplineSet
Substitution2: "'smcp' Lowercase to Small Capitals lookup 16-1" germandbls.smcp
EndChar

StartChar: asciitilde
Encoding: 126 126 116
Width: 432
VWidth: 0
Flags: HW
LayerCount: 2
Fore
SplineSet
137.3 575.9 m 17
 180.2 609.35 212.9 644.8 266.35 644.8 c 27
 310.35 644.8 326.35 609.8 366.35 609.8 c 1
 405.5 609.5 437.8 632.75 466.35 649.8 c 9
 481.2 603 l 17
 450.8 576.8 408.2 531 355.5 531 c 3
 310.8 531 289.6 566 250.6 566 c 3
 211.6 566 190 546.5 152.45 531 c 9
 137.3 575.9 l 17
EndSplineSet
EndChar

StartChar: asciicircum
Encoding: 94 94 117
Width: 389
VWidth: 0
Flags: HW
LayerCount: 2
Fore
SplineSet
130.7 531 m 1
 266.3 663.35 l 1
 346.3 663.35 l 1
 427.2 531 l 1
 351.9 531 l 1
 303.05 606.65 l 1
 221.9 531 l 1
 130.7 531 l 1
EndSplineSet
EndChar

StartChar: grave
Encoding: 96 96 118
Width: 252
VWidth: 0
Flags: HW
LayerCount: 2
Fore
SplineSet
123.8 665.5 m 25
 219.5 665.5 l 25
 317.7 531 l 25
 242.7 531 l 25
 123.8 665.5 l 25
EndSplineSet
Substitution2: "'smcp' Lowercase to Small Capitals lookup 16-1" grave.smcp
EndChar

StartChar: dieresis
Encoding: 168 168 119
Width: 453
VWidth: 0
Flags: HW
LayerCount: 2
Fore
SplineSet
138.7 582 m 0
 143 611.2 171.05 634.25 200.25 634.25 c 0
 229.45 634.25 248.5 611.2 244.2 582 c 0
 239.9 552.8 212.7 528.75 183.5 528.75 c 0
 154.3 528.75 134.4 552.8 138.7 582 c 0
393.7 582 m 0
 398 611.2 426.05 634.25 455.25 634.25 c 0
 484.45 634.25 503.5 611.2 499.2 582 c 0
 494.9 552.8 467.7 528.75 438.5 528.75 c 0
 409.3 528.75 389.4 552.8 393.7 582 c 0
EndSplineSet
Substitution2: "'smcp' Lowercase to Small Capitals lookup 16-1" dieresis.smcp
EndChar

StartChar: acute
Encoding: 180 180 120
Width: 242
VWidth: 0
Flags: HW
LayerCount: 2
Fore
SplineSet
102.65 531 m 25
 226.45 665.5 l 25
 328.95 665.5 l 25
 177.65 531 l 25
 102.65 531 l 25
EndSplineSet
Substitution2: "'smcp' Lowercase to Small Capitals lookup 16-1" acute.smcp
EndChar

StartChar: cedilla
Encoding: 184 184 121
Width: 249
VWidth: 0
Flags: HW
LayerCount: 2
Fore
SplineSet
18.7 -174.5 m 9
 25.75 -131.2 l 25
 78.35 -116.2 l 17
 108.35 -104.2 116.85 -75 122.85 -37 c 1
 197.35 -37 l 17
 181.35 -139 153 -174.5 71.2 -174.5 c 2
 18.7 -174.5 l 9
EndSplineSet
EndChar

StartChar: exclam
Encoding: 33 33 122
Width: 266
VWidth: 0
Flags: HW
LayerCount: 2
Fore
SplineSet
80.8 23 m 2
 91.3 89 l 2
 93.3 104 103.3 114 119.3 114 c 2
 183.3 114 l 2
 198.3 114 204.3 103 202.3 89 c 2
 191.8 23 l 2
 189.8 8 179.8 0 165.8 0 c 2
 101.8 0 l 2
 87.8 0 78.8 9 80.8 23 c 2
117.8 199.4 m 1
 193.3 731 l 1
 296.55 731 l 1
 203.45 199.4 l 1
 117.8 199.4 l 1
EndSplineSet
Substitution2: "'smcp' Lowercase to Small Capitals lookup 16-1" exclam.smcp
EndChar

StartChar: degree
Encoding: 176 176 123
Width: 293
VWidth: 0
Flags: HW
LayerCount: 2
Fore
SplineSet
144.7 632 m 0
 145.45 689 191.9 734.4 247.9 734.4 c 0
 303.9 734.4 348.45 689 347.7 632 c 0
 346.95 575 301.5 530.75 245.5 530.75 c 0
 189.5 530.75 143.95 575 144.7 632 c 0
194.55 632 m 25
 194.25 603.5 217.75 580.85 246.25 580.85 c 27
 274.75 580.85 297.55 603.5 297.85 632 c 25
 298.15 660.5 275.8 684.15 247.3 684.15 c 27
 218.8 684.15 194.85 660.5 194.55 632 c 25
EndSplineSet
Substitution2: "'smcp' Lowercase to Small Capitals lookup 16-1" degree.smcp
EndChar

StartChar: period
Encoding: 46 46 124
Width: 268
VWidth: 0
Flags: W
HStem: 0 114<93.9812 193.071>
VStem: 82.45 121.5
LayerCount: 2
Fore
SplineSet
82.45 23 m 2
 92.95 89 l 2
 94.95 104 104.95 114 120.95 114 c 2
 182.95 114 l 2
 200.95 114 206.95 105 203.95 89 c 2
 193.45 23 l 2
 190.45 5 179.45 0 165.45 0 c 2
 103.45 0 l 2
 89.45 0 80.45 9 82.45 23 c 2
EndSplineSet
EndChar

StartChar: periodcentered
Encoding: 183 183 125
Width: 268
VWidth: 0
Flags: HW
LayerCount: 2
Fore
SplineSet
133.85 350.1 m 2
 144.35 416.1 l 2
 146.35 431.1 156.35 441.1 172.35 441.1 c 2
 234.35 441.1 l 2
 252.35 441.1 258.35 432.1 255.35 416.1 c 2
 244.85 350.1 l 2
 241.85 332.1 230.85 327.1 216.85 327.1 c 2
 154.85 327.1 l 2
 140.85 327.1 131.85 336.1 133.85 350.1 c 2
EndSplineSet
Substitution2: "'smcp' Lowercase to Small Capitals lookup 16-1" periodcentered.smcp
EndChar

StartChar: comma
Encoding: 44 44 126
Width: 265
VWidth: 0
Flags: HW
LayerCount: 2
Fore
SplineSet
70.45 -88 m 1
 76.2 -51.5 l 0
 106.2 -52.5 109.9 -32.85 111.9 -22 c 2
 115.45 0 l 1
 104.45 0 l 2
 90.45 0 80.45 8 83.45 25 c 2
 92.95 88 l 2
 95.95 106 106.8 115 122.8 115 c 2
 182.8 115 l 2
 200.8 115 203.95 103 201.95 88 c 2
 186.45 -11 l 2
 170.7 -110.35 70.45 -88 70.45 -88 c 1
EndSplineSet
EndChar

StartChar: bullet
Encoding: 256 8226 127
Width: 309
VWidth: 0
Flags: HW
LayerCount: 2
Fore
SplineSet
132.55 335.75 m 2
 146.2 426.25 l 2
 149.2 447.25 163.2 461.25 185.2 461.25 c 2
 269.7 461.25 l 2
 294.7 461.25 301.7 448.25 298.7 426.25 c 2
 285.05 335.75 l 2
 281.05 311.75 264.05 303.75 244.05 303.75 c 2
 159.55 303.75 l 2
 139.55 303.75 129.55 315.75 132.55 335.75 c 2
EndSplineSet
Substitution2: "'smcp' Lowercase to Small Capitals lookup 16-1" bullet.smcp
EndChar

StartChar: quoteleft
Encoding: 257 8216 128
Width: 266
VWidth: 0
Flags: HW
LayerCount: 2
Fore
SplineSet
160.95 537.4 m 2
 177.45 645.55 l 2
 195.05 753.75 304.25 731.5 304.25 731.5 c 1
 297.35 690.95 l 0
 264.8 691.8 259.95 669.1 257.95 657.4 c 2
 254.25 631.35 l 1
 266.1 631.35 l 2
 280.95 631.35 291.8 623.35 288.8 604.65 c 2
 278.45 537.4 l 2
 275.45 517.7 263.6 507.85 245.9 507.85 c 2
 181.65 507.85 l 2
 161.95 507.85 158.1 521.55 160.95 537.4 c 2
EndSplineSet
Substitution2: "'smcp' Lowercase to Small Capitals lookup 16-1" quoteleft.smcp
EndChar

StartChar: quoteright
Encoding: 258 8217 129
Width: 266
VWidth: 0
Flags: HW
LayerCount: 2
Fore
SplineSet
161.95 509.3 m 1
 168.7 550.7 l 0
 201.25 549.85 205.25 572.55 207.25 584.25 c 2
 211.1 609.45 l 1
 199.25 609.45 l 2
 184.4 609.45 173.55 618.3 176.55 637 c 2
 187.75 704.25 l 2
 190.75 723.95 201.6 733.8 219.3 733.8 c 2
 283.55 733.8 l 2
 303.25 733.8 308.1 720.1 305.25 704.25 c 2
 287.75 596.1 l 2
 270.15 487.9 161.95 509.3 161.95 509.3 c 1
EndSplineSet
Substitution2: "'smcp' Lowercase to Small Capitals lookup 16-1" quoteright.smcp
EndChar

StartChar: quotesinglbase
Encoding: 259 8218 130
Width: 266
VWidth: 0
Flags: HW
LayerCount: 2
Fore
SplineSet
64.15 -101 m 1
 70.9 -60.45 l 0
 103.45 -61.3 107.45 -37.75 109.45 -26.05 c 2
 113.3 -0.85 l 1
 101.45 -0.85 l 2
 86.6 -0.85 75.75 8 78.75 26.7 c 2
 89.95 93.95 l 2
 92.95 113.65 103.8 123.5 121.5 123.5 c 2
 185.75 123.5 l 2
 205.45 123.5 210.3 109.8 207.45 93.95 c 2
 189.95 -14.2 l 2
 172.35 -122.4 64.15 -101 64.15 -101 c 1
EndSplineSet
Substitution2: "'smcp' Lowercase to Small Capitals lookup 16-1" quotesinglbase.smcp
EndChar

StartChar: quotedblleft
Encoding: 260 8220 131
Width: 416
VWidth: 0
Flags: HW
LayerCount: 2
Fore
SplineSet
154.4 537.1 m 2
 170.9 645.25 l 2
 188.5 753.45 296.7 731.2 296.7 731.2 c 1
 290.8 690.65 l 0
 258.25 691.5 253.4 668.8 251.4 657.1 c 2
 247.7 631.05 l 1
 259.55 631.05 l 2
 274.4 631.05 285.25 623.05 282.25 604.35 c 2
 271.9 537.1 l 2
 268.9 517.4 257.05 507.55 239.35 507.55 c 2
 175.1 507.55 l 2
 155.4 507.55 151.55 521.25 154.4 537.1 c 2
319.05 537.1 m 2
 335.55 645.25 l 2
 353.15 753.45 461.35 731.2 461.35 731.2 c 1
 455.45 690.65 l 0
 422.9 691.5 418.05 668.8 416.05 657.1 c 2
 412.35 631.05 l 1
 424.2 631.05 l 2
 439.05 631.05 449.9 623.05 446.9 604.35 c 2
 436.55 537.1 l 2
 433.55 517.4 421.7 507.55 404 507.55 c 2
 339.75 507.55 l 2
 320.05 507.55 316.2 521.25 319.05 537.1 c 2
EndSplineSet
Substitution2: "'smcp' Lowercase to Small Capitals lookup 16-1" quotedblleft.smcp
EndChar

StartChar: quotedblright
Encoding: 261 8221 132
Width: 417
VWidth: 0
Flags: HW
LayerCount: 2
Fore
SplineSet
154.55 509 m 1
 161.3 550.4 l 0
 193.85 549.55 197.85 572.25 199.85 583.95 c 2
 203.7 609.15 l 1
 191.85 609.15 l 2
 177 609.15 166.15 618 169.15 636.7 c 2
 180.35 703.95 l 2
 183.35 723.65 194.2 733.5 211.9 733.5 c 2
 276.15 733.5 l 2
 295.85 733.5 300.7 719.8 297.85 703.95 c 2
 280.35 595.8 l 2
 262.75 487.6 154.55 509 154.55 509 c 1
319.2 509 m 1
 325.95 550.4 l 0
 358.5 549.55 362.5 572.25 364.5 583.95 c 2
 368.35 609.15 l 1
 356.5 609.15 l 2
 341.65 609.15 330.8 618 333.8 636.7 c 2
 345 703.95 l 2
 348 723.65 358.85 733.5 376.55 733.5 c 2
 440.8 733.5 l 2
 460.5 733.5 465.35 719.8 462.5 703.95 c 2
 445 595.8 l 2
 427.4 487.6 319.2 509 319.2 509 c 1
EndSplineSet
Substitution2: "'smcp' Lowercase to Small Capitals lookup 16-1" quotedblright.smcp
EndChar

StartChar: quotedblbase
Encoding: 262 8222 133
Width: 416
VWidth: 0
Flags: HW
LayerCount: 2
Fore
SplineSet
56.75 -100.15 m 1
 63.5 -59.6 l 0
 96.05 -60.45 100.05 -36.9 102.05 -25.2 c 2
 105.9 0 l 1
 94.05 0 l 2
 79.2 0 68.35 8.85 71.35 27.55 c 2
 82.55 94.8 l 2
 85.55 114.5 96.4 124.35 114.1 124.35 c 2
 178.35 124.35 l 2
 198.05 124.35 202.9 110.65 200.05 94.8 c 2
 182.55 -13.35 l 2
 164.95 -121.55 56.75 -100.15 56.75 -100.15 c 1
221.4 -100.15 m 1
 228.15 -59.6 l 0
 260.7 -60.45 264.7 -36.9 266.7 -25.2 c 2
 270.55 0 l 1
 258.7 0 l 2
 243.85 0 233 8.85 236 27.55 c 2
 247.2 94.8 l 2
 250.2 114.5 261.05 124.35 278.75 124.35 c 2
 343 124.35 l 2
 362.7 124.35 367.55 110.65 364.7 94.8 c 2
 347.2 -13.35 l 2
 329.6 -121.55 221.4 -100.15 221.4 -100.15 c 1
EndSplineSet
Substitution2: "'smcp' Lowercase to Small Capitals lookup 16-1" quotedblbase.smcp
EndChar

StartChar: colon
Encoding: 58 58 134
Width: 269
VWidth: 0
Flags: HW
LayerCount: 2
Fore
SplineSet
82.45 23 m 2
 92.95 89 l 2
 94.95 104 104.95 114 120.95 114 c 2
 182.95 114 l 2
 200.95 114 206.95 105 203.95 89 c 2
 193.45 23 l 2
 190.45 5 179.45 0 165.45 0 c 2
 103.45 0 l 2
 89.45 0 80.45 9 82.45 23 c 2
148.95 440.85 m 2
 159.45 506.85 l 2
 161.45 521.85 171.45 531.85 187.45 531.85 c 2
 249.45 531.85 l 2
 267.45 531.85 273.3 522.85 270.3 506.85 c 2
 259.95 440.85 l 2
 256.95 422.85 245.1 417.85 231.1 417.85 c 2
 169.1 417.85 l 2
 155.1 417.85 146.95 426.85 148.95 440.85 c 2
EndSplineSet
EndChar

StartChar: semicolon
Encoding: 59 59 135
Width: 269
VWidth: 0
Flags: HW
LayerCount: 2
Fore
SplineSet
70.45 -88 m 1
 76.2 -51.5 l 0
 106.2 -52.5 109.9 -32.85 111.9 -22 c 2
 115.45 0 l 1
 104.45 0 l 2
 90.45 0 81.3 12.25 83.45 25 c 2
 92.95 88 l 2
 95.1 102.6 107.65 115 122.8 115 c 2
 182.8 115 l 2
 198.25 115 203.95 103 201.95 88 c 2
 186.45 -11 l 2
 170.7 -110.35 70.45 -88 70.45 -88 c 1
150.8 441.7 m 2
 161.15 507.7 l 2
 163.15 522.7 173.15 532.7 189.15 532.7 c 2
 251.15 532.7 l 2
 269.15 532.7 275.15 523.7 272.15 507.7 c 2
 261.8 441.7 l 2
 258.8 423.7 247.65 418.7 233.65 418.7 c 2
 171.65 418.7 l 2
 157.65 418.7 148.8 427.7 150.8 441.7 c 2
EndSplineSet
EndChar

StartChar: quotedbl
Encoding: 34 34 136
Width: 398
VWidth: 0
Flags: HW
LayerCount: 2
Fore
SplineSet
174.6 531 m 1
 184.45 665 l 1
 195.45 732 l 1
 286.8 732 l 1
 275.8 665 l 1
 244.8 531 l 1
 174.6 531 l 1
321.75 531 m 1
 331.9 665 l 1
 342.9 732 l 1
 434.25 732 l 1
 423.25 665 l 1
 392.25 531 l 1
 321.75 531 l 1
EndSplineSet
Substitution2: "'smcp' Lowercase to Small Capitals lookup 16-1" quotedbl.smcp
EndChar

StartChar: exclamdown
Encoding: 161 161 137
Width: 272
VWidth: 0
Flags: HW
LayerCount: 2
Fore
SplineSet
38.85 -269.15 m 1
 135.35 262.45 l 1
 221.15 262.45 l 1
 149.2 -269.15 l 1
 38.85 -269.15 l 1
141.45 375.7 m 2
 150.95 438.85 l 2
 152.95 452.85 164.95 460.85 178.95 461.85 c 1
 237.7 461.85 l 1
 249.7 460.85 259.7 449.85 257.7 435.85 c 2
 248.2 375.7 l 1
 245.35 363.55 238.35 353.8 223.9 350.4 c 1
 158.9 350.4 l 1
 145.9 351.25 140.15 360.95 141.45 375.7 c 2
EndSplineSet
Substitution2: "'case' Case-Sensitive Forms lookup 1-1" exclamdown.alt
Substitution2: "'smcp' Lowercase to Small Capitals lookup 16-1" exclamdown.smcp
EndChar

StartChar: zero
Encoding: 48 48 138
Width: 638
VWidth: 0
Flags: W
HStem: 0 89<190.922 476.256> 643 89<278.172 559.283>
DStem2: 90.95 166.5 184 172.65 0.157385 0.987537<-41.5477 476.634> 508.85 172.5 599.95 166.5 0.15717 0.987572<-66.1754 454.379>
LayerCount: 2
Fore
SplineSet
90.95 166.5 m 10
 154.3 564 l 2
 172.75 681.25 241.25 732 352.65 732 c 2
 516.65 732 l 2
 641.25 732 676.9 647.65 663.45 565.5 c 2
 599.95 166.5 l 18
 580.95 47.5 516.3 0 406.5 0 c 2
 242.5 0 l 2
 145.65 0 71.95 46.5 90.95 166.5 c 10
184 172.65 m 2
 170.75 86.9 218.35 89 262.45 89 c 10
 408.15 89 l 18
 467.5 89 499.85 118.5 508.85 172.5 c 2
 570.55 559.5 l 2
 579.25 614.85 564.5 643 497.55 643 c 2
 349.6 643 l 2
 274.65 643 251.8 600.55 245.55 559.5 c 2
 184 172.65 l 2
EndSplineSet
Substitution2: "'dnom' Denominators lookup 0 subtable" zero.denominator
Substitution2: "'sups' Superscript lookup 2 subtable" zerosuperior
Substitution2: "'onum' Oldstyle Figures in Latin lookup 5-1" zero.oldstyle
Substitution2: "'tnum' Tabular Numbers in Latin lookup 7-1" zero.tnum
Substitution2: "'numr' Numerators lookup 9 subtable" zero.numerator
Substitution2: "'zero' Slashed Zero lookup 20-1" uni0338
Substitution2: "'sinf' Scientific Inferiors lookup 3-1" zeroinferior
Substitution2: "'frac' Diagonal Fractions lookup 13-1" zero.numerator
Substitution2: "'smcp' Lowercase to Small Capitals lookup 16-1" zero.smcp
EndChar

StartChar: one
Encoding: 49 49 139
Width: 363
VWidth: 0
Flags: W
HStem: 0 21G<197.65 292.773> 0 21G<197.65 292.773> 584.1 63.5<139.3 223.099> 712 20G<310.35 403.95>
VStem: 129.65 274.3
DStem2: 197.65 0 289.65 0 0.154278 0.988027<14.1936 631.573>
LayerCount: 2
Fore
SplineSet
129.65 584.1 m 1xb8
 139.3 647.6 l 1
 224.3 647.6 306.75 723.75 313.95 732 c 1
 403.95 732 l 1
 289.65 0 l 1
 197.65 0 l 1
 297.4 623.65 l 1
 273.1 605.7 211.25 584.1 129.65 584.1 c 1xb8
EndSplineSet
Substitution2: "'dnom' Denominators lookup 0 subtable" one.denominator
Substitution2: "'sups' Superscript lookup 2 subtable" onesuperior
Substitution2: "'onum' Oldstyle Figures in Latin lookup 5-1" one.oldstyle
Substitution2: "'tnum' Tabular Numbers in Latin lookup 7-1" one.tnum
Substitution2: "'numr' Numerators lookup 9 subtable" one.numerator
Substitution2: "'sinf' Scientific Inferiors lookup 3-1" oneinferior
Substitution2: "'frac' Diagonal Fractions lookup 13-1" one.numerator
Substitution2: "'smcp' Lowercase to Small Capitals lookup 16-1" one.smcp
EndChar

StartChar: two
Encoding: 50 50 140
Width: 592
VWidth: 0
Flags: W
HStem: 0 89<237.85 543.95> 652 90<202.62 510.914> 652 68.5<151.3 385.25>
LayerCount: 2
Fore
SplineSet
44.45 0 m 25xc0
 57.85 83 l 17
 189.35 163.35 515.55 376.4 539.45 528.75 c 1
 551.15 605.9 522.4 652 431.2 652 c 2xc0
 140.2 652 l 2
 151.3 720.5 l 1xa0
 252.45 734.25 342 742 457.95 742 c 3
 596.1 742 643.1 635.15 631.3 524.05 c 0
 613.55 344.4 323.3 145.85 237.85 89 c 9
 558.35 89 l 25
 543.95 0 l 25
 44.45 0 l 25xc0
EndSplineSet
Substitution2: "'dnom' Denominators lookup 0 subtable" two.denominator
Substitution2: "'sups' Superscript lookup 2 subtable" twosuperior
Substitution2: "'onum' Oldstyle Figures in Latin lookup 5-1" two.oldstyle
Substitution2: "'tnum' Tabular Numbers in Latin lookup 7-1" two.tnum
Substitution2: "'numr' Numerators lookup 9 subtable" two.numerator
Substitution2: "'sinf' Scientific Inferiors lookup 3-1" twoinferior
Substitution2: "'frac' Diagonal Fractions lookup 13-1" two.numerator
Substitution2: "'smcp' Lowercase to Small Capitals lookup 16-1" two.smcp
EndChar

StartChar: three
Encoding: 51 51 141
Width: 591
VWidth: 0
Flags: W
HStem: -7 90<86.0182 411.877> 21 62<47.45 134.602> 318.65 90<223.827 451.654> 325.95 73<159.25 326.673> 645 89<212.534 502.827>
DStem2: 453.9 169.25 546.7 161 0.157463 0.987525<-60.6404 125.398 268.063 453.166>
LayerCount: 2
Fore
SplineSet
37.05 21 m 1x48
 47.45 83 l 1x48
 333.45 83 l 2
 385.95 83 443.5 105.25 453.9 169.25 c 2
 462.55 220.9 l 2
 477.2 312.8 432.2 316.35 376.85 318.65 c 2xa8
 146.85 325.95 l 2
 159.25 398.95 l 1x18
 391.25 408.65 l 2
 460.25 411.65 499 441.4 508.55 500.15 c 2
 518.05 560 l 2
 529.6 632.25 480.65 645 428.65 645 c 2
 129.65 645 l 1
 139.05 706 l 1
 232.05 737 346.55 736 463.55 734 c 0
 561.65 732 626.4 661.6 610.8 563 c 2
 600.4 498.5 l 2
 587.55 418.7 552.55 374.7 509.55 364 c 1
 550.6 343.6 567.95 291.5 555.95 215.5 c 2
 546.7 161 l 2
 529.4 50.2 461.55 -7 339.55 -7 c 0xa8
 225.55 -7 120.05 -10 37.05 21 c 1x48
EndSplineSet
Substitution2: "'dnom' Denominators lookup 0 subtable" three.denominator
Substitution2: "'sups' Superscript lookup 2 subtable" threesuperior
Substitution2: "'onum' Oldstyle Figures in Latin lookup 5-1" three.oldstyle
Substitution2: "'tnum' Tabular Numbers in Latin lookup 7-1" three.tnum
Substitution2: "'numr' Numerators lookup 9 subtable" three.numerator
Substitution2: "'sinf' Scientific Inferiors lookup 3-1" threeinferior
Substitution2: "'frac' Diagonal Fractions lookup 13-1" three.numerator
Substitution2: "'smcp' Lowercase to Small Capitals lookup 16-1" three.smcp
EndChar

StartChar: four
Encoding: 52 52 142
Width: 607
VWidth: 0
Flags: W
HStem: 179.5 93<202.15 436.9> 200 72.5<589.928 620.25> 712 20G<423.012 548.4>
DStem2: 53.65 224 202.15 272.5 0.60351 0.797355<128.293 637.106> 409.1 2 503.65 2 0.155911 0.987771<14.7414 179.664 288.513 472.312>
LayerCount: 2
Fore
SplineSet
53.65 224 m 1xa0
 438.15 732 l 1
 548.4 732 l 1
 202.15 272.5 l 1xa0
 451.3 272.5 l 1
 482.65 468.55 l 1
 532.7 544 l 1
 589.2 544 l 1
 545.85 272.5 l 1
 631.35 272.5 l 1
 620.25 200 l 1x60
 531.45 179.5 l 1
 503.65 2 l 1
 409.1 2 l 1
 436.9 179.5 l 1
 80.45 179.5 l 1
 53.65 224 l 1xa0
EndSplineSet
Substitution2: "'dnom' Denominators lookup 0 subtable" four.denominator
Substitution2: "'sups' Superscript lookup 2 subtable" foursuperior
Substitution2: "'onum' Oldstyle Figures in Latin lookup 5-1" four.oldstyle
Substitution2: "'tnum' Tabular Numbers in Latin lookup 7-1" four.tnum
Substitution2: "'numr' Numerators lookup 9 subtable" four.numerator
Substitution2: "'sinf' Scientific Inferiors lookup 3-1" fourinferior
Substitution2: "'frac' Diagonal Fractions lookup 13-1" four.numerator
Substitution2: "'smcp' Lowercase to Small Capitals lookup 16-1" four.smcp
EndChar

StartChar: five
Encoding: 53 53 143
Width: 601
VWidth: 0
Flags: W
HStem: -4.85 94<119.174 446.249> 19.15 70<85.45 238.625> 363 88.35<248.136 485.679> 643 89<284.35 624.65>
DStem2: 118.3 292.5 204.85 292.5 0.1598 0.987149<13.8307 69.9852 146.964 277.474> 481.05 176.15 572 163.65 0.149302 0.988792<-67.0088 162.144>
LayerCount: 2
Fore
SplineSet
74.05 19.15 m 1x70
 85.45 89.15 l 1x70
 383.45 89.15 l 2
 451.4 89.15 475.5 140.85 481.05 176.15 c 2
 496.25 270.9 l 2
 501.25 300.5 507 363 428.2 363 c 1
 293.25 363 l 2
 255.3 363 213.25 343.05 204.85 292.5 c 1
 118.3 292.5 l 1
 210.05 732 l 17
 639.05 732 l 1
 624.65 643 l 1
 284.35 643 l 25
 238 422 l 1
 257.65 440.55 290.6 448.65 324 451.35 c 0
 372.1 455.9 425.95 450.65 452.55 450.5 c 0
 547.15 449 603.55 375.15 588.7 274.25 c 2
 572 163.65 l 2
 550 26.65 468.45 -4 375.55 -4.85 c 1xb0
 249.85 -5.7 204.05 -3.85 74.05 19.15 c 1x70
EndSplineSet
Substitution2: "'dnom' Denominators lookup 0 subtable" five.denominator
Substitution2: "'sups' Superscript lookup 2 subtable" fivesuperior
Substitution2: "'onum' Oldstyle Figures in Latin lookup 5-1" five.oldstyle
Substitution2: "'tnum' Tabular Numbers in Latin lookup 7-1" five.tnum
Substitution2: "'numr' Numerators lookup 9 subtable" five.numerator
Substitution2: "'sinf' Scientific Inferiors lookup 3-1" fiveinferior
Substitution2: "'frac' Diagonal Fractions lookup 13-1" five.numerator
Substitution2: "'smcp' Lowercase to Small Capitals lookup 16-1" five.smcp
EndChar

StartChar: six
Encoding: 54 54 144
Width: 617
VWidth: 0
Flags: W
HStem: -0.15 86.45<223.446 468.434> 345 87.5<220.758 507.02> 649 88.25<311.891 600.444> 649 68.95<416.405 640.5>
DStem2: 497.85 163.75 586.35 148 0.150442 0.988619<-60.2943 167.428>
LayerCount: 2
Fore
SplineSet
120.1 387 m 0xe0
 162.1 652 264.05 735.15 348.25 737.25 c 0xe0
 449.55 739.65 565.85 732 651.6 717.95 c 1
 640.5 649 l 1xd0
 362 649 l 2
 275.25 649 231.55 493.85 217 411.5 c 1
 296.95 422.85 391 431.65 466.5 432.5 c 1
 603.15 434.2 615.8 338.45 605.6 274.5 c 2
 586.35 148 l 2
 567.9 33.3 493.7 -0.15 396.4 -0.15 c 2
 250.75 -0.15 l 2
 151.7 -0.15 70.1 72 120.1 387 c 0xe0
205.9 345 m 1
 188.05 232.2 178.1 86.3 272.85 86.3 c 2
 402.8 86.3 l 2
 435.8 86.3 487.6 97.85 497.85 163.75 c 2
 514.6 273 l 2
 524.15 331.3 504.6 345 445.5 345 c 2
 205.9 345 l 1
EndSplineSet
Substitution2: "'dnom' Denominators lookup 0 subtable" six.denominator
Substitution2: "'sups' Superscript lookup 2 subtable" sixsuperior
Substitution2: "'onum' Oldstyle Figures in Latin lookup 5-1" six.oldstyle
Substitution2: "'tnum' Tabular Numbers in Latin lookup 7-1" six.tnum
Substitution2: "'numr' Numerators lookup 9 subtable" six.numerator
Substitution2: "'sinf' Scientific Inferiors lookup 3-1" sixinferior
Substitution2: "'frac' Diagonal Fractions lookup 13-1" six.numerator
Substitution2: "'smcp' Lowercase to Small Capitals lookup 16-1" six.smcp
EndChar

StartChar: seven
Encoding: 55 55 145
Width: 548
VWidth: 0
Flags: W
HStem: 0 21G<155.05 271.548> 0 21G<155.05 271.548> 643 89<144.05 505.65>
DStem2: 155.05 0 260.75 0 0.475069 0.879949<50.2148 732.366>
LayerCount: 2
Fore
SplineSet
129.65 643 m 1xa0
 144.05 732 l 1
 606.35 732 l 1
 627.6 679.5 l 1
 260.75 0 l 1
 155.05 0 l 1
 505.65 643 l 1
 129.65 643 l 1xa0
EndSplineSet
Substitution2: "'dnom' Denominators lookup 0 subtable" seven.denominator
Substitution2: "'sups' Superscript lookup 2 subtable" sevensuperior
Substitution2: "'onum' Oldstyle Figures in Latin lookup 5-1" seven.oldstyle
Substitution2: "'tnum' Tabular Numbers in Latin lookup 7-1" seven.tnum
Substitution2: "'numr' Numerators lookup 9 subtable" seven.numerator
Substitution2: "'sinf' Scientific Inferiors lookup 3-1" seveninferior
Substitution2: "'frac' Diagonal Fractions lookup 13-1" seven.numerator
Substitution2: "'smcp' Lowercase to Small Capitals lookup 16-1" seven.smcp
EndChar

StartChar: percent
Encoding: 37 37 146
Width: 962
VWidth: 0
Flags: HW
LayerCount: 2
Fore
SplineSet
112.75 477.75 m 2
 133.3 607.75 l 2
 146.3 691.05 174.45 732 283.95 732 c 2
 384.95 732 l 2
 472.75 732 507.15 693.8 493.3 603.7 c 2
 472.75 473.7 l 18
 458.05 381.9 426.5 349 322.95 349 c 2
 221.95 349 l 2
 143.5 349 99.75 393.6 112.75 477.75 c 2
187.5 480 m 2
 180.25 435.05 192.15 423 237.05 423 c 2
 330.55 423 l 2
 382.4 423 392.25 435.9 399.5 480 c 10
 418.55 601 l 2
 426.1 647.6 421.05 658 369.7 658 c 2
 276.2 658 l 2
 223.6 658 213.25 644.35 206.55 601 c 2
 187.5 480 l 2
219.9 0 m 1
 776.3 732 l 1
 855.25 732 l 1
 299.9 0 l 1
 219.9 0 l 1
584.05 128.45 m 2
 604.45 258.45 l 2
 617.45 341.75 645.45 383.45 754.95 383.45 c 2
 856.1 383.45 l 2
 943.9 383.45 978.15 344.8 964.45 254.7 c 2
 944.2 124.7 l 18
 929.5 32.9 896.8 0.45 793.25 0.45 c 2
 692.1 0.45 l 2
 613.65 0.45 571.05 44.3 584.05 128.45 c 2
658.65 131.45 m 2
 651.4 86.5 662.6 74.45 707.5 74.45 c 2
 800.85 74.45 l 2
 852.7 74.45 863.4 87.35 870.65 131.45 c 10
 889.7 252.45 l 2
 897.25 299.05 891.35 309.45 840 309.45 c 2
 746.65 309.45 l 2
 694.05 309.45 684.4 295.8 677.7 252.45 c 2
 658.65 131.45 l 2
EndSplineSet
Substitution2: "'smcp' Lowercase to Small Capitals lookup 16-1" percent.smcp
EndChar

StartChar: nine
Encoding: 57 57 147
Width: 616
VWidth: 0
Flags: W
HStem: -0.15 88.25<133.461 422.093> 19.15 68.95<93.35 314.226> 304.6 87.5<226.84 513.242> 650.8 86.45<265.145 510.315>
DStem2: 128.55 464.1 219.4 464.1 0.151666 0.988432<-41.8874 183.116>
LayerCount: 2
Fore
SplineSet
82.25 19.15 m 1x70
 93.35 88.1 l 1x70
 371.85 88.1 l 2
 458.6 88.1 502.45 243.25 517 325.6 c 1
 437.05 314.25 342.85 305.45 267.35 304.6 c 1
 130.7 302.9 118.35 400.15 128.55 464.1 c 2
 147.5 587.6 l 2
 165.8 702.3 239.85 737.25 337.15 737.25 c 2
 482.8 737.25 l 2
 582.75 737.25 663.6 662.1 613.6 347.1 c 0
 571.6 82.1 469.95 1.95 385.75 -0.15 c 0xb0
 284.45 -2.55 180.75 0 82.25 19.15 c 1x70
219.4 464.1 m 2
 209.85 405.8 229.25 392.1 288.35 392.1 c 2
 527.95 392.1 l 1
 545.8 504.9 555.6 650.8 460.85 650.8 c 2
 331.05 650.8 l 2
 298.05 650.8 246.25 639.25 236 573.35 c 2
 219.4 464.1 l 2
EndSplineSet
Substitution2: "'dnom' Denominators lookup 0 subtable" nine.denominator
Substitution2: "'sups' Superscript lookup 2 subtable" ninesuperior
Substitution2: "'onum' Oldstyle Figures in Latin lookup 5-1" nine.oldstyle
Substitution2: "'tnum' Tabular Numbers in Latin lookup 7-1" nine.tnum
Substitution2: "'numr' Numerators lookup 9 subtable" nine.numerator
Substitution2: "'sinf' Scientific Inferiors lookup 3-1" nineinferior
Substitution2: "'frac' Diagonal Fractions lookup 13-1" nine.numerator
Substitution2: "'smcp' Lowercase to Small Capitals lookup 16-1" nine.smcp
EndChar

StartChar: eight
Encoding: 56 56 148
Width: 629
VWidth: 0
Flags: W
HStem: 0 87.5<198.15 466.081> 331 85<252.245 497.003> 649.5 87.5<280.338 548.438>
DStem2: 94.65 160.75 186.55 159.85 0.156568 0.987667<-39.2567 168.683 298.587 493.362> 494.05 159.85 586.3 155.65 0.156607 0.987661<-55.1929 149.939 277.478 474.014>
LayerCount: 2
Fore
SplineSet
94.65 160.75 m 2
 108.6 252 l 2
 120 322.4 168.4 356.15 217.75 361.75 c 1
 151.45 386 139.9 452.05 148.2 502 c 2
 159.05 567 l 2
 180.2 702.75 253.55 737 365.05 737 c 2
 512.55 737 l 2
 614.4 737 668 673.55 650.55 560.85 c 2
 640.15 499 l 2
 637.85 476.25 615.55 398.4 542.75 384.3 c 1
 598.7 367.05 608.7 293.35 600.85 250.35 c 2
 586.3 155.65 l 2
 562.85 10.5 474.55 0 394.55 0 c 2
 248.05 0 l 2
 76.75 0 88.05 119.7 94.65 160.75 c 2
186.55 159.85 m 2
 178 105.3 201.6 87.5 268.9 87.5 c 2
 399.95 87.5 l 2
 439.7 87.5 485.8 104.65 494.05 159.85 c 2
 509.4 255.1 l 2
 517.65 307.45 485.05 331 441.8 331 c 2
 298.55 331 l 2
 253.15 331 211 311.85 201.9 255.1 c 2
 186.55 159.85 l 2
239.2 494 m 2
 228.95 431.2 277.5 416 311.5 416 c 2
 454.45 416 l 2
 523.1 416 540.85 458.9 546.7 494 c 2
 556.65 556.3 l 2
 568.9 631.5 547.6 649.5 489.6 649.5 c 2
 357.7 649.5 l 2
 282.65 649.5 259.55 622.7 249.15 556.3 c 2
 239.2 494 l 2
EndSplineSet
Substitution2: "'dnom' Denominators lookup 0 subtable" eight.denominator
Substitution2: "'sups' Superscript lookup 2 subtable" eightsuperior
Substitution2: "'onum' Oldstyle Figures in Latin lookup 5-1" eight.oldstyle
Substitution2: "'tnum' Tabular Numbers in Latin lookup 7-1" eight.tnum
Substitution2: "'numr' Numerators lookup 9 subtable" eight.numerator
Substitution2: "'sinf' Scientific Inferiors lookup 3-1" eightinferior
Substitution2: "'frac' Diagonal Fractions lookup 13-1" eight.numerator
Substitution2: "'smcp' Lowercase to Small Capitals lookup 16-1" eight.smcp
EndChar

StartChar: quotesingle
Encoding: 39 39 149
Width: 196
VWidth: 0
Flags: HW
LayerCount: 2
Fore
SplineSet
146.4 531 m 1
 156.4 665 l 1
 167.4 732 l 1
 260.4 732 l 1
 249.4 665 l 1
 218.4 531 l 1
 146.4 531 l 1
EndSplineSet
Substitution2: "'smcp' Lowercase to Small Capitals lookup 16-1" quotesingle.smcp
EndChar

StartChar: onesuperior
Encoding: 185 185 150
Width: 277
VWidth: 168
Flags: W
HStem: 719.3 50.7<121.7 199.036>
VStem: 113.5 218.9
DStem2: 181.65 355.85 256.25 355.85 0.156894 0.987616<11.7043 399.403>
LayerCount: 2
Fore
SplineSet
113.5 719.3 m 1
 121.7 770 l 1
 189.7 770 255 829.65 259.8 835.2 c 1
 332.4 835.2 l 1
 256.25 355.85 l 1
 181.65 355.85 l 1
 245.3 750.15 l 1
 226.65 735.8 178.95 719.3 113.5 719.3 c 1
EndSplineSet
EndChar

StartChar: twosuperior
Encoding: 178 178 151
Width: 388
VWidth: 168
Flags: W
HStem: 355.85 72.35<221.5 390.6> 767.3 72.35<146.97 360.808> 767.3 56.3<142.308 328.8>
LayerCount: 2
Fore
SplineSet
72.9 355.85 m 25xc0
 83.55 424.05 l 17
 157 474.75 351.5 593.2 367.85 695.85 c 1
 375.55 746.3 361.05 767.3 303.65 767.3 c 2xc0
 135.25 767.3 l 2
 133.55 767.3 143.05 824.45 143.9 823.6 c 1xa0
 209.7 832.35 256.15 839.65 332.35 839.65 c 3
 426.05 839.65 455.05 747.9 446.15 698.85 c 1
 425.35 558.15 253.95 459.1 221.5 428.2 c 9
 402.25 428.2 l 25
 390.6 355.85 l 25
 72.9 355.85 l 25xc0
EndSplineSet
EndChar

StartChar: threesuperior
Encoding: 179 179 152
Width: 405
VWidth: 167
Flags: W
HStem: 351.7 72.35<84.9104 318.358> 567.05 58.65<154.95 328.339> 763.15 71.5<143.901 370.435>
DStem2: 335.1 479.5 408.8 469.65 0.157111 0.987581<-45.9426 67.2588 162.95 275.941>
LayerCount: 2
Fore
SplineSet
74.05 370.15 m 1
 83.55 423.2 l 1
 110.75 423.2 255.9 424.05 255.9 424.05 c 2
 296 424.05 328.7 438.65 335.1 479.5 c 2
 338.65 499.8 l 2
 345.9 546.45 317.7 561.05 281.5 562.2 c 2
 145.45 567.05 l 2
 154.95 625.7 l 1
 293.15 631.4 l 2
 338.3 633.4 364.65 651.95 370.2 689.25 c 2
 372.75 708.55 l 2
 379.45 747.85 364.2 763.15 313.9 763.15 c 2
 132.55 763.15 l 1
 141.05 816.05 l 1
 201.8 836.5 266.55 835.8 343.45 834.65 c 0
 420.45 833.65 457.4 777.65 447.8 714.8 c 2
 442.1 681.15 l 2
 434.1 633.85 409.95 598.05 379.4 588.65 c 1
 407 572.4 419.1 535.55 412.8 496.45 c 2
 408.8 469.65 l 2
 397.5 397.15 360.75 350.85 262.15 351.7 c 0
 187.25 351.7 128.5 349.7 74.05 370.15 c 1
EndSplineSet
EndChar

StartChar: ordmasculine
Encoding: 186 186 153
Width: 387
VWidth: 0
Flags: W
HStem: 269.05 61<90.8 392.55> 372.15 68.9<193.219 338.645> 668.35 68.9<224.488 369.735>
LayerCount: 2
Fore
SplineSet
81.35 269.05 m 1
 90.8 330.05 l 1
 402 330.05 l 1
 392.55 269.05 l 1
 81.35 269.05 l 1
115.25 552.25 m 0
 137.4 690.3 176.85 736.4 305.2 737.25 c 1
 416.45 738.1 470.05 692.25 447.2 547.15 c 0
 427.05 420.4 389.65 372.15 254.15 372.15 c 1
 140.2 372.15 95.25 426.25 115.25 552.25 c 0
188.2 549.85 m 0
 171.4 443.1 205.7 441.9 263.5 441.05 c 1
 316.4 440.2 356.6 440.1 374.25 549.85 c 0
 391.9 664.15 367.6 667.5 299.25 668.35 c 1
 234.85 669.2 205.85 663.3 188.2 549.85 c 0
EndSplineSet
Ligature2: "'ordn' Ordinals lookup 21-1" o
Substitution2: "'smcp' Lowercase to Small Capitals lookup 16-1" ordmasculine.smcp
EndChar

StartChar: ordfeminine
Encoding: 170 170 154
Width: 368
VWidth: 0
Flags: W
HStem: 266.5 61<79.2 378.4> 375.2 70.95<186.339 291.879>
VStem: 351.1 44.2<379.35 412.159>
DStem2: 367.05 654.95 440.6 687.9 0.146021 0.989281<-182.312 1.82948>
LayerCount: 2
Fore
SplineSet
69.75 266.5 m 1
 79.2 327.5 l 1
 387.85 327.5 l 1
 378.4 266.5 l 1
 69.75 266.5 l 1
108.1 563.45 m 0
 131.6 708.2 213.9 727.2 265.2 732.3 c 0
 309.15 736.55 407.45 720.05 440.6 687.9 c 9
 395.3 379.35 l 17
 351.1 379.35 l 1
 339.6 433.25 l 17
 317.65 406.6 263.1 375.2 215.35 375.2 c 3
 156.45 375.2 84.6 417.4 108.1 563.45 c 0
178.15 549.15 m 0
 165.2 466.05 196 446.15 229.6 446.15 c 3
 272.9 446.15 306.25 466.5 344.8 495 c 1
 367.05 654.95 l 1
 332.7 664.35 285.6 670.3 261.55 663.9 c 0
 230.65 655.65 192.1 642.25 178.15 549.15 c 0
EndSplineSet
Ligature2: "'ordn' Ordinals lookup 21-1" a
Substitution2: "'smcp' Lowercase to Small Capitals lookup 16-1" ordfeminine.smcp
EndChar

StartChar: slash
Encoding: 47 47 155
Width: 415
VWidth: 0
Flags: HW
LayerCount: 2
Fore
SplineSet
6.8 -72 m 1
 420.8 770 l 1
 517.8 770 l 1
 103.8 -72 l 1
 6.8 -72 l 1
EndSplineSet
Substitution2: "'numr' Numerators lookup 9 subtable" fraction
Substitution2: "'frac' Diagonal Fractions lookup 12-1" fraction
EndChar

StartChar: backslash
Encoding: 92 92 156
Width: 406
VWidth: 0
Flags: HW
LayerCount: 2
Fore
SplineSet
139.65 770 m 1
 229.4 770 l 1
 377.4 -72 l 1
 287.65 -72 l 1
 139.65 770 l 1
EndSplineSet
EndChar

StartChar: bar
Encoding: 124 124 157
Width: 245
VWidth: 0
Flags: HW
LayerCount: 2
Fore
SplineSet
68.3 -72 m 1
 201.3 770 l 1
 287.3 770 l 1
 154.3 -72 l 1
 68.3 -72 l 1
EndSplineSet
EndChar

StartChar: underscore
Encoding: 95 95 158
Width: 673
VWidth: 0
Flags: HW
LayerCount: 2
Fore
SplineSet
20.5 -1 m 1
 34.3 85 l 1
 668.3 85 l 1
 654.5 -1 l 1
 20.5 -1 l 1
EndSplineSet
EndChar

StartChar: hyphen
Encoding: 45 45 159
Width: 354
VWidth: 0
Flags: HW
LayerCount: 2
Fore
SplineSet
60.15 247 m 1
 73.95 333 l 1
 387.95 333 l 1
 374.15 247 l 1
 60.15 247 l 1
EndSplineSet
Substitution2: "'case' Case-Sensitive Forms lookup 1-1" hyphen.alt
Substitution2: "'c2sc' Capitals to Small Capitals in Latin lookup 17 subtable" hyphen.smcp
Substitution2: "'smcp' Lowercase to Small Capitals lookup 16-1" hyphen.smcp
EndChar

StartChar: numbersign
Encoding: 35 35 160
Width: 696
VWidth: 0
Flags: HW
LayerCount: 2
Fore
SplineSet
53.75 226 m 1
 73.5 290 l 1
 230.7 290 l 1
 279.25 443 l 1
 121.75 443 l 1
 143.35 507 l 1
 300.75 507 l 1
 373 732 l 1
 437 732 l 1
 364.75 507 l 1
 519.05 507 l 1
 590.3 732 l 1
 654.3 732 l 1
 583.05 507 l 1
 758.55 507 l 1
 737.25 443 l 1
 561.6 443 l 1
 513.05 289 l 1
 688.7 289 l 1
 669.25 225 l 1
 491.8 225 l 1
 418.85 0 l 1
 354.85 0 l 1
 427.8 225 l 1
 273.35 226 l 1
 200.4 0 l 1
 136.4 0 l 1
 209.35 226 l 1
 53.75 226 l 1
294.7 290 m 1
 449.05 289 l 1
 497.6 443 l 1
 343.25 443 l 1
 294.7 290 l 1
EndSplineSet
Substitution2: "'smcp' Lowercase to Small Capitals lookup 16-1" numbersign.smcp
EndChar

StartChar: dollar
Encoding: 36 36 161
Width: 572
VWidth: 0
Flags: HW
LayerCount: 2
Fore
SplineSet
76.7 18.35 m 1
 88.8 86.05 l 1
 128.65 85.45 232.15 79.3 325.15 79.3 c 0
 366.45 79.3 444.8 93.7 455.75 163.65 c 2
 465.4 223.85 l 2
 473.8 276.65 480.4 313.75 400.7 313.75 c 2
 281.2 313.75 l 2
 135.25 313.75 117.15 421.45 129.25 495.65 c 2
 138.95 560.9 l 1
 162.5 702.35 249.9 735.7 358.5 738 c 1
 372.35 824 l 1
 437.85 824 l 1
 424 735.45 l 1
 487.65 730.75 566.75 718.9 607.4 712.65 c 1
 596.15 640.7 l 1
 544.2 641.75 372.4 649.85 362.5 649.85 c 1
 294.9 652.4 243.45 633.4 230.5 554 c 2
 221.7 496.25 l 1
 212.45 434.65 226.65 405.75 304.45 405.75 c 2
 424.55 405.75 l 2
 564.65 405.75 571 305.7 558 224 c 2
 547.9 161.25 l 2
 524.85 16.8 410.65 -12.8 306 -8 c 1
 293 -90 l 1
 227.5 -90 l 1
 241.35 -3.75 l 1
 175.45 2.35 109.05 11.9 76.7 18.35 c 1
EndSplineSet
Substitution2: "'smcp' Lowercase to Small Capitals lookup 16-1" dollar.smcp
EndChar

StartChar: zerosuperior
Encoding: 263 8304 162
Width: 446
VWidth: 168
Flags: W
HStem: 355 72.35<159.26 354.22> 759.45 72.35<207.348 401.169>
DStem2: 83.3 467.7 159.5 476.8 0.154798 0.987946<-20.4804 302.866> 364.5 476.65 437.35 467.7 0.154832 0.987941<-47.1689 278.161>
LayerCount: 2
Fore
SplineSet
83.3 467.7 m 2
 122.55 718.2 l 2
 135.7 802.5 188.9 831.8 259.5 831.8 c 2
 376.8 831.8 l 2
 456.3 831.8 487.75 786.1 476.75 719.1 c 2
 437.35 467.7 l 2
 422.65 374.25 377.55 355 305 355 c 2
 187.7 355 l 2
 140.45 355 68.6 374.95 83.3 467.7 c 2
159.5 476.8 m 2
 152.8 434.45 162.9 427.35 206.8 427.35 c 10
 303.65 427.35 l 18
 346.05 427.35 358.65 442.1 364.5 476.65 c 2
 402.15 710.15 l 2
 408 743.95 405.9 759.45 358.15 759.45 c 2
 259.8 759.45 l 2
 215.2 759.45 202 739.65 197.15 710.15 c 2
 159.5 476.8 l 2
EndSplineSet
EndChar

StartChar: foursuperior
Encoding: 264 8308 163
Width: 468
VWidth: 168
Flags: W
HStem: 469.85 75.35<234.9 371> 484.2 61<473.608 502.15>
DStem2: 111.55 500 234.9 545.2 0.603455 0.797397<110.479 416.104> 352.05 356.15 426.6 356.15 0.156508 0.987677<11.6677 115.265 203.044 308.837>
LayerCount: 2
Fore
SplineSet
111.55 500 m 1x80
 362.65 831.8 l 1
 447.65 831.8 l 1
 234.9 545.2 l 1x80
 382.65 545.2 l 1
 400.9 661.1 l 1
 435.85 709.55 l 1
 482.6 709.55 l 1
 456.35 545.2 l 1
 511.65 545.2 l 1
 502.15 484.2 l 1x40
 444.25 470 l 1
 426.6 356.15 l 1
 352.05 356.15 l 1
 371 469.85 l 1
 130.3 469.85 l 1
 111.55 500 l 1x80
EndSplineSet
EndChar

StartChar: fivesuperior
Encoding: 265 8309 164
Width: 410
VWidth: 168
Flags: W
HStem: 351.15 72.8<87.45 338.378> 365.75 58.2<87.45 300.877> 537.1 21G<104.95 173.925> 582.2 71.15<202.303 357.096> 759.45 72.35<227.7 454.65>
VStem: 104.95 66.2<537.1 570.212>
DStem2: 350.1 475.6 422.5 464.4 0.162336 0.986735<-48.6586 98.0301>
LayerCount: 2
Fore
SplineSet
77.95 365.75 m 1x7c
 87.45 423.95 l 1
 293.2 423.95 l 2
 328.5 423.95 345.55 444.1 350.1 475.6 c 2
 357.9 525.45 l 2
 360.75 546.7 367.8 582.2 318.85 582.2 c 1
 220.15 582.2 l 2
 195.75 582.2 176.7 569.25 171.15 537.1 c 1
 104.95 537.1 l 1
 167.25 831.8 l 17
 466.3 831.8 l 1
 454.65 759.45 l 1
 227.7 759.45 l 25
 200.7 634.95 l 1
 234.25 662.3 309.55 653.8 341.85 653.35 c 0
 409.55 652.15 443.6 598.2 433.35 530.35 c 2
 422.5 464.4 l 2
 408.55 372.1 358.7 350.3 291.55 351.15 c 1xbc
 209.65 352 163.85 350.45 77.95 365.75 c 1x7c
EndSplineSet
EndChar

StartChar: sixsuperior
Encoding: 266 8310 165
Width: 405
VWidth: 168
Flags: W
HStem: 355.85 72.35<175.282 348.137> 570.3 69.65<181.332 366.342> 765.75 71.45<221.051 459.9> 765.75 59.15<244.903 459.9>
DStem2: 356.6 474.85 428.85 460.4 0.150515 0.988608<-44.6144 90.0125>
LayerCount: 2
Fore
SplineSet
101.4 608.85 m 0xe0
 132.8 802.85 194.35 835.85 250.15 837.2 c 0xe0
 317.5 839 393.2 837.05 469.4 824.9 c 1xd0
 459.9 765.75 l 1
 263.1 765.75 l 2
 203.2 765.75 188.3 678.1 178.9 625.65 c 1
 230.55 632.85 297.45 639.1 346.8 639.95 c 1
 420.95 640.8 447.6 579.45 439.85 532.65 c 2
 428.85 460.4 l 2
 417.4 385.85 375.25 355.85 301.45 355.85 c 2
 195.95 355.85 l 2
 131.6 355.85 69.25 409.9 101.4 608.85 c 0xe0
170.4 570.3 m 1
 164.95 534.45 150 428.2 210 428.2 c 2
 304.9 428.2 l 2
 336.25 428.2 351.2 441.55 356.6 474.85 c 2
 365.55 529.7 l 2
 371.1 563.45 357.5 570.3 328.25 570.3 c 2
 170.4 570.3 l 1
EndSplineSet
EndChar

StartChar: sevensuperior
Encoding: 267 8311 166
Width: 414
VWidth: 168
Flags: W
HStem: 761.15 72.35<132.05 370.75>
DStem2: 137.95 355.85 221.3 355.85 0.495949 0.868352<41.3373 467.4>
LayerCount: 2
Fore
SplineSet
120.4 761.15 m 1
 132.05 833.5 l 1
 458.9 833.5 l 1
 474 798.3 l 1
 221.3 355.85 l 1
 137.95 355.85 l 1
 370.75 761.15 l 1
 120.4 761.15 l 1
EndSplineSet
EndChar

StartChar: eightsuperior
Encoding: 268 8312 167
Width: 410
VWidth: 168
Flags: W
HStem: 354.15 72<195.365 383.089> 561.45 70.8<231.211 395.787> 765.5 71.15<245.178 426.15>
DStem2: 119.75 462.35 195.8 468 0.159185 0.987249<-16.9769 110.991 193.795 315.709> 389.7 468 463 459.2 0.155825 0.987785<-39.8161 85.831 168.125 291.632>
LayerCount: 2
Fore
SplineSet
119.75 462.35 m 2
 129 516.9 l 2
 136.55 562.65 169.45 580 198.85 587.7 c 1
 157.9 609.3 149.45 649.65 154.6 681.3 c 2
 161.6 721.9 l 2
 176.6 814.2 230.6 836.65 298.8 836.65 c 2
 412.65 836.65 l 2
 471.45 836.65 516 793.65 503.85 718.15 c 2
 498 679.8 l 2
 495.85 665.2 481.55 615.15 433.25 605.75 c 1
 470.65 592.5 476 544.3 471.85 516.15 c 2
 463 459.2 l 2
 448.55 365.35 399.55 354.15 336.2 354.15 c 2
 221.65 354.15 l 2
 134.65 354.15 111.9 411 119.75 462.35 c 2
195.8 468 m 2
 191.1 438.1 198.1 426.15 241.5 426.15 c 2
 337.85 426.15 l 2
 366 426.15 385.15 436.85 389.7 468 c 2
 396.25 513.65 l 2
 401.65 547.05 389.3 561.45 360.75 561.45 c 2
 256.75 561.45 l 2
 227.05 561.45 208.6 549.75 203.2 513.65 c 2
 195.8 468 l 2
229.9 682.3 m 2
 223.5 642.05 245.95 632.25 268.1 632.25 c 2
 367.7 632.25 l 2
 412 632.25 419.25 660.5 422.95 682.3 c 2
 427.65 711.75 l 2
 435.05 756.15 422.45 765.5 387.75 765.5 c 2
 295.8 765.5 l 2
 257.1 765.5 241.15 754.3 234.6 711.75 c 2
 229.9 682.3 l 2
EndSplineSet
EndChar

StartChar: ninesuperior
Encoding: 269 8313 168
Width: 454
VWidth: 168
Flags: W
HStem: 354.65 71.6<125.45 364.408> 366.95 59.3<125.45 340.462> 552.95 71.3<222.31 404.318> 765.75 72.35<237.301 408.703>
DStem2: 146.1 661.75 221.25 665.3 0.1481 0.988972<-20.5209 115.514>
LayerCount: 2
Fore
SplineSet
115.95 366.95 m 1x70
 125.45 426.25 l 1
 322.25 426.25 l 2
 382.15 426.25 397.2 514.2 406.75 567.25 c 1
 355.1 560.05 288.2 553.8 238.85 552.95 c 1
 164.55 552.1 138.35 614.65 146.1 661.75 c 2
 156.65 732.2 l 2
 167.95 807.05 209.95 838.4 283.75 838.1 c 2
 390.6 837.8 l 2
 455.55 837.8 517.1 781.8 484.8 581.95 c 0
 453.25 387.2 391.15 356.15 335.2 354.65 c 0xb0
 267.85 352.85 179.4 353.1 115.95 366.95 c 1x70
221.25 665.3 m 2
 215.55 631.25 229 624.25 258.25 624.25 c 2
 416.1 624.25 l 1
 421.7 660.85 435.5 765.75 375.5 765.75 c 2
 280.75 765.75 l 2
 249.4 765.75 234.75 752.25 229.2 718.65 c 2
 221.25 665.3 l 2
EndSplineSet
EndChar

StartChar: zeroinferior
Encoding: 270 8320 169
Width: 457
VWidth: 0
Flags: HW
LayerCount: 2
Fore
SplineSet
102.15 -88.3 m 2
 141.4 162.2 l 2
 154.55 246.5 207.75 275.8 278.35 275.8 c 2
 395.65 275.8 l 2
 475.15 275.8 506.6 230.1 495.6 163.1 c 2
 456.2 -88.3 l 2
 441.5 -181.75 396.4 -201 323.85 -201 c 2
 206.55 -201 l 2
 159.3 -201 87.45 -181.05 102.15 -88.3 c 2
178.35 -79.2 m 2
 171.65 -121.55 181.75 -128.65 225.65 -128.65 c 10
 322.5 -128.65 l 18
 364.9 -128.65 377.5 -113.9 383.35 -79.35 c 2
 421 154.15 l 2
 426.85 187.95 424.75 203.45 377 203.45 c 2
 278.65 203.45 l 2
 234.05 203.45 220.85 183.65 216 154.15 c 2
 178.35 -79.2 l 2
EndSplineSet
EndChar

StartChar: oneinferior
Encoding: 271 8321 170
Width: 286
VWidth: 0
Flags: HW
LayerCount: 2
Fore
SplineSet
39.55 163.3 m 1
 47.75 214 l 1
 115.75 214 181.05 273.65 185.85 279.2 c 1
 258.45 279.2 l 1
 182.3 -200.15 l 1
 107.7 -200.15 l 1
 171.35 194.15 l 1
 152.7 179.8 105 163.3 39.55 163.3 c 1
EndSplineSet
EndChar

StartChar: twoinferior
Encoding: 272 8322 171
Width: 432
VWidth: 0
Flags: HW
LayerCount: 2
Fore
SplineSet
41.5 -200.15 m 25
 52.15 -131.95 l 17
 125.6 -81.25 320.1 37.2 336.45 139.85 c 1
 344.15 190.3 329.65 211.3 272.25 211.3 c 2
 103.85 211.3 l 2
 102.15 211.3 111.65 268.45 112.5 267.6 c 1
 178.3 276.35 224.75 283.65 300.95 283.65 c 3
 394.65 283.65 423.65 191.9 414.75 142.85 c 1
 393.95 2.15 222.55 -96.9 190.1 -127.8 c 9
 370.85 -127.8 l 25
 359.2 -200.15 l 25
 41.5 -200.15 l 25
EndSplineSet
EndChar

StartChar: threeinferior
Encoding: 273 8323 172
Width: 388
VWidth: 0
Flags: HW
LayerCount: 2
Fore
SplineSet
1.05 -185.85 m 1
 9.7 -132.8 l 1
 36.9 -132.8 182.9 -131.95 182.9 -131.95 c 2
 223 -131.95 255.7 -117.35 262.1 -76.5 c 2
 265.65 -56.2 l 2
 272.9 -9.55 244.7 5.05 208.5 6.2 c 2
 72.45 11.05 l 2
 81.95 69.7 l 1
 220.15 75.4 l 2
 265.3 77.4 291.65 95.95 297.2 133.25 c 2
 299.75 152.55 l 2
 306.45 191.85 291.2 207.15 240.9 207.15 c 2
 59.55 207.15 l 1
 68.05 260.05 l 1
 128.8 280.5 193.55 279.8 270.45 278.65 c 0
 347.45 277.65 384.4 221.65 374.8 158.8 c 2
 369.1 125.15 l 2
 361.1 77.85 336.95 42.05 306.4 32.65 c 1
 334 16.4 346.1 -20.45 339.8 -59.55 c 2
 335.8 -86.35 l 2
 324.5 -158.85 287.75 -205.15 189.15 -204.3 c 0
 114.25 -204.3 55.5 -206.3 1.05 -185.85 c 1
EndSplineSet
EndChar

StartChar: fourinferior
Encoding: 274 8324 173
Width: 429
VWidth: 0
Flags: HW
LayerCount: 2
Fore
SplineSet
2.2 -56 m 1
 253.3 275.8 l 1
 338.3 275.8 l 1
 125.55 -10.8 l 1
 273.3 -10.8 l 1
 291.55 105.1 l 1
 326.5 153.55 l 1
 373.25 153.55 l 1
 347 -10.8 l 1
 402.3 -10.8 l 1
 392.8 -71.8 l 1
 334.9 -86 l 1
 317.25 -199.85 l 1
 242.7 -199.85 l 1
 261.65 -86.15 l 1
 20.95 -86.15 l 1
 2.2 -56 l 1
EndSplineSet
EndChar

StartChar: fiveinferior
Encoding: 275 8325 174
Width: 409
VWidth: 0
Flags: HW
LayerCount: 2
Fore
SplineSet
5.95 -190.25 m 1
 15.45 -132.05 l 1
 221.2 -132.05 l 2
 256.5 -132.05 273.55 -111.9 278.1 -80.4 c 2
 285.9 -30.55 l 2
 288.75 -9.3 295.8 26.2 246.85 26.2 c 1
 148.15 26.2 l 2
 123.75 26.2 104.7 13.25 99.15 -18.9 c 1
 32.95 -18.9 l 1
 95.25 275.8 l 17
 394.3 275.8 l 1
 382.65 203.45 l 1
 155.7 203.45 l 25
 128.7 78.95 l 1
 162.25 106.3 237.55 97.8 269.85 97.35 c 0
 337.55 96.15 371.6 42.2 361.35 -25.65 c 2
 350.5 -91.6 l 2
 336.55 -183.9 286.7 -205.7 219.55 -204.85 c 1
 137.65 -204 91.85 -205.55 5.95 -190.25 c 1
EndSplineSet
EndChar

StartChar: sixinferior
Encoding: 276 8326 175
Width: 404
VWidth: 0
Flags: HW
LayerCount: 2
Fore
SplineSet
29.4 52.85 m 0
 60.8 246.85 122.35 279.85 178.15 281.2 c 0
 245.5 283 329.7 281.05 397.4 268.9 c 1
 387.9 209.75 l 1
 191.1 209.75 l 2
 131.2 209.75 116.3 122.1 106.9 69.65 c 1
 158.55 76.85 225.45 83.1 274.8 83.95 c 1
 348.95 84.8 375.6 23.45 367.85 -23.35 c 2
 356.85 -95.6 l 2
 345.4 -170.15 303.25 -200.15 229.45 -200.15 c 2
 123.95 -200.15 l 2
 59.6 -200.15 -2.75 -146.1 29.4 52.85 c 0
98.4 14.3 m 1
 92.95 -21.55 78 -127.8 138 -127.8 c 2
 232.9 -127.8 l 2
 264.25 -127.8 279.2 -114.45 284.6 -81.15 c 2
 293.55 -26.3 l 2
 299.1 7.45 285.5 14.3 256.25 14.3 c 2
 98.4 14.3 l 1
EndSplineSet
EndChar

StartChar: seveninferior
Encoding: 277 8327 176
Width: 413
VWidth: 0
Flags: HW
LayerCount: 2
Fore
SplineSet
48.4 205.15 m 1
 60.05 277.5 l 1
 386.9 277.5 l 1
 402 242.3 l 1
 149.3 -200.15 l 1
 65.95 -200.15 l 1
 298.75 205.15 l 1
 48.4 205.15 l 1
EndSplineSet
EndChar

StartChar: eightinferior
Encoding: 278 8328 177
Width: 411
VWidth: 0
Flags: HW
LayerCount: 2
Fore
SplineSet
47.75 -93.65 m 2
 57 -39.1 l 2
 64.55 6.65 97.45 24 126.85 31.7 c 1
 85.9 53.3 77.45 93.65 82.6 125.3 c 2
 89.6 165.9 l 2
 104.6 258.2 158.6 280.65 226.8 280.65 c 2
 340.65 280.65 l 2
 399.45 280.65 444 237.65 431.85 162.15 c 2
 426 123.8 l 2
 423.85 109.2 409.55 59.15 361.25 49.75 c 1
 398.65 36.5 404 -11.7 399.85 -39.85 c 2
 391 -96.8 l 2
 376.55 -190.65 327.55 -201.85 264.2 -201.85 c 2
 149.65 -201.85 l 2
 62.65 -201.85 39.9 -145 47.75 -93.65 c 2
123.8 -88 m 2
 119.1 -117.9 126.1 -129.85 169.5 -129.85 c 2
 265.85 -129.85 l 2
 294 -129.85 313.15 -119.15 317.7 -88 c 2
 324.25 -42.35 l 2
 329.65 -8.95 317.3 5.45 288.75 5.45 c 2
 184.75 5.45 l 2
 155.05 5.45 136.6 -6.25 131.2 -42.35 c 2
 123.8 -88 l 2
157.9 126.3 m 2
 151.5 86.05 173.95 76.25 196.1 76.25 c 2
 295.7 76.25 l 2
 340 76.25 347.25 104.5 350.95 126.3 c 2
 355.65 155.75 l 2
 363.05 200.15 350.45 209.5 315.75 209.5 c 2
 223.8 209.5 l 2
 185.1 209.5 169.15 198.3 162.6 155.75 c 2
 157.9 126.3 l 2
EndSplineSet
EndChar

StartChar: nineinferior
Encoding: 279 8329 178
Width: 453
VWidth: 0
Flags: HW
LayerCount: 2
Fore
SplineSet
43.95 -189.05 m 1
 53.45 -129.75 l 1
 250.25 -129.75 l 2
 310.15 -129.75 325.2 -41.8 334.75 11.25 c 1
 283.1 4.05 216.2 -2.2 166.85 -3.05 c 1
 92.55 -3.9 66.35 58.65 74.1 105.75 c 2
 84.65 176.2 l 2
 95.95 251.05 137.95 282.4 211.75 282.1 c 2
 318.6 281.8 l 2
 383.55 281.8 445.1 225.8 412.8 25.95 c 0
 381.25 -168.8 319.15 -199.85 263.2 -201.35 c 0
 195.85 -203.15 101.45 -202.9 43.95 -189.05 c 1
149.25 109.3 m 2
 143.55 75.25 157 68.25 186.25 68.25 c 2
 344.1 68.25 l 1
 349.7 104.85 363.5 209.75 303.5 209.75 c 2
 208.75 209.75 l 2
 177.4 209.75 162.75 196.25 157.2 162.65 c 2
 149.25 109.3 l 2
EndSplineSet
EndChar

StartChar: zero.oldstyle
Encoding: 280 -1 179
Width: 621
VWidth: 0
Flags: W
HStem: 0 89<191.109 476.456> 543 89<262.798 544.501>
DStem2: 91.1504 166.5 184.2 172.65 0.157667 0.987492<-41.5535 375.388> 509.2 172.5 600.15 166.5 0.157861 0.987461<-66.1555 353.224>
LayerCount: 2
Fore
SplineSet
91.1504 166.5 m 10
 138.65 464 l 2
 157.1 581.25 225.6 632 337 632 c 2
 501 632 l 2
 628.6 632 661.4 547.65 647.95 465.5 c 2
 600.15 166.5 l 18
 581.15 47.5 516.5 0 406.7 0 c 2
 242.7 0 l 2
 145.85 0 72 46.5 91.1504 166.5 c 10
184.2 172.65 m 2
 170.95 86.9004 218.55 89 262.65 89 c 10
 408.35 89 l 18
 467.7 89 500.2 118.5 509.2 172.5 c 2
 554.9 459.5 l 2
 563.6 514.85 549 543 482.05 543 c 2
 334.1 543 l 2
 259.6 543 236.15 500.55 229.9 459.5 c 2
 184.2 172.65 l 2
EndSplineSet
Substitution2: "'tnum' Tabular Numbers in Latin lookup 7-1" zero.tosf
Substitution2: "'lnum' Lining Figures lookup 19-1" zero
EndChar

StartChar: one.oldstyle
Encoding: 281 -1 180
Width: 352
VWidth: 0
Flags: W
HStem: 0 21G<173.9 268.712> 0 21G<173.9 268.712> 486.65 63.5<97.6 181.399>
VStem: 87.95 276
DStem2: 173.9 0 265.6 0 0.153766 0.988107<14.1004 533.606>
LayerCount: 2
Fore
SplineSet
87.95 486.65 m 1xb0
 97.6 550.15 l 1
 182.6 550.15 265.05 626.3 272.25 634.55 c 1
 363.95 632 l 1
 265.6 0 l 1
 173.9 0 l 1
 257.3 527.05 l 1
 230.45 506.55 169.55 486.65 87.95 486.65 c 1xb0
EndSplineSet
Substitution2: "'tnum' Tabular Numbers in Latin lookup 7-1" one.tosf
Substitution2: "'lnum' Lining Figures lookup 19-1" one
EndChar

StartChar: two.oldstyle
Encoding: 282 -1 181
Width: 598
VWidth: 0
Flags: W
HStem: 0 89<261.9 543.9> 547.95 89.1494<188.524 503.396>
LayerCount: 2
Fore
SplineSet
44.4004 0 m 25
 57.7998 83 l 17
 207.95 160.4 502.85 307.2 524.2 443.4 c 1
 535.9 514.6 513 549.65 419.25 547.95 c 1
 376.75 547.95 126.55 547.1 126.55 547.1 c 2
 138.5 615.6 l 1
 237.95 630.2 319.85 637.1 443.45 637.1 c 3
 603.7 637.1 630.3 537.5 620.2 441.7 c 1
 604.15 271.4 326.6 119.6 261.9 89 c 9
 558.3 89 l 25
 543.9 0 l 25
 44.4004 0 l 25
EndSplineSet
Substitution2: "'tnum' Tabular Numbers in Latin lookup 7-1" two.tosf
Substitution2: "'lnum' Lining Figures lookup 19-1" two
EndChar

StartChar: three.oldstyle
Encoding: 283 -1 182
Width: 592
VWidth: 0
Flags: W
HStem: -101.9 90<93.4183 419.277> -73.9 62<54.85 142.002> 223.75 90<231.228 459.054> 231.05 73<166.65 334.072> 550.1 89<219.934 510.227>
DStem2: 461.3 74.35 554.1 66.1 0.157464 0.987525<-60.6404 125.398 268.063 453.166>
LayerCount: 2
Fore
SplineSet
44.45 -73.9 m 1x48
 54.85 -11.9 l 1
 340.85 -11.9 l 2
 393.35 -11.9 450.9 10.35 461.3 74.35 c 2
 469.95 126 l 2
 484.6 217.9 439.6 221.45 384.25 223.75 c 2x68
 154.25 231.05 l 2
 166.65 304.05 l 1x18
 398.65 313.75 l 2
 467.65 316.75 506.4 346.5 515.95 405.25 c 2
 525.45 465.1 l 2
 537 537.35 488.05 550.1 436.05 550.1 c 2
 137.05 550.1 l 1
 146.45 611.1 l 1
 239.45 642.1 353.95 641.1 470.95 639.1 c 0
 569.05 637.1 633.8 566.7 618.2 468.1 c 2
 607.8 403.6 l 2
 594.95 323.8 559.95 279.8 516.95 269.1 c 1
 558 248.7 575.35 196.6 563.35 120.6 c 2
 554.1 66.1 l 2
 536.8 -44.7 468.95 -101.9 346.95 -101.9 c 0xa8
 232.95 -101.9 127.45 -104.9 44.45 -73.9 c 1x48
EndSplineSet
Substitution2: "'tnum' Tabular Numbers in Latin lookup 7-1" three.tosf
Substitution2: "'lnum' Lining Figures lookup 19-1" three
EndChar

StartChar: four.oldstyle
Encoding: 284 -1 183
Width: 611
VWidth: 0
Flags: W
HStem: 79.5 93<189.2 423.95> 100 72.5<576.978 607.3>
DStem2: 40.7 124 189.2 172.5 0.60351 0.797355<128.293 637.106> 396.15 -98 490.7 -98 0.155911 0.987771<14.7414 179.664 288.513 472.312>
LayerCount: 2
Fore
SplineSet
40.7 124 m 1x80
 425.2 632 l 1
 535.45 632 l 1
 189.2 172.5 l 1x80
 438.35 172.5 l 1
 469.7 368.55 l 1
 519.75 444 l 1
 576.25 444 l 1
 532.9 172.5 l 1
 618.4 172.5 l 1
 607.3 100 l 1x40
 518.5 79.5 l 1
 490.7 -98 l 1
 396.15 -98 l 1
 423.95 79.5 l 1
 67.5 79.5 l 1
 40.7 124 l 1x80
EndSplineSet
Substitution2: "'tnum' Tabular Numbers in Latin lookup 7-1" four.tosf
Substitution2: "'lnum' Lining Figures lookup 19-1" four
EndChar

StartChar: five.oldstyle
Encoding: 285 -1 184
Width: 593
VWidth: 0
Flags: W
HStem: -103.15 94<82.8085 409.509> -79.15 70<49.05 178.058> 263 88.35<213.601 449.279> 543 89<248.8 588.25>
DStem2: 81.9 192.5 169.3 192.5 0.160774 0.986991<14.0517 70.2273 147.197 279.803> 444.65 77.85 535.6 65.35 0.15158 0.988445<-66.6559 160.707>
LayerCount: 2
Fore
SplineSet
37.65 -79.15 m 1x70
 49.05 -9.15 l 1
 347.05 -9.15 l 2
 415 -9.15 439.1 42.55 444.65 77.85 c 2
 459.85 170.9 l 2
 464.85 200.5 470.6 263 391.8 263 c 1
 257.7 263 l 2
 219.75 263 177.7 243.05 169.3 192.5 c 1
 81.9 192.5 l 1
 173.65 632 l 17
 602.65 632 l 1
 588.25 543 l 1
 248.8 543 l 25
 202.45 322 l 1
 222.95 340.55 255.9 348.65 289.3 351.35 c 0
 336.55 355.05 390.4 350.65 416.15 350.5 c 0
 510.75 349 568 275.15 552.3 174.25 c 2
 535.6 65.35 l 2
 513.6 -71.65 431.2 -98.9 339.15 -103.15 c 1xb0
 214.3 -109.1 167.65 -102.15 37.65 -79.15 c 1x70
EndSplineSet
Substitution2: "'tnum' Tabular Numbers in Latin lookup 7-1" five.tosf
Substitution2: "'lnum' Lining Figures lookup 19-1" five
EndChar

StartChar: six.oldstyle
Encoding: 286 -1 185
Width: 618
VWidth: 0
Flags: W
HStem: -0.150391 86.4502<226.696 471.685> 345 87.5<224.008 510.271> 649 88.25<315.141 603.951> 649 68.9502<423.111 643.75>
DStem2: 501.1 163.75 589.6 148 0.150442 0.988619<-60.2943 167.428>
LayerCount: 2
Fore
SplineSet
123.35 387 m 4xe0
 165.35 652 267.3 735.15 351.5 737.25 c 4xe0
 452.8 739.65 557.2 726.9 654.85 717.95 c 5
 643.75 649 l 5xd0
 365.25 649 l 6
 278.5 649 234.8 493.85 220.25 411.5 c 5
 300.2 422.85 394.25 431.65 469.75 432.5 c 5
 606.4 434.2 619.05 338.45 608.85 274.5 c 6
 589.6 148 l 6
 571.15 33.2998 496.95 -0.150391 399.65 -0.150391 c 6
 254 -0.150391 l 6
 154.95 -0.150391 73.3496 72 123.35 387 c 4xe0
209.15 345 m 5
 191.3 232.2 181.35 86.2998 276.1 86.2998 c 6
 406.05 86.2998 l 6
 439.05 86.2998 490.85 97.8496 501.1 163.75 c 6
 517.85 273 l 6
 527.4 331.3 507.85 345 448.75 345 c 6
 209.15 345 l 5
EndSplineSet
Substitution2: "'tnum' Tabular Numbers in Latin lookup 7-1" six.tosf
Substitution2: "'lnum' Lining Figures lookup 19-1" six
EndChar

StartChar: seven.oldstyle
Encoding: 287 -1 186
Width: 569
VWidth: 0
Flags: W
HStem: 543 89<119.2 480.8>
DStem2: 130.2 -100 235.9 -100 0.475069 0.879949<50.2148 732.366>
LayerCount: 2
Fore
SplineSet
104.8 543 m 1
 119.2 632 l 1
 581.5 632 l 1
 602.75 579.5 l 1
 235.9 -100 l 1
 130.2 -100 l 1
 480.8 543 l 1
 104.8 543 l 1
EndSplineSet
Substitution2: "'tnum' Tabular Numbers in Latin lookup 7-1" seven.tosf
Substitution2: "'lnum' Lining Figures lookup 19-1" seven
EndChar

StartChar: eight.oldstyle
Encoding: 288 -1 187
Width: 611
VWidth: 0
Flags: W
HStem: 0 87.5<197.45 465.38> 331 85<251.545 496.303> 649.5 87.5<279.637 547.737>
DStem2: 93.9502 160.75 185.85 159.85 0.156567 0.987667<-39.2567 168.683 298.587 493.362> 493.35 159.85 585.6 155.65 0.156607 0.987661<-55.1922 149.939 277.478 474.014>
LayerCount: 2
Fore
SplineSet
93.9502 160.75 m 2
 107.9 252 l 2
 119.3 322.4 167.7 356.15 217.05 361.75 c 1
 150.75 386 139.2 452.05 147.5 502 c 2
 158.35 567 l 2
 179.5 702.75 252.85 737 364.35 737 c 2
 511.85 737 l 2
 613.7 737 667.3 673.55 649.85 560.85 c 2
 639.45 499 l 2
 637.15 476.25 614.85 398.4 542.05 384.3 c 1
 598 367.05 608 293.35 600.15 250.35 c 2
 585.6 155.65 l 2
 562.15 10.5 473.85 0 393.85 0 c 2
 247.35 0 l 2
 76.0498 0 87.3496 119.7 93.9502 160.75 c 2
185.85 159.85 m 2
 177.3 105.3 200.9 87.5 268.2 87.5 c 2
 399.25 87.5 l 2
 439 87.5 485.1 104.65 493.35 159.85 c 2
 508.7 255.1 l 2
 516.95 307.45 484.35 331 441.1 331 c 2
 297.85 331 l 2
 252.45 331 210.3 311.85 201.2 255.1 c 2
 185.85 159.85 l 2
238.5 494 m 2
 228.25 431.2 276.8 416 310.8 416 c 2
 453.75 416 l 2
 522.4 416 540.15 458.9 546 494 c 2
 555.95 556.3 l 2
 568.2 631.5 546.9 649.5 488.9 649.5 c 2
 357 649.5 l 2
 281.95 649.5 258.85 622.7 248.45 556.3 c 2
 238.5 494 l 2
EndSplineSet
Substitution2: "'tnum' Tabular Numbers in Latin lookup 7-1" eight.tosf
Substitution2: "'lnum' Lining Figures lookup 19-1" eight
EndChar

StartChar: nine.oldstyle
Encoding: 289 -1 188
Width: 614
VWidth: 0
Flags: W
HStem: -105.25 88.25<132.261 421.192> -85.9502 68.9502<92.4502 313.218> 199.5 87.5<225.94 512.342> 545.7 86.4502<264.245 509.415>
DStem2: 127.65 359 218.5 359 0.15166 0.988433<-41.8875 183.116>
LayerCount: 2
Fore
SplineSet
81.3496 -85.9502 m 5x70
 92.4502 -17 l 5x70
 370.95 -17 l 6
 457.7 -17 501.55 138.15 516.1 220.5 c 5
 436.15 209.15 341.95 200.35 266.45 199.5 c 5
 129.8 197.8 117.45 295.05 127.65 359 c 6
 146.6 482.5 l 6
 164.9 597.2 238.95 632.15 336.25 632.15 c 6
 481.9 632.15 l 6
 581.85 632.15 662.7 557 612.7 242 c 4
 570.7 -23 469.05 -103.15 384.85 -105.25 c 4xb0
 283.55 -107.65 179 -94.9004 81.3496 -85.9502 c 5x70
218.5 359 m 6
 208.95 300.7 228.35 287 287.45 287 c 6
 527.05 287 l 5
 544.9 399.8 554.7 545.7 459.95 545.7 c 6
 330.15 545.7 l 6
 297.15 545.7 245.35 534.15 235.1 468.25 c 6
 218.5 359 l 6
EndSplineSet
Substitution2: "'tnum' Tabular Numbers in Latin lookup 7-1" nine.tosf
Substitution2: "'lnum' Lining Figures lookup 19-1" nine
EndChar

StartChar: ampersand
Encoding: 38 38 189
Width: 638
VWidth: 0
Flags: HW
LayerCount: 2
Fore
SplineSet
91.6 80.2 m 0
 29.5 177.8 63.1 286.7 166.85 365.85 c 2
 260.65 437.65 l 1
 214.2 518.45 l 1
 149.65 629.7 234.75 719.25 318.65 727.45 c 0
 426.65 738.4 494.55 731.25 587.35 710 c 1
 577.1 647.6 l 1
 384.6 647.6 l 2
 300.1 647.6 251.25 621.7 302.55 532.2 c 2
 475.15 232.8 l 1
 608.9 352.05 l 1
 637.7 321.85 l 1
 566.85 202.95 l 1
 519.3 157.4 l 1
 611.85 0 l 1
 514.85 0 l 1
 452.7 106.5 l 1
 378.4 41.15 l 2
 303.05 -24.85 159 -27 91.6 80.2 c 0
167 127.7 m 0
 204.1 73.8 277.95 62.35 331.8 109.9 c 2
 409.65 178.75 l 1
 301.05 361.4 l 1
 220.75 300.35 l 18
 138.7 238.9 132.5 177.55 167 127.7 c 0
EndSplineSet
AlternateSubs2: "'salt' Access All Alternates in Latin lookup 4-1" ampersand.salt
Substitution2: "'smcp' Lowercase to Small Capitals lookup 16-1" ampersand.smcp
EndChar

StartChar: asterisk
Encoding: 42 42 190
Width: 436
VWidth: 0
Flags: HW
LayerCount: 2
Fore
SplineSet
135.7 566 m 1
 142.45 610.5 l 1
 286.15 638 l 1
 278.7 561 l 1
 135.7 566 l 1
176.85 414.6 m 1
 222 550.05 l 1
 294.7 532 l 1
 216.05 401.25 l 1
 176.85 414.6 l 1
277.75 473.45 m 1
 330.7 538 l 1
 426.3 447.3 l 1
 396.7 411.7 l 1
 277.75 473.45 l 1
286.3 717.75 m 1
 331.65 734.65 l 1
 386.25 615.45 l 1
 310.25 584 l 1
 286.3 717.75 l 1
337.85 571 m 1
 469.85 647.75 l 1
 485.7 609.45 l 1
 378.05 512.45 l 1
 337.85 571 l 1
EndSplineSet
Substitution2: "'smcp' Lowercase to Small Capitals lookup 16-1" asterisk.smcp
EndChar

StartChar: Euro
Encoding: 290 8364 191
Width: 714
VWidth: 0
Flags: HW
LayerCount: 2
Fore
SplineSet
66.25 253.5 m 1
 74.3 306.5 l 1
 161.15 313.5 l 1
 175.65 405.5 l 1
 91.8 413.5 l 1
 99.7 462.5 l 1
 185.7 471.5 l 1
 196.7 543.5 221.4 740 465.4 740 c 3
 517.4 740 639.8 724.35 709.75 708.5 c 1
 698.8 637.5 l 2
 698.8 637.5 542.3 652.5 460.3 652.5 c 3
 315.5 652.5 294.65 566.55 277.7 471.5 c 1
 510.7 464.5 l 1
 502.65 412.5 l 1
 267.65 405.5 l 1
 253.15 313.5 l 1
 485.3 306.5 l 1
 477.25 253.5 l 1
 477.25 253.5 239.25 248.5 242.25 246.5 c 1
 218.9 109.6 280.9 80 369.5 80 c 27
 464.85 80 617.15 98.5 617.15 98.5 c 1
 606.2 30.5 l 1
 522.85 5.1 436.4 -6 347.4 -6 c 3
 270.4 -6 114.25 20.5 150.25 246.5 c 1
 66.25 253.5 l 1
EndSplineSet
Substitution2: "'smcp' Lowercase to Small Capitals lookup 16-1" Euro.smcp
EndChar

StartChar: parenleft
Encoding: 40 40 192
Width: 346
VWidth: 51
Flags: HW
LayerCount: 2
Fore
SplineSet
121.9 321.5 m 0
 174.8 634.8 364.45 851 364.45 851 c 1
 464.9 851 l 1
 464.9 851 270.1 618.05 213.9 317 c 0
 154.55 -0.700001 294.9 -219 294.9 -219 c 1
 200.4 -219 l 1
 200.4 -219 67.4 0.15 121.9 321.5 c 0
EndSplineSet
Substitution2: "'case' Case-Sensitive Forms lookup 1-1" parenleft.alt
Substitution2: "'c2sc' Capitals to Small Capitals in Latin lookup 17 subtable" parenleft.smcp
Substitution2: "'smcp' Lowercase to Small Capitals lookup 16-1" parenleft.smcp
EndChar

StartChar: parenright
Encoding: 41 41 193
Width: 348
VWidth: 51
Flags: HW
LayerCount: 2
Fore
SplineSet
-14.35 -219 m 1
 -14.35 -219 179.85 10.35 236.65 315.3 c 0
 295.4 629.1 155.5 851 155.5 851 c 1
 250 851 l 1
 250 851 382.4 627.5 328.65 310.8 c 0
 275 -7.15 89.1 -219 89.1 -219 c 1
 -14.35 -219 l 1
EndSplineSet
Substitution2: "'case' Case-Sensitive Forms lookup 1-1" parenright.alt
Substitution2: "'c2sc' Capitals to Small Capitals in Latin lookup 17 subtable" parenright.smcp
Substitution2: "'smcp' Lowercase to Small Capitals lookup 16-1" parenright.smcp
EndChar

StartChar: plus
Encoding: 43 43 194
Width: 507
VWidth: 0
Flags: HW
LayerCount: 2
Fore
SplineSet
94.6 313 m 1
 108.4 399 l 1
 272.4 399 l 1
 298.5 564 l 1
 384.5 564 l 1
 358.4 399 l 1
 524.4 399 l 1
 510.6 313 l 1
 344.6 313 l 1
 318.5 148 l 1
 232.5 148 l 1
 258.6 313 l 1
 94.6 313 l 1
EndSplineSet
EndChar

StartChar: endash
Encoding: 291 8211 195
Width: 456
VWidth: 0
Flags: HW
LayerCount: 2
Fore
SplineSet
59.85 244 m 1
 73.8 331 l 1
 546.8 331 l 1
 532.85 244 l 1
 59.85 244 l 1
EndSplineSet
Substitution2: "'case' Case-Sensitive Forms lookup 1-1" endash.alt
Substitution2: "'c2sc' Capitals to Small Capitals in Latin lookup 17 subtable" endash.smcp
Substitution2: "'smcp' Lowercase to Small Capitals lookup 16-1" endash.smcp
EndChar

StartChar: emdash
Encoding: 292 8212 196
Width: 736
VWidth: 0
Flags: HW
LayerCount: 2
Fore
SplineSet
59.6 246 m 1
 73.55 333 l 1
 769.55 333 l 1
 755.6 246 l 1
 59.6 246 l 1
EndSplineSet
Substitution2: "'case' Case-Sensitive Forms lookup 1-1" emdash.alt
Substitution2: "'c2sc' Capitals to Small Capitals in Latin lookup 17 subtable" emdash.smcp
Substitution2: "'smcp' Lowercase to Small Capitals lookup 16-1" emdash.smcp
EndChar

StartChar: less
Encoding: 60 60 197
Width: 467
VWidth: 0
Flags: HW
LayerCount: 2
Fore
SplineSet
94.65 306.8 m 1
 109.75 400.3 l 1
 509.15 557.5 l 1
 494.9 464 l 1
 202.6 349.7 l 1
 457.65 227.75 l 1
 442.55 138.5 l 1
 94.65 306.8 l 1
EndSplineSet
EndChar

StartChar: equal
Encoding: 61 61 198
Width: 467
VWidth: 0
Flags: HW
LayerCount: 2
Fore
SplineSet
51.8 204.5 m 1
 66.45 290.5 l 1
 493.45 290.5 l 1
 478.8 204.5 l 1
 51.8 204.5 l 1
84.25 415 m 1
 98.9 501 l 1
 525.9 501 l 1
 511.25 415 l 1
 84.25 415 l 1
EndSplineSet
EndChar

StartChar: greater
Encoding: 62 62 199
Width: 468
VWidth: 0
Flags: HW
LayerCount: 2
Fore
SplineSet
68.4 138.5 m 1
 83.5 233.7 l 1
 381.05 355.2 l 1
 119.75 472.5 l 1
 134.85 557.5 l 1
 484.6 400.3 l 1
 470.5 306.8 l 1
 68.4 138.5 l 1
EndSplineSet
EndChar

StartChar: multiply
Encoding: 215 215 200
Width: 459
VWidth: 0
Flags: HW
LayerCount: 2
Fore
SplineSet
90 240.9 m 1
 224.05 356.7 l 1
 127.5 471.8 l 1
 192.95 528.5 l 1
 289.65 413.4 l 1
 431 535.05 l 1
 482.9 472.8 l 1
 342.1 350.7 l 1
 440.5 234.05 l 1
 374.5 178.7 l 1
 277.4 294.6 l 1
 142.35 177.9 l 1
 90 240.9 l 1
EndSplineSet
EndChar

StartChar: divide
Encoding: 247 247 201
Width: 511
VWidth: 0
Flags: HW
LayerCount: 2
Fore
SplineSet
95.65 310 m 1
 109.45 396 l 1
 527.1 396 l 1
 513.3 310 l 1
 95.65 310 l 1
231.05 168.05 m 2
 240.65 225.5 l 2
 242.65 240.5 252.65 250.5 268.65 250.5 c 2
 325.1 250.5 l 2
 340.55 250.5 346.55 239.8 344.4 225.5 c 2
 334.8 168.05 l 2
 332.65 152.6 322.5 145.05 308.5 145.05 c 2
 252.05 145.05 l 2
 238.05 145.05 229.05 154.05 231.05 168.05 c 2
280.1 473.65 m 2
 288.7 531.1 l 2
 290.7 546.1 300.7 556.1 316.7 556.1 c 2
 373.15 556.1 l 2
 388.6 556.1 394.6 545.4 392.45 531.1 c 2
 383.85 473.65 l 2
 381.7 458.2 370.55 450.65 356.55 450.65 c 2
 300.1 450.65 l 2
 286.1 450.65 278.1 459.65 280.1 473.65 c 2
EndSplineSet
EndChar

StartChar: question
Encoding: 63 63 202
Width: 540
VWidth: 0
Flags: HW
LayerCount: 2
Fore
SplineSet
121.25 652.4 m 2
 132.35 717.5 l 1
 234.25 732 303.65 744 417.65 739 c 1
 554.35 739 607.7 647.5 591.7 549.5 c 2
 576.75 453 l 2
 553.8 303.4 449 274.25 312.05 293 c 1
 312.05 290.45 295.8 200.1 296.65 195 c 1
 211.15 195 l 1
 237.65 366 l 1
 286.95 365.15 322.85 364.3 372.15 366 c 0
 421.15 368 475.35 393.2 485.9 458.1 c 2
 499.8 546.2 l 2
 511.9 624.2 481.5 652.4 386.25 652.4 c 2
 121.25 652.4 l 2
172.3 23 m 2
 182.8 89 l 2
 184.8 104 194.8 114 210.8 114 c 2
 272.8 114 l 2
 290.8 114 296.8 105 293.8 89 c 2
 283.3 23 l 2
 280.3 5 269.3 0 255.3 0 c 2
 193.3 0 l 2
 179.3 0 170.3 9 172.3 23 c 2
EndSplineSet
Substitution2: "'smcp' Lowercase to Small Capitals lookup 16-1" question.smcp
EndChar

StartChar: bracketleft
Encoding: 91 91 203
Width: 324
VWidth: 51
Flags: HW
LayerCount: 2
Fore
SplineSet
73.8 -35.15 m 2
 187 675.7 l 2
 202.2 769.45 233.75 833 359.1 833 c 2
 439.1 833 l 1
 425.3 747 l 1
 352.8 747 l 2
 314.8 747 288.8 732.4 277.95 667.3 c 2
 165.8 -38 l 2
 153.25 -118.4 164.6 -133 212.8 -133 c 2
 286.05 -133 l 1
 272.25 -219 l 1
 189.85 -219 l 2
 61.9 -219 63.45 -99.5 73.8 -35.15 c 2
EndSplineSet
EndChar

StartChar: bracketright
Encoding: 93 93 204
Width: 324
VWidth: 51
Flags: HW
LayerCount: 2
Fore
SplineSet
-14.35 -219 m 1
 -0.55 -133 l 1
 71.95 -133 l 2
 109.95 -133 136.1 -118.4 146.95 -53.3 c 2
 258.65 652 l 2
 271.2 732.4 259.4 747 211.2 747 c 2
 138.7 747 l 1
 152.65 833 l 1
 233.25 833 l 2
 358.65 833 361.15 719.95 350.8 651.7 c 2
 239.55 -61.55 l 2
 225.7 -150.05 196.85 -219 68.65 -219 c 2
 -14.35 -219 l 1
EndSplineSet
EndChar

StartChar: braceleft
Encoding: 123 123 205
Width: 320
VWidth: 51
Flags: HW
LayerCount: 2
Fore
SplineSet
64.75 294.25 m 1
 77.4 371.75 l 1
 111.25 373.05 163.2 367.2 170.9 416.25 c 2
 207.9 651.5 l 2
 226.9 768.95 299.4 833 434.5 833 c 1
 420.7 747 l 1
 356.6 747.85 311.2 722.6 297.2 635 c 2
 262.6 414 l 2
 254 362.1 211.7 335.1 160.15 326.7 c 1
 209.55 318.8 241 283.25 233.7 239 c 2
 194.9 -1.65 l 2
 178.1 -105.75 213.2 -137.9 281.3 -134.5 c 1
 267.65 -219 l 1
 119.7 -219 84.55 -112.95 102 -7.65 c 2
 141.25 232.75 l 2
 147.95 273.55 104.75 297.25 64.75 294.25 c 1
EndSplineSet
EndChar

StartChar: braceright
Encoding: 125 125 206
Width: 316
VWidth: 51
Flags: HW
LayerCount: 2
Fore
SplineSet
-14.35 -219 m 1
 -0.7 -134.5 l 1
 64 -135.35 108.25 -108.3 121.65 -24.6 c 2
 158.75 205.85 l 2
 166.9 255.2 208.35 283.1 260.05 292.7 c 1
 210.5 299.4 179.6 334.05 187.35 380.85 c 2
 224.5 612.05 l 2
 241.9 720.05 206.2 750.4 138.7 747 c 1
 152.65 833 l 1
 298.8 833 333.8 724.4 316.5 619.7 c 2
 279.65 386.5 l 2
 273.1 345.1 317.35 322.9 356.3 325 c 1
 343.65 247.5 l 1
 308.75 247.1 258 251.45 250.3 203 c 2
 211.4 -36.6 l 2
 191.8 -155.85 122.55 -219 -14.35 -219 c 1
EndSplineSet
EndChar

StartChar: at
Encoding: 64 64 207
Width: 875
VWidth: 0
Flags: HW
LayerCount: 2
Fore
SplineSet
60.4 16.5 m 2
 140.2 521 l 2
 157.45 627.25 218.3 705 358.85 705 c 2
 730.85 705 l 2
 850.7 705 894.45 630.7 876.7 512 c 2
 824.9 165.5 l 2
 816.55 109.05 793.45 3 649.45 3 c 2
 584.95 3 l 1
 561.8 61.5 l 1
 533.2 29.15 484.95 -3.45 411.95 -4 c 0
 298.85 -5.1 227 58.05 259.95 277.55 c 0
 293.95 498.7 400.95 544.3 479.45 544.3 c 0
 557.5 544.3 655.3 530.25 706.3 481.25 c 1
 649.1 87.5 l 1
 697.1 87.5 728.75 96.5 741.6 177.5 c 2
 792.05 515 l 2
 807.6 620.45 764.35 619.5 719.7 619.5 c 2
 343.7 619.5 l 2
 248.7 619.5 230.15 549.9 224.55 515 c 2
 145.2 13.5 l 2
 136.2 -43.5 144.65 -97.5 230.65 -97.5 c 2
 616.65 -97.5 l 1
 607 -155 l 1
 557 -165 441 -182 315 -182 c 2
 218.5 -182 l 2
 98.15 -182 43.1 -93.2 60.4 16.5 c 2
341.9 257 m 0
 325.4 126.25 341.3 80.9 418.1 80.5 c 0
 473.1 79.95 514.05 93.3 569.9 142 c 1
 617.6 446.45 l 1
 562.25 460.65 518.4 460.8 479.1 460.8 c 0
 426.35 460.8 363.7 428.65 341.9 257 c 0
EndSplineSet
Substitution2: "'case' Case-Sensitive Forms lookup 1-1" at.alt
Substitution2: "'smcp' Lowercase to Small Capitals lookup 16-1" at.smcp
EndChar

StartChar: breve
Encoding: 293 728 208
Width: 253
VWidth: 0
Flags: HW
LayerCount: 2
Fore
SplineSet
58.25 644 m 1
 107.4 644 l 1
 101.85 602.95 127.6 579.15 160.45 579.15 c 0
 202.7 578.3 229.45 596.45 236.55 644 c 1
 285.7 644 l 1
 275.45 564.95 229.6 530.3 160.3 530.3 c 0
 104.9 530.3 52.25 570.9 58.25 644 c 1
EndSplineSet
EndChar

StartChar: ogonek
Encoding: 294 731 209
Width: 229
VWidth: 0
Flags: HW
LayerCount: 2
Fore
SplineSet
242.25 0 m 1
 285.75 0 l 1
 193.95 -65.75 195.6 -122.3 271.7 -118 c 9
 261.1 -182.5 l 0
 145.2 -201.2 84.05 -66.1 242.25 0 c 1
EndSplineSet
EndChar

StartChar: caron
Encoding: 295 711 210
Width: 376
VWidth: 0
Flags: HW
LayerCount: 2
Fore
SplineSet
28.85 662.5 m 1
 100.75 662.5 l 1
 154.45 584.3 l 1
 239.05 662.5 l 1
 325.35 662.5 l 1
 189.75 531 l 1
 110.5 531 l 1
 28.85 662.5 l 1
EndSplineSet
Substitution2: "'smcp' Lowercase to Small Capitals lookup 16-1" caron.smcp
EndChar

StartChar: hungarumlaut
Encoding: 296 733 211
Width: 460
VWidth: 0
Flags: HW
LayerCount: 2
Fore
SplineSet
151 531 m 25
 274.8 665.5 l 25
 377.3 665.5 l 25
 226 531 l 25
 151 531 l 25
291.7 531 m 25
 415.5 665.5 l 25
 518 665.5 l 25
 366.7 531 l 25
 291.7 531 l 25
EndSplineSet
EndChar

StartChar: dotaccent
Encoding: 297 729 212
Width: 131
VWidth: 0
Flags: W
HStem: 530 108<113.164 205.112>
VStem: 102.65 112.9
LayerCount: 2
Fore
SplineSet
102.65 553 m 2
 112.55 613 l 2
 114.55 628 124.55 638 140.55 638 c 2
 196.55 638 l 2
 211.55 638 217.55 627 215.55 613 c 2
 205.65 553 l 2
 203.65 538 193.65 530 179.65 530 c 2
 123.65 530 l 2
 109.65 530 100.65 539 102.65 553 c 2
EndSplineSet
EndChar

StartChar: Lcaron
Encoding: 299 317 214
Width: 533
VWidth: 0
Flags: HW
LayerCount: 2
Fore
SplineSet
94.5 130.5 m 2
 191.45 732 l 1
 282.6 732 l 1
 188.15 141 l 2
 180.15 88 214 89 243 89 c 2
 534 89 l 1
 520.45 0 l 1
 214.25 0 l 2
 143.643 0 79.05 33.65 94.5 130.5 c 2
336.45 571 m 1
 346.45 705 l 1
 357.3 772 l 1
 437.3 772 l 1
 426.45 705 l 1
 395.45 571 l 1
 336.45 571 l 1
EndSplineSet
Substitution2: "'c2sc' Capitals to Small Capitals in Latin lookup 17 subtable" lcaron.smcp
EndChar

StartChar: lcaron
Encoding: 308 318 223
Width: 315
VWidth: 0
Flags: HW
LayerCount: 2
Fore
SplineSet
84.95 189 m 2
 178.95 783 l 1
 270.95 783 l 1
 177.85 195 l 2
 162.6 100.5 179.85 92.45 216 83 c 2
 216 83 284.75 64.55 286.65 64.55 c 1
 276.3 0 l 1
 200.8 0 l 2
 116 0 62.95 48.85 84.95 189 c 2
322.95 580.15 m 1
 332.95 714.15 l 1
 343.95 781.15 l 1
 423.95 781.15 l 1
 412.95 714.15 l 1
 381.95 580.15 l 1
 322.95 580.15 l 1
EndSplineSet
Substitution2: "'smcp' Lowercase to Small Capitals lookup 16-1" lcaron.smcp
EndChar

StartChar: tcaron
Encoding: 312 357 227
Width: 405
VWidth: 0
Flags: HW
LayerCount: 2
Fore
SplineSet
65.5 449 m 1
 75.4 511 l 1
 174.25 532 l 1
 216.9 680 l 1
 289.4 680 l 1
 266.25 532 l 1
 411.35 532 l 1
 398 449 l 1
 252.9 449 l 1
 213.15 196 l 2
 198.75 101.2 214.15 93.15 250.3 83.7 c 2
 250.3 83.7 319.05 65.25 320.95 65.25 c 1
 311.45 0.7 l 1
 235.65 0.7 l 2
 153.1 0.7 98.25 49.85 120.25 190 c 2
 160.9 449 l 1
 65.5 449 l 1
343.6 599.15 m 1
 355.3 733.15 l 1
 364.6 800.15 l 1
 445.45 800.15 l 1
 435.3 733.15 l 1
 402.6 599.15 l 1
 343.6 599.15 l 1
EndSplineSet
AlternateSubs2: "'salt' Access All Alternates in Latin lookup 4-1" tcaron.salt
Substitution2: "'smcp' Lowercase to Small Capitals lookup 16-1" tcaron.smcp
EndChar

StartChar: dcaron
Encoding: 338 271 253
Width: 669
VWidth: 0
Flags: HW
LayerCount: 2
Fore
SplineSet
86 266.15 m 0
 110.2 416.4 154.6 539 304.55 539 c 3
 349.55 539 429.15 525.45 485.1 500.5 c 1
 530.8 785 l 1
 621.1 785 l 1
 496.25 0 l 1
 426.3 0 l 1
 414.5 57.5 l 17
 383.25 36.4 294.55 -6 227.9 -6 c 3
 91.05 -6 64.2 132.3 86 266.15 c 0
178.3 264.5 m 0
 157.9 142.75 181.8 80.45 243.1 80.45 c 3
 314.9 80.45 374.75 101.6 425.15 122.85 c 1
 473.6 430.9 l 1
 416.3 447.85 370.15 455.25 300.95 455.25 c 1
 245.75 455.25 203.95 420 178.3 264.5 c 0
670.1 579.3 m 1
 680.95 713.3 l 1
 690.95 780.3 l 1
 771.8 780.3 l 1
 760.95 713.3 l 1
 729.1 579.3 l 1
 670.1 579.3 l 1
EndSplineSet
AlternateSubs2: "'salt' Access All Alternates in Latin lookup 4-1" dcaron.salt
Substitution2: "'smcp' Lowercase to Small Capitals lookup 16-1" dcaron.smcp
EndChar

StartChar: Lslash
Encoding: 346 321 261
Width: 533
VWidth: 0
Flags: HW
LayerCount: 2
Fore
SplineSet
40.1 315.95 m 1
 50.55 379.95 l 1
 138.9 415.2 l 1
 189.05 732 l 1
 280.2 732 l 1
 236.25 454.85 l 1
 377.3 511.55 l 1
 366 448.4 l 1
 226.65 391.7 l 1
 186.6 141 l 2
 178.6 88 211.6 89 240.6 89 c 2
 532.45 89 l 1
 518.2 0 l 1
 212.85 0 l 2
 142.243 0 77.5 33.65 92.95 130.5 c 2
 128.45 352.05 l 1
 40.1 315.95 l 1
EndSplineSet
Substitution2: "'c2sc' Capitals to Small Capitals in Latin lookup 17 subtable" lslash.smcp
EndChar

StartChar: uni00AD
Encoding: 173 173 262
Width: 354
VWidth: 0
Flags: HW
LayerCount: 2
Fore
SplineSet
58.95 247 m 1
 72.75 333 l 1
 386.75 333 l 1
 372.95 247 l 1
 58.95 247 l 1
EndSplineSet
Substitution2: "'case' Case-Sensitive Forms lookup 1-1" uni00AD.alt
Substitution2: "'c2sc' Capitals to Small Capitals in Latin lookup 17 subtable" uni00AD.smcp
Substitution2: "'smcp' Lowercase to Small Capitals lookup 16-1" uni00AD.smcp
EndChar

StartChar: lslash
Encoding: 347 322 263
Width: 358
VWidth: 0
Flags: HW
LayerCount: 2
Fore
SplineSet
87.85 363.9 m 1
 98.3 427.9 l 1
 179.25 460.45 l 1
 230.7 783 l 1
 325.25 783 l 1
 280.15 501.65 l 1
 425.05 559.5 l 1
 413.75 496.35 l 1
 270.55 437.65 l 1
 228.75 195 l 2
 212.65 100.5 230.75 92.45 266.9 83 c 1
 266.9 83 335.65 64.55 337.55 64.55 c 1
 328.05 0 l 1
 254.05 0 l 2
 169.25 0 113.85 48.85 135.85 189 c 2
 168.95 397.3 l 1
 87.85 363.9 l 1
EndSplineSet
Substitution2: "'smcp' Lowercase to Small Capitals lookup 16-1" lslash.smcp
EndChar

StartChar: dcroat
Encoding: 349 273 265
Width: 552
VWidth: 0
Flags: HW
LayerCount: 2
Fore
SplineSet
86 266.45 m 0
 110.2 416.7 154.6 539 304.55 539 c 0
 349.55 539 429.15 525.45 485.1 500.5 c 1
 502.5 613 l 1
 384.7 613 l 1
 394.15 670 l 1
 511.95 670 l 1
 530.8 785 l 1
 621.1 785 l 1
 603.1 670 l 1
 673.15 670 l 1
 663.7 613 l 1
 593.65 613 l 1
 496.25 0 l 1
 426.3 0 l 1
 414.5 57.5 l 1
 383.25 36.4 294.55 -6 227.9 -6 c 0
 91.05 -6 64.2 132.6 86 266.45 c 0
178.3 264.5 m 0
 157.9 142.75 181.8 80.45 243.1 80.45 c 0
 314.9 80.45 374.75 101.6 425.15 122.85 c 1
 473.6 430.9 l 1
 416.3 447.85 370.15 455.25 300.95 455.25 c 0
 245.75 455.25 203.95 420 178.3 264.5 c 0
EndSplineSet
AlternateSubs2: "'salt' Access All Alternates in Latin lookup 4-1" dcroat.salt
Substitution2: "'smcp' Lowercase to Small Capitals lookup 16-1" dcroat.smcp
EndChar

StartChar: questiondown
Encoding: 191 191 266
Width: 538
VWidth: 0
Flags: HW
LayerCount: 2
Fore
SplineSet
23.75 -78.25 m 2
 38.55 15.25 l 2
 62.1 164.7 166.3 195.2 303.25 176.45 c 1
 303.25 179 319.65 269.35 318.8 274.45 c 1
 404.3 274.45 l 1
 376.95 103.45 l 1
 327.65 104.3 291.75 105.15 242.45 103.45 c 0
 193.45 101.45 140.1 76.25 129.55 11.35 c 2
 115.5 -76.75 l 2
 103.4 -154.75 133.1 -182.95 228.35 -182.95 c 2
 493.35 -182.95 l 2
 483.1 -248.05 l 1
 381.2 -262.55 310.95 -274.55 196.95 -269.55 c 1
 60.25 -269.55 7.75 -176.25 23.75 -78.25 c 2
326.6 380.45 m 2
 336.95 446.45 l 2
 339.1 461.9 349.4 469.45 363.4 469.45 c 2
 427.1 469.45 l 2
 441.1 469.45 449.95 460.45 447.95 446.45 c 2
 437.6 380.45 l 2
 435.6 365.45 425.6 355.45 409.6 355.45 c 2
 345.9 355.45 l 2
 330.45 355.45 324.45 366.15 326.6 380.45 c 2
EndSplineSet
Substitution2: "'case' Case-Sensitive Forms lookup 1-1" questiondown.alt
Substitution2: "'smcp' Lowercase to Small Capitals lookup 16-1" questiondown.smcp
EndChar

StartChar: at.alt
Encoding: 350 -1 267
Width: 775
VWidth: 0
Flags: HW
LayerCount: 2
Fore
SplineSet
73.3 100.5 m 2
 153.1 605 l 2
 170.35 711.25 231.2 789 371.75 789 c 2
 743.75 789 l 2
 863.6 789 907.35 714.7 889.6 596 c 2
 837.8 249.5 l 2
 829.45 193.05 806.35 87 662.35 87 c 2
 597.85 87 l 1
 574.7 145.5 l 1
 546.1 113.15 497.85 80.55 424.85 80 c 0
 311.75 78.9 239.9 142.05 272.85 361.55 c 0
 306.85 582.7 413.85 628.3 492.35 628.3 c 0
 570.4 628.3 668.2 614.25 719.2 565.25 c 1
 662 171.5 l 1
 710 171.5 741.65 180.5 754.5 261.5 c 2
 804.95 599 l 2
 820.5 704.45 777.25 703.5 732.6 703.5 c 2
 356.6 703.5 l 2
 261.6 703.5 243.05 633.9 237.45 599 c 2
 158.1 97.5 l 2
 149.1 40.5 157.55 -13.5 243.55 -13.5 c 2
 629.55 -13.5 l 1
 619.9 -71 l 1
 569.9 -81 453.9 -98 327.9 -98 c 2
 231.4 -98 l 2
 111.05 -98 56 -9.2 73.3 100.5 c 2
354.8 341 m 0
 338.3 210.25 354.2 164.9 431 164.5 c 0
 486 163.95 526.95 177.3 582.8 226 c 1
 630.5 530.45 l 1
 575.15 544.65 531.3 544.8 492 544.8 c 0
 439.25 544.8 376.6 512.65 354.8 341 c 0
EndSplineSet
EndChar

StartChar: questiondown.alt
Encoding: 351 -1 268
Width: 538
VWidth: 0
Flags: HW
LayerCount: 2
Fore
SplineSet
64.75 191.1 m 2
 79.55 284.6 l 2
 101.4 424.7 207.3 464.4 344.25 445.65 c 1
 344.25 448.2 360.65 538.55 359.8 543.65 c 1
 445.3 543.65 l 1
 417.95 372.65 l 1
 368.65 373.5 332.75 374.35 283.45 372.65 c 0
 234.45 370.65 181.1 345.45 170.55 280.55 c 2
 156.5 192.45 l 2
 145.25 122.95 174.1 86.25 269.35 86.25 c 2
 534.35 86.25 l 2
 524.1 21.15 l 1
 422.2 6.65 351.95 -5.35 237.95 -0.35 c 1
 101.25 -0.35 48.75 93.1 64.75 191.1 c 2
367.6 649.65 m 2
 377.95 715.65 l 2
 380.1 731.1 390.4 738.65 404.4 738.65 c 2
 468.1 738.65 l 2
 482.1 738.65 490.95 729.65 488.95 715.65 c 2
 478.6 649.65 l 2
 476.6 634.65 466.6 624.65 450.6 624.65 c 2
 386.9 624.65 l 2
 371.45 624.65 365.45 635.35 367.6 649.65 c 2
EndSplineSet
EndChar

StartChar: oe
Encoding: 352 339 269
Width: 913
VWidth: 0
Flags: HW
LayerCount: 2
Fore
SplineSet
78.3 264.3 m 0
 112.3 481.3 180.5 536.45 356 536.45 c 0
 444.45 536.45 501.35 511.3 530.1 460.15 c 1
 567.4 512.45 627.2 540.85 732.65 541 c 0
 855.5 541.15 941.5 505.65 928.3 388 c 0
 903.75 162.7 588 206.75 551 221.75 c 1
 532.1 109.45 551.25 75.25 622.25 75.25 c 0
 693.75 75.25 788.9 79.15 862.55 90 c 1
 852.15 22 l 1
 769.2 -1.3 685.45 -8.8 594.8 -7 c 0
 534.05 -6.55 496.15 15.2 476 59.1 c 1
 434.85 12.9 374.6 -5 281.9 -5 c 0
 107.65 -5 48.3 74.3 78.3 264.3 c 0
170.3 258 m 0
 143.1 96.05 191 79.5 286.2 79.5 c 0
 383.7 79.5 430.6 92.6 458.8 258 c 0
 486.15 420.6 453.6 451.95 345.75 451.95 c 0
 241.7 451.95 199.35 431.5 170.3 258 c 0
559.9 286.25 m 1
 559.9 286.25 814.05 255.85 835.4 382.75 c 0
 846.5 447.9 807 456.65 727 456.5 c 0
 585.55 456.2 577.1 370.35 559.9 286.25 c 1
EndSplineSet
Substitution2: "'smcp' Lowercase to Small Capitals lookup 16-1" oe.smcp
EndChar

StartChar: OE
Encoding: 353 338 270
Width: 1065
VWidth: 0
Flags: HW
LayerCount: 2
Fore
SplineSet
99.35 364.75 m 0
 153.35 707.75 262.75 737 436.7 737 c 0
 527.9 737 601.05 723.9 642.5 662.05 c 1
 669.05 721.5 717.5 735 775.7 732 c 2
 775.7 732 1071.1 718.4 1088.35 716 c 1
 1076.8 642.25 l 1
 770.3 642.25 l 2
 721.7 642.25 713.3 613.25 709.3 586.25 c 2
 682.05 410.25 l 1
 996.9 400.1 l 1
 985.5 325.8 l 1
 666.8 315.95 l 1
 638.4 138.75 l 2
 631.1 85.75 664.1 86.75 693.1 86.75 c 2
 989.6 86.75 l 1
 977.35 14 l 1
 961.45 11.9 669.7 -3 669.7 -3 c 2
 621.4 -5.85 571.55 12.9 554.1 60.85 c 1
 498.1 6.65 425.3 -4 335.85 -4 c 0
 171.15 -4 46.35 31.75 99.35 364.75 c 0
191.35 361 m 0
 152.9 119.6 199.4 85 341.6 85 c 0
 475.2 85 542.45 126.1 579.35 361 c 0
 623.35 640.65 550 648 430.95 648 c 0
 304.7 648 235.5 642 191.35 361 c 0
EndSplineSet
EndChar

StartChar: guillemotright
Encoding: 187 187 272
Width: 559
VWidth: 0
Flags: HW
LayerCount: 2
Fore
SplineSet
78.75 206.6 m 1
 255.3 357.8 l 1
 129.85 504.3 l 1
 191.05 557 l 1
 368.3 349.75 l 1
 130.9 146 l 1
 78.75 206.6 l 1
279.05 206.6 m 1
 455.6 357.8 l 1
 330 504.3 l 1
 391.2 557 l 1
 568.6 349.75 l 1
 331.2 146 l 1
 279.05 206.6 l 1
EndSplineSet
EndChar

StartChar: cent
Encoding: 162 162 273
Width: 488
VWidth: 0
Flags: HW
LayerCount: 2
Fore
SplineSet
77.6 270.5 m 0
 120.8 521.85 200.25 541.95 308.2 537.7 c 1
 324.2 634 l 1
 391.4 634 l 1
 374.55 533.15 l 1
 422.95 527.45 479.9 518.45 523.8 508.5 c 1
 513.45 445.5 l 1
 513.45 445.5 387.3 453.2 298.3 453.2 c 0
 237.95 453.2 202.35 446.7 168.6 262.3 c 0
 142.8 117.35 172.55 77.8 238.6 77.8 c 0
 330.6 77.8 463.75 88.35 463.75 88.35 c 1
 453.4 23.65 l 1
 393.9 4.4 343.25 -2.6 288.8 -5.15 c 1
 275.65 -95.85 l 1
 208.45 -95.85 l 1
 221.75 -5.85 l 1
 115.4 -4.7 42.2 65.5 77.6 270.5 c 0
EndSplineSet
EndChar

StartChar: sterling
Encoding: 163 163 274
Width: 592
VWidth: 0
Flags: HW
LayerCount: 2
Fore
SplineSet
46.7 0 m 1
 57.95 72.5 l 1
 131.6 89 l 1
 168.6 325.5 l 1
 98.1 325.5 l 1
 106.3 378 l 1
 179.95 396.5 l 1
 197.05 503.5 l 2
 232.2 725.4 338.3 732 468.7 732 c 3
 525.7 732 658.7 716 658.7 716 c 1
 647.45 644 l 1
 460.9 644 l 2
 340.85 644 308.1 623.4 288.75 502.3 c 2
 271.95 396.5 l 1
 526.45 379.5 l 1
 518.1 325.5 l 1
 260.6 325.5 l 1
 223.6 89 l 1
 559.1 89 l 1
 544.7 0 l 1
 46.7 0 l 1
EndSplineSet
Substitution2: "'smcp' Lowercase to Small Capitals lookup 16-1" sterling.smcp
EndChar

StartChar: yen
Encoding: 165 165 275
Width: 610
VWidth: 0
Flags: HW
LayerCount: 2
Fore
SplineSet
109.6 149.25 m 1
 119.65 214.25 l 1
 277.15 214.25 l 1
 283.7 260.5 l 1
 127.05 260.5 l 1
 137.95 325.5 l 1
 281.05 325.5 l 1
 134.5 732 l 1
 232.45 732 l 1
 348 400.35 l 1
 596.2 732 l 1
 706.5 732 l 1
 397.05 325.5 l 1
 564.95 325.5 l 1
 554.05 260.5 l 1
 375.7 260.5 l 1
 369.15 214.25 l 1
 546.65 214.25 l 1
 536.6 149.25 l 1
 360.8 149.25 l 1
 340.8 0 l 1
 248.8 0 l 1
 268.8 149.25 l 1
 109.6 149.25 l 1
EndSplineSet
Substitution2: "'smcp' Lowercase to Small Capitals lookup 16-1" yen.smcp
EndChar

StartChar: section
Encoding: 167 167 276
Width: 548
VWidth: 0
Flags: HW
LayerCount: 2
Fore
SplineSet
89.4 11 m 1
 100.2 78 l 1
 358.4 78 l 2
 390.6 78 417 82.15 423.4 118.55 c 2
 433.05 182.4 l 2
 439.3 220.2 423.95 225.5 386.8 225.5 c 2
 227.75 225.5 l 2
 149 225.5 92.5 264 106.65 351.5 c 2
 115.45 406 l 2
 123 453.3 135.65 488.9 179.85 502 c 1
 141.75 526.8 138.7 558.6 144.55 593 c 2
 154.35 657 l 2
 168.9 752.45 229.75 784 307.4 784 c 3
 363.75 784 539 770.95 579.9 765 c 1
 569.95 698 l 1
 304.95 698 l 2
 272.9 698 252.3 688 246.05 651.9 c 2
 236.55 591.5 l 2
 231.3 557.85 254.95 547.8 280.95 547.8 c 2
 444.65 547.8 l 2
 533.85 547.8 574.4 494.45 562.95 419.6 c 2
 554.15 365.1 l 2
 549.85 335.45 538.8 280.9 493.6 272.5 c 1
 532.35 259.1 530.35 216 525.35 183 c 2
 515.1 114.5 l 2
 498.35 9.85 454.05 -8 356.9 -8 c 3
 298.6 -8 129.25 4.9 89.4 11 c 1
199 356.6 m 2
 192.3 314 209.7 310 244.45 310 c 2
 398.1 310 l 2
 452.9 310 456.65 329.6 460.65 357.6 c 2
 461.65 358.6 469.6 413 469.6 413 c 2
 475.15 445.75 476 464 423 464 c 2
 269.35 464 l 2
 227.4 464 215.2 455.65 207.95 411 c 2
 199 356.6 l 2
EndSplineSet
EndChar

StartChar: g.salt
Encoding: 355 -1 277
Width: 517
VWidth: 0
Flags: HW
LayerCount: 2
Fore
SplineSet
17.65 -113 m 0
 62.05 114 l 0
 67.05 150 89.05 200 139.05 200 c 1
 95.75 229.2 86.05 295.5 94.05 348.5 c 0
 114.5 480.9 191 535 296.05 533 c 2
 399.55 531 l 2
 467.55 530.85 553.35 486.65 533.55 339.5 c 0
 523.25 262.5 476.55 148 334.55 148 c 2
 202.55 148 l 2
 186.55 148 161.7 153 156.7 123.25 c 0
 152.55 98.45 172.15 90.65 193 87.5 c 2
 365.3 62.95 l 2
 433.15 52.9 500.75 2 487.15 -81.5 c 2
 481.55 -117.5 l 2
 470.1 -190.35 450.05 -270 303.05 -270 c 2
 168.55 -270 l 2
 58.15 -270 -1.35 -209 17.65 -113 c 0
110.8 -111.5 m 2
 96.6 -180.55 142.05 -184.2 178.05 -184.2 c 2
 311.55 -184.2 l 2
 365.3 -184.2 383.75 -155.65 390.15 -113 c 2
 394.55 -87.55 l 2
 401.1 -43.4 373.3 -23.55 326.2 -16 c 2
 136.65 12 l 1
 110.8 -111.5 l 2
186.05 344 m 0
 178.05 295 183.7 232 254.55 232 c 2
 342.05 232 l 2
 410.45 232 435.7 306.6 441.55 344 c 0
 450.55 399 443.6 450 376.2 450 c 2
 288.7 450 l 2
 214.5 450 195.05 396 186.05 344 c 0
EndSplineSet
EndChar

StartChar: guillemotleft
Encoding: 171 171 278
Width: 562
VWidth: 0
Flags: HW
LayerCount: 2
Fore
SplineSet
102.7 354 m 1
 340.7 557 l 1
 392.1 496.85 l 1
 216 346.55 l 1
 342.95 197.65 l 1
 280.7 146 l 1
 102.7 354 l 1
299.6 354 m 1
 537.6 557 l 1
 589 496.85 l 1
 412.9 346.55 l 1
 539.85 197.65 l 1
 477.6 146 l 1
 299.6 354 l 1
EndSplineSet
EndChar

StartChar: paragraph
Encoding: 182 182 279
Width: 579
VWidth: 0
Flags: HW
LayerCount: 2
Fore
SplineSet
115.45 502.3 m 2
 129.45 595.3 l 2
 147 706.45 229.6 732 309.15 732 c 2
 677.15 732 l 1
 663.95 648.5 l 1
 599.45 648.5 l 1
 496.65 0 l 1
 415.15 0 l 1
 518.1 650.5 l 1
 431.6 650.5 l 1
 285.8 -270 l 1
 204.3 -270 l 1
 306.15 372 l 1
 300.15 370 272.55 355 245.9 355 c 3
 136.15 355 105.15 437.9 115.45 502.3 c 2
198.25 503.7 m 2
 188 438.35 235.85 436.5 260.45 436.5 c 10
 315.5 436.5 l 25
 350.1 653.05 l 25
 297.6 653.05 l 2
 236.35 653.05 217.2 626.35 211.05 585.2 c 10
 198.25 503.7 l 2
EndSplineSet
EndChar

StartChar: macron
Encoding: 175 175 280
Width: 385
VWidth: 0
Flags: W
HStem: 531 67.5<141.45 422.7>
VStem: 130.7 302.75
LayerCount: 2
Fore
SplineSet
130.7 531 m 1
 141.45 598.5 l 1
 433.45 598.5 l 1
 422.7 531 l 1
 130.7 531 l 1
EndSplineSet
Substitution2: "'smcp' Lowercase to Small Capitals lookup 16-1" macron.smcp
EndChar

StartChar: copyright
Encoding: 169 169 281
Width: 802
VWidth: 0
Flags: HW
LayerCount: 2
Fore
SplineSet
106.7 371 m 0
 134.3 551.55 201.35 732 398.9 732 c 2
 649.9 732 l 2
 843.55 732 834.3 501.15 812.2 363.5 c 0
 779.7 160.6 694.15 0 543.15 0 c 2
 292.15 0 l 2
 100 0 87.85 246.9 106.7 371 c 0
178.2 368 m 0
 154.9 222.6 181.8 70 295.8 70 c 2
 550.4 70 l 2
 630.2 70 708.7 164 740.7 368 c 0
 759.7 488 778.65 662 647.65 662 c 2
 388.15 662 l 2
 300 662 215.6 605.95 178.2 368 c 0
284.2 367.55 m 0
 312.75 542.15 379.85 583 462.2 583 c 3
 503.2 583 583.55 570.8 637.7 559 c 1
 628.8 501 l 1
 566.8 510 490.3 513 457.3 513 c 3
 403.3 513 371.4 465.5 354.7 362 c 0
 341.7 278 347 217 411.3 217 c 27
 481.35 217 555.85 227.55 592.6 233 c 1
 583.7 175 l 17
 518.35 155.5 461.55 147 394.55 147 c 3
 315.55 147 258.75 210.1 284.2 367.55 c 0
EndSplineSet
EndChar

StartChar: registered
Encoding: 174 174 282
Width: 802
VWidth: 0
Flags: HW
LayerCount: 2
Fore
SplineSet
106.7 371 m 0
 134.3 551.55 201.35 732 398.9 732 c 2
 649.9 732 l 2
 843.55 732 834.3 501.15 812.2 363.5 c 0
 779.7 160.6 694.15 0 543.15 0 c 2
 292.15 0 l 2
 100 0 87.85 246.9 106.7 371 c 0
178.2 368 m 0
 154.9 222.6 181.8 70 295.8 70 c 2
 550.4 70 l 2
 630.2 70 708.7 164 740.7 368 c 0
 759.7 488 778.65 662 647.65 662 c 2
 388.15 662 l 2
 300 662 215.6 605.95 178.2 368 c 0
278.55 153 m 1
 346.55 580 l 1
 525.05 580 l 2
 579.15 580 651.65 555.55 637.9 445.4 c 0
 624.2 327.6 563.5 327.85 526.55 319.5 c 1
 589.8 153 l 1
 510.45 153 l 1
 448.1 320 l 1
 378.6 332 l 1
 350.05 153 l 1
 278.55 153 l 1
386.5 382 m 1
 493.5 382 l 2
 545.5 382 557.85 393.65 566.4 449.5 c 0
 575.65 507.85 542.85 510 514 510 c 2
 407 510 l 1
 386.5 382 l 1
EndSplineSet
EndChar

StartChar: plusminus
Encoding: 177 177 283
Width: 519
VWidth: 0
Flags: HW
LayerCount: 2
Fore
SplineSet
64.8 82.5 m 1
 78.6 168.5 l 1
 494.6 168.5 l 1
 480.8 82.5 l 1
 64.8 82.5 l 1
113.4 385.5 m 1
 126.35 471.5 l 1
 290.35 471.5 l 1
 316.45 636.5 l 1
 402.45 636.5 l 1
 376.35 471.5 l 1
 542.35 471.5 l 1
 529.4 385.5 l 1
 363.4 385.5 l 1
 336.45 220.5 l 1
 250.45 220.5 l 1
 277.4 385.5 l 1
 113.4 385.5 l 1
EndSplineSet
EndChar

StartChar: logicalnot
Encoding: 172 172 284
Width: 517
VWidth: 0
Flags: HW
LayerCount: 2
Fore
SplineSet
84.75 251.5 m 1
 98.4 336 l 1
 525.4 336 l 1
 516.4 279 506.35 216 497.35 159 c 1
 412.85 159 l 1
 427.25 251.5 l 1
 84.75 251.5 l 1
EndSplineSet
EndChar

StartChar: guilsinglleft
Encoding: 356 8249 285
Width: 297
VWidth: 0
Flags: HW
LayerCount: 2
Fore
SplineSet
33.05 354 m 1
 271.05 557 l 1
 322.45 496.85 l 1
 147.85 348.05 l 1
 273.3 200.65 l 1
 211.05 146 l 1
 33.05 354 l 1
EndSplineSet
EndChar

StartChar: guilsinglright
Encoding: 357 8250 286
Width: 359
VWidth: 0
Flags: HW
LayerCount: 2
Fore
SplineSet
102.7 206.6 m 1
 277.45 355.7 l 1
 152.3 502.8 l 1
 215 557 l 1
 392.25 349.75 l 1
 153.5 146 l 1
 102.7 206.6 l 1
EndSplineSet
EndChar

StartChar: perthousand
Encoding: 358 8240 287
Width: 1342
VWidth: 0
Flags: HW
LayerCount: 2
Fore
SplineSet
80.9 477.75 m 2
 101.45 607.75 l 2
 114.45 691.05 142.6 732 252.1 732 c 2
 353.1 732 l 2
 440.9 732 475.3 693.35 461.45 603.25 c 2
 440.9 473.25 l 18
 426.2 381.45 394.65 349 291.1 349 c 2
 190.1 349 l 2
 111.65 349 67.9 393.6 80.9 477.75 c 2
155.65 480 m 2
 148.4 435.05 160.3 423 205.2 423 c 2
 298.7 423 l 2
 350.55 423 360.4 435.9 367.65 480 c 10
 386.7 601 l 2
 394.25 647.6 389.2 658 337.85 658 c 2
 244.35 658 l 2
 191.75 658 181.4 644.35 174.7 601 c 2
 155.65 480 l 2
188.05 0 m 1
 744.45 732 l 1
 823.4 732 l 1
 268.05 0 l 1
 188.05 0 l 1
552.05 129.2 m 2
 572.6 259.2 l 2
 585.6 342.5 613.6 383.45 723.1 383.45 c 2
 824.25 383.45 l 2
 912.05 383.45 946.45 344.8 932.6 254.7 c 2
 912.05 124.7 l 18
 897.35 32.9 864.95 0.45 761.4 0.45 c 2
 660.25 0.45 l 2
 581.8 0.45 539.05 45.05 552.05 129.2 c 2
626.8 131.45 m 2
 619.55 86.5 630.75 74.45 675.65 74.45 c 2
 769 74.45 l 2
 820.85 74.45 831.55 87.35 838.8 131.45 c 10
 857.85 252.45 l 2
 865.4 299.05 859.5 309.45 808.15 309.45 c 2
 714.8 309.45 l 2
 662.2 309.45 652.55 295.8 645.85 252.45 c 2
 626.8 131.45 l 2
973.95 129.2 m 2
 994.5 259.2 l 2
 1007.5 342.5 1035.65 383.45 1145.15 383.45 c 2
 1246.15 383.45 l 2
 1333.95 383.45 1368.35 344.8 1354.5 254.7 c 2
 1333.95 124.7 l 18
 1319.25 32.9 1286.85 0.45 1183.3 0.45 c 2
 1082.3 0.45 l 2
 1003.85 0.45 960.95 45.05 973.95 129.2 c 2
1048.7 131.45 m 2
 1041.45 86.5 1052.65 74.45 1097.55 74.45 c 2
 1191.05 74.45 l 2
 1242.9 74.45 1253.45 87.35 1260.7 131.45 c 10
 1279.75 252.45 l 2
 1287.3 299.05 1281.55 309.45 1230.2 309.45 c 2
 1136.7 309.45 l 2
 1084.1 309.45 1074.45 295.8 1067.75 252.45 c 2
 1048.7 131.45 l 2
EndSplineSet
Substitution2: "'smcp' Lowercase to Small Capitals lookup 16-1" perthousand.smcp
EndChar

StartChar: dagger
Encoding: 359 8224 288
Width: 479
VWidth: 0
Flags: HW
LayerCount: 2
Fore
SplineSet
110.6 479.25 m 1
 121.85 551.75 l 1
 256.85 562.5 l 1
 298.85 770 l 1
 378.35 770 l 1
 353.85 562.5 l 1
 483.85 551.75 l 1
 472.6 479.25 l 1
 338.6 468.5 l 1
 243.35 -72 l 1
 163.85 -72 l 1
 241.6 468.5 l 1
 110.6 479.25 l 1
EndSplineSet
EndChar

StartChar: daggerdbl
Encoding: 360 8225 289
Width: 449
VWidth: 0
Flags: HW
LayerCount: 2
Fore
SplineSet
94.15 166.5 m 1
 105.4 239 l 1
 241.85 250.35 l 1
 274.7 468.5 l 1
 143.85 479.25 l 1
 154.95 551.75 l 1
 290.1 562.5 l 1
 331.95 770 l 1
 410.6 770 l 1
 387.1 562.5 l 1
 516.95 551.75 l 1
 505.85 479.25 l 1
 371.7 468.5 l 1
 334.4 250.2 l 1
 467.4 239 l 1
 456.15 166.5 l 1
 316.4 155.45 l 1
 276.6 -72 l 1
 197.1 -72 l 1
 228.75 155.15 l 1
 94.15 166.5 l 1
EndSplineSet
EndChar

StartChar: trademark
Encoding: 361 8482 290
Width: 634
VWidth: 0
Flags: HW
LayerCount: 2
Fore
SplineSet
44.45 663.5 m 1
 55.2 732 l 1
 320.2 732 l 1
 309.45 663.5 l 1
 213.2 663.5 l 1
 168.95 383 l 1
 97.45 383 l 1
 141.7 663.5 l 1
 44.45 663.5 l 1
298.2 383 m 1
 383.2 732 l 1
 450.65 732 l 1
 499.25 501.8 l 1
 606.8 732 l 1
 684.2 732 l 1
 663.2 383 l 1
 591.7 383 l 1
 605.5 580.2 l 1
 515.35 383 l 1
 454.85 383 l 1
 415.8 580.75 l 1
 369.7 383 l 1
 298.2 383 l 1
EndSplineSet
EndChar

StartChar: notequal
Encoding: 362 8800 291
Width: 530
VWidth: 0
Flags: HW
LayerCount: 2
Fore
SplineSet
123.05 204.5 m 1
 137.7 294.75 l 1
 285.6 294.75 l 1
 374.4 410.75 l 1
 155.5 410.75 l 1
 170.15 501 l 1
 442.05 501 l 1
 497.8 573.45 l 1
 561.8 573.45 l 1
 506.05 501 l 1
 597.15 501 l 1
 582.5 410.75 l 1
 438.4 410.75 l 1
 349.6 294.75 l 1
 564.7 294.75 l 1
 550.05 204.5 l 1
 280.95 204.5 l 1
 217.35 121.05 l 1
 153.35 121.05 l 1
 216.95 204.5 l 1
 123.05 204.5 l 1
EndSplineSet
EndChar

StartChar: infinity
Encoding: 363 8734 292
Width: 678
VWidth: 0
Flags: HW
LayerCount: 2
Fore
SplineSet
51.9 344 m 0
 59.95 437.8 115.4 514 253.4 514 c 3
 320.9 514 374.55 470 404.75 411.7 c 1
 451.9 470.9 514.4 514 590.4 514 c 3
 721.6 514 747.65 425.85 737.9 338 c 0
 727.15 240.9 670.05 169 535.4 169 c 3
 471.55 169 415.8 196 381.7 273.7 c 1
 341.25 211.3 286 169 198.4 169 c 3
 78.2 169 44.55 262.2 51.9 344 c 0
134.75 341 m 0
 129.05 294.3 141.55 250.35 213.55 250.35 c 3
 277.3 250.35 316.2 295.75 354.05 341 c 1
 331.85 387.25 293.25 432.65 242.3 432.65 c 3
 161.75 432.65 140.45 391.1 134.75 341 c 0
435 340.85 m 1
 458.05 295.6 482.6 250.35 546.35 250.35 c 3
 617.2 250.35 646.8 290.05 655.05 341 c 0
 663.3 391.95 655.5 432.65 575.1 432.65 c 3
 522.65 432.65 472 387.1 435 340.85 c 1
EndSplineSet
EndChar

StartChar: lessequal
Encoding: 364 8804 293
Width: 546
VWidth: 0
Flags: W
HStem: 97.85 83<110.05 472.4>
DStem2: 252.2 439.15 143.4 397 0.903848 -0.427853<0 281.762> 158.5 490.5 252.2 439.15 0.932963 0.359972<68.9341 380.621>
LayerCount: 2
Fore
SplineSet
96.7 97.85 m 1
 110.05 180.85 l 1
 485.75 180.85 l 1
 472.4 97.85 l 1
 96.7 97.85 l 1
143.4 397 m 1
 158.5 490.5 l 1
 558.15 644.7 l 1
 543.05 551.2 l 1
 252.2 439.15 l 1
 507.7 320.35 l 1
 492.6 231.7 l 1
 143.4 397 l 1
EndSplineSet
EndChar

StartChar: greaterequal
Encoding: 365 8805 294
Width: 444
VWidth: 0
Flags: HW
LayerCount: 2
Fore
SplineSet
61.65 97.85 m 1
 75 180.85 l 1
 450.85 180.85 l 1
 437.5 97.85 l 1
 61.65 97.85 l 1
81.7 228.3 m 1
 96.8 323.5 l 1
 394.05 441.7 l 1
 132.15 556.9 l 1
 147.25 641.3 l 1
 497.6 487.1 l 1
 482.5 393.6 l 1
 81.7 228.3 l 1
EndSplineSet
EndChar

StartChar: circumflex
Encoding: 366 710 295
Width: 327
VWidth: 0
Flags: HW
LayerCount: 2
Fore
SplineSet
61.65 531 m 1
 197.25 662.5 l 1
 277.25 662.5 l 1
 358.15 531 l 1
 286.25 531 l 1
 233.15 609.2 l 1
 147.95 531 l 1
 61.65 531 l 1
EndSplineSet
Substitution2: "'smcp' Lowercase to Small Capitals lookup 16-1" circumflex.smcp
EndChar

StartChar: tilde
Encoding: 367 732 296
Width: 437
VWidth: 0
Flags: HW
LayerCount: 2
Fore
SplineSet
130.7 575.9 m 17
 173.6 609.35 216.5 641.4 259.75 641.4 c 1
 308.85 638.85 329.95 608.1 359.75 607.25 c 1
 386.15 606.1 450.75 635.3 459.75 642.15 c 9
 474.6 595.35 l 17
 434 567.45 393.95 531 348.9 531.85 c 1
 294.85 532.7 282.15 566.85 245.7 566 c 1
 202.45 565.15 178.3 546.5 145.85 531 c 9
 130.7 575.9 l 17
EndSplineSet
Substitution2: "'smcp' Lowercase to Small Capitals lookup 16-1" tilde.smcp
EndChar

StartChar: ring
Encoding: 368 730 297
Width: 292
VWidth: 0
Flags: HW
LayerCount: 2
Fore
SplineSet
137.549 632 m 0
 142.537 689 192.258 734.55 248.258 734.55 c 0
 304.258 734.55 345.537 689 340.549 632 c 0
 335.56 575 287.064 530.3 231.064 530.3 c 0
 175.064 530.3 132.56 575 137.549 632 c 0
187.699 632 m 24
 185.168 603.65 206.733 581.15 235.083 581.15 c 27
 263.433 581.15 287.868 603.65 290.399 632 c 24
 292.93 660.35 272.438 683.85 244.088 683.85 c 27
 215.738 683.85 190.23 660.35 187.699 632 c 24
EndSplineSet
Substitution2: "'smcp' Lowercase to Small Capitals lookup 16-1" ring.smcp
EndChar

StartChar: ellipsis
Encoding: 369 8230 298
Width: 769
VWidth: 0
Flags: HW
LayerCount: 2
Fore
SplineSet
142.003 23 m 2
 152.48 89 l 2
 155.01 104 164.514 114 180.514 114 c 2
 242.514 114 l 2
 260.514 114 266.026 105 263.48 89 c 2
 253.003 23 l 2
 249.877 5 238.7 0 224.7 0 c 2
 162.7 0 l 2
 148.7 0 140.188 9 142.003 23 c 2
414.003 23 m 2
 424.48 89 l 2
 427.01 104 436.514 114 452.514 114 c 2
 514.514 114 l 2
 532.514 114 538.026 105 535.48 89 c 2
 525.003 23 l 2
 521.877 5 510.7 0 496.7 0 c 2
 434.7 0 l 2
 420.7 0 412.188 9 414.003 23 c 2
686.003 23 m 2
 696.48 89 l 2
 699.01 104 708.514 114 724.514 114 c 2
 786.514 114 l 2
 804.514 114 810.026 105 807.48 89 c 2
 797.003 23 l 2
 793.877 5 782.7 0 768.7 0 c 2
 706.7 0 l 2
 692.7 0 684.188 9 686.003 23 c 2
EndSplineSet
EndChar

StartChar: fraction
Encoding: 370 8260 299
Width: 257
VWidth: 0
Flags: HW
LayerCount: 2
Fore
SplineSet
-84.15 0 m 1
 383.391 737.7 l 1
 458.291 737.7 l 1
 -9.25 0 l 1
 -84.15 0 l 1
EndSplineSet
EndChar

StartChar: dotlessi
Encoding: 371 305 300
Width: 203
VWidth: 0
Flags: HW
LayerCount: 2
Fore
SplineSet
54 0 m 1
 138 531 l 1
 230 531 l 1
 146 0 l 1
 54 0 l 1
EndSplineSet
EndChar

StartChar: fi
Encoding: 372 64257 301
Width: 584
VWidth: 0
Flags: HW
LayerCount: 2
Fore
SplineSet
56.1 448 m 1
 66.6 514 l 1
 164.4 531 l 1
 173.15 584.9 l 2
 193 711 277.95 785.4 406.25 786 c 1
 458.65 786.15 557.05 769.25 602.4 753.5 c 1
 592.9 695.2 l 1
 591.9 695.2 419.45 704.7 419.45 704.7 c 2
 362.65 708.1 280.35 685.35 263.65 578.9 c 2
 256.4 531 l 1
 610.95 521 l 1
 528.8 0 l 1
 435.95 0 l 1
 506.6 448 l 1
 241.35 448 l 1
 170.7 0 l 1
 78.7 0 l 1
 149.35 448 l 1
 56.1 448 l 1
EndSplineSet
Ligature2: "'liga' Standard Ligatures lookup 15-1" f i
EndChar

StartChar: fl
Encoding: 373 64258 302
Width: 690
VWidth: 0
Flags: HW
LayerCount: 2
Fore
SplineSet
89.15 448 m 1
 99.65 512.3 l 1
 199.15 531 l 1
 205.75 568.95 l 2
 231.35 730.15 309.95 784.3 426.55 784.3 c 1
 699.3 783.85 l 1
 606.2 195 l 2
 590.95 100.5 608.2 92.45 644.35 83 c 1
 644.35 83 713.1 64.55 715 64.55 c 1
 704.65 0 l 1
 630.65 0 l 2
 545.85 0 491.3 48.85 513.3 189 c 2
 594.8 702.85 l 1
 588.05 702.85 423.75 703 423.75 703 c 2
 357.6 703 312.8 673.65 296.85 567.45 c 2
 291.15 531 l 1
 446.1 531 l 1
 432.75 448 l 1
 276.95 448 l 1
 202.9 0 l 1
 110.9 0 l 1
 184.1 448 l 1
 89.15 448 l 1
EndSplineSet
Ligature2: "'liga' Standard Ligatures lookup 15-1" f l
EndChar

StartChar: exclamdown.alt
Encoding: 374 -1 303
Width: 312
VWidth: 0
Flags: HW
LayerCount: 2
Fore
SplineSet
89.15 -39.65 m 1
 181.4 491.95 l 1
 267.2 491.95 l 1
 192.7 -39.65 l 1
 89.15 -39.65 l 1
190.9 605.2 m 2
 200.4 668.35 l 2
 202.4 682.35 214.4 690.35 228.4 691.35 c 1
 287.15 691.35 l 1
 299.15 690.35 309.15 679.35 307.15 665.35 c 2
 297.65 605.2 l 1
 294.8 593.05 287.8 583.3 273.35 579.9 c 1
 208.35 579.9 l 1
 195.35 580.75 189.6 590.45 190.9 605.2 c 2
EndSplineSet
EndChar

StartChar: ampersand.salt
Encoding: 375 -1 304
Width: 954
VWidth: 0
Flags: HW
LayerCount: 2
Fore
SplineSet
87.65 298.15 m 2
 101.2 386.25 l 2
 124.5 537 207.1 550.2 349.35 550.5 c 1
 787.35 550.5 l 1
 827.45 692.9 l 1
 901.45 692.9 l 1
 879.35 550.2 l 1
 1022.35 550.2 l 1
 1011.7 485.8 l 1
 865.7 465.95 l 1
 822.7 191.05 l 2
 797.5 32 668.15 -0.3 551.7 -0.3 c 2
 391.1 -0.3 l 0
 300.55 -0.15 204.05 24.8 219.65 156.25 c 1
 137.25 156.25 73 203.55 87.65 298.15 c 2
179.5 296.5 m 2
 171.8 250.45 189.4 239.15 232.3 238.3 c 1
 251.45 358.9 319.9 404 433.15 404 c 2
 547.15 404 l 1
 603.5 404 689.65 389.8 674.6 275.95 c 1
 657 165.9 613.5 156.45 507.5 156.45 c 2
 311.95 156.45 l 1
 301.45 81.55 352.3 87.8 401.4 85.25 c 1
 564.65 85.25 l 2
 647.65 85.25 719.3 122.7 730.85 196 c 2
 773.55 465.8 l 1
 337.05 465.8 l 0
 243.45 464.1 205.6 460.2 193.2 383.25 c 2
 179.5 296.5 l 2
324.3 238 m 1
 519.55 238 l 2
 562.15 238 576.65 236.9 583.05 279.25 c 0
 588.45 315.35 583 321.6 533.2 321.6 c 2
 421.45 321.6 l 2
 368.9 321.6 337.1 314.8 324.3 238 c 1
EndSplineSet
EndChar

StartChar: a.superior
Encoding: 376 -1 305
Width: 404
VWidth: 0
Flags: W
HStem: 363.25 69.25<186.424 299.922>
VStem: 366.15 47.85<368.25 392.29>
DStem2: 356 475.25 414 368.25 0.146604 0.989195<-15.4677 186.888>
LayerCount: 2
Fore
SplineSet
113.3 557.2 m 0
 137.8 707.05 213.7 730.7 267.15 734.1 c 0
 317.95 737.5 427.4 723.1 461.7 690.1 c 1
 414 368.25 l 1
 366.15 368.25 l 1
 350.95 420.45 l 17
 331.4 398.9 275.5 363.25 214.85 363.25 c 3
 139.55 363.25 89.4 407.05 113.3 557.2 c 0
183.7 550.2 m 0
 170.9 464.85 180.35 432.5 226.1 432.5 c 3
 271.1 432.5 316.6 452.85 356 475.25 c 1
 384.75 658.25 l 1
 347.65 668.2 297.1 671.9 270.5 668.9 c 0
 242.85 665.75 198.35 652.35 183.7 550.2 c 0
EndSplineSet
EndChar

StartChar: b.superior
Encoding: 377 -1 306
Width: 422
VWidth: 0
Flags: W
HStem: 371.9 70.4<234.259 358.213> 669.5 68.45<259.568 391.029>
DStem2: 113.15 375.9 202.65 468.9 0.15649 0.987679<100.589 301.023 348.855 530.385>
LayerCount: 2
Fore
SplineSet
113.15 375.9 m 1
 196.15 899.75 l 1
 270.6 899.75 l 1
 240.05 709 l 1
 287.6 728.25 335.8 737.95 369.5 737.95 c 3
 482 737.95 479.4 624.6 471.3 548.3 c 0
 461.35 452.85 416.9 371.9 311.35 371.9 c 3
 261.55 371.9 213.5 404.05 194.6 419.7 c 9
 165.75 375.9 l 1
 113.15 375.9 l 1
202.65 468.9 m 1
 236.55 455.5 256.8 442.3 310.1 442.3 c 3
 354.6 442.3 389.55 485.15 397 553.55 c 0
 408 653.85 389.65 669.5 346 669.5 c 1
 294.15 669.5 279.1 663.95 232 653.4 c 1
 202.65 468.9 l 1
EndSplineSet
Ligature2: "'ordn' Ordinals lookup 21-1" b
EndChar

StartChar: c.superior
Encoding: 378 -1 307
Width: 366
VWidth: 0
Flags: W
HStem: 371.2 68.9<205.475 395.297> 665.7 68.9<232.042 440.25>
LayerCount: 2
Fore
SplineSet
126.95 555.9 m 0
 153.2 718.55 210.35 734.6 285.75 734.6 c 3
 324.45 734.6 395.15 724.65 446.75 712.7 c 1
 438.7 660.85 l 1
 438.7 660.85 358.9 665.7 293.1 665.7 c 3
 248.1 665.7 218.8 663.85 200.7 551.05 c 0
 186.15 458.25 204.25 440.1 257.35 440.1 c 3
 325.15 440.1 409.95 446.65 409.95 446.65 c 1
 401.05 394.25 l 17
 338.85 376.05 303.9 371.05 237.25 371.2 c 0
 157.9 371.35 104.95 423 126.95 555.9 c 0
EndSplineSet
Ligature2: "'ordn' Ordinals lookup 21-1" c
EndChar

StartChar: d.superior
Encoding: 379 -1 308
Width: 422
VWidth: 0
Flags: W
HStem: 371.9 70.4<209.539 319.292> 670.35 68.45<235.082 390.788>
VStem: 374.8 52.6<375.9 397.341>
DStem2: 369.4 478.25 427.4 375.9 0.157554 0.98751<-17.1069 183.053 234.781 428.801>
LayerCount: 2
Fore
SplineSet
127.1 557.4 m 0
 140.85 650.2 174.55 738.8 287.05 738.8 c 3
 320.75 738.8 366.1 729.1 407.95 709.85 c 1
 438.5 901.45 l 1
 511.25 901.45 l 1
 427.4 375.9 l 1
 374.8 375.9 l 1
 360.5 419.7 l 17
 331.9 398.1 288.05 371.9 238.25 371.9 c 3
 128.45 371.9 117 490.65 127.1 557.4 c 0
201.85 554.4 m 0
 191 473.25 208.35 442.3 252.85 442.3 c 3
 306.15 442.3 330.65 455.5 369.4 478.25 c 1
 397.9 658.5 l 1
 350.25 667.35 341.45 670.35 289.6 670.35 c 1
 245.95 670.35 215.4 653 201.85 554.4 c 0
EndSplineSet
Ligature2: "'ordn' Ordinals lookup 21-1" d
EndChar

StartChar: e.superior
Encoding: 380 -1 309
Width: 408
VWidth: 0
Flags: W
HStem: 364.95 65.8<198.325 410.285> 669.95 65.95<236.693 388.456>
LayerCount: 2
Fore
SplineSet
129.8 561.5 m 0
 148.95 678 181.95 735.75 314.7 735.9 c 1
 404.7 736.05 476.85 712.2 466.9 625.95 c 0
 449.55 475.15 221.2 505.7 196.35 515.85 c 1
 184.7 447.5 201.9 431.6 237 430.75 c 1
 285 427.35 370.75 433.2 420.75 440.75 c 1
 412.95 385.25 l 17
 356.4 368.8 280.15 363.3 217.6 364.95 c 0
 130.3 366.6 108.35 429.1 129.8 561.5 c 0
201.65 568 m 0
 201.65 568 379.4 536.35 394.5 622.85 c 0
 401.9 666.65 357.45 669.95 310.4 669.95 c 1
 223.4 669.95 213.3 626.6 201.65 568 c 0
EndSplineSet
Ligature2: "'ordn' Ordinals lookup 21-1" e
EndChar

StartChar: f.superior
Encoding: 381 -1 310
Width: 313
VWidth: 0
Flags: W
HStem: 664.05 67.85<276.55 367.4> 664.05 54.85<129 171.735> 836.3 64.45<300.394 422.633>
VStem: 120.1 312.35
DStem2: 143.4 375.9 218 375.9 0.163413 0.986558<12.1906 291.785 372.973 475.767>
LayerCount: 2
Fore
SplineSet
120.1 664.05 m 1x70
 129 718.9 l 1x70
 201.65 730.8 l 1
 209.25 773.45 l 2
 217.2 816.95 241.25 900.75 331.1 900.75 c 0
 367.95 900.75 398.65 894.35 432.45 883.6 c 1
 422.7 836.15 l 1
 422.55 836.15 339.4 836.3 339.4 836.3 c 2
 292.9 836.45 287.1 793.85 282.1 762.4 c 2
 276.55 731.9 l 1
 378.3 731.9 l 1
 367.4 664.05 l 1xb0
 263.95 664.05 l 9
 218 375.9 l 17
 143.4 375.9 l 1
 189.35 664.05 l 1
 120.1 664.05 l 1x70
EndSplineSet
Ligature2: "'ordn' Ordinals lookup 21-1" f
EndChar

StartChar: g.superior
Encoding: 382 -1 311
Width: 407
VWidth: 0
Flags: W
HStem: 207.3 51.25<102 175.441> 367.8 67.75<212.56 353.511> 669.8 68<243.847 409.3>
DStem2: 356.65 320.8 429.25 309.4 0.156557 0.987669<-54.3128 76.0942 123.009 353.315>
LayerCount: 2
Fore
SplineSet
93.65 207.3 m 1
 102 258.55 l 1
 283.25 258.55 l 2
 322.95 258.55 349.8 279.25 356.65 320.8 c 2
 368.6 395.95 l 1
 322.4 375.8 279.15 367.8 245.3 367.8 c 3
 141.95 367.8 109.85 459.7 128.3 566.2 c 0
 150.15 688.55 209.05 737.8 297.65 737.8 c 3
 377.35 737.8 458.9 724.25 494.2 719.15 c 1
 429.25 309.4 l 2
 414.1 215.5 345.5 184.8 280.6 191.3 c 2
 93.65 207.3 l 1
203.05 556 m 0
 195.45 516.75 186.1 435.55 260.2 435.55 c 3
 309.75 435.55 320.9 437.4 376.65 450.35 c 1
 411.7 669.8 l 2
 297.25 669.8 l 2
 223.4 669.8 210.75 593 203.05 556 c 0
EndSplineSet
Ligature2: "'ordn' Ordinals lookup 21-1" g
EndChar

StartChar: h.superior
Encoding: 383 -1 312
Width: 439
VWidth: 0
Flags: W
HStem: 668.45 69.05<299.513 407.16>
DStem2: 119.95 375.9 194.55 375.9 0.156826 0.987626<11.6992 286.911 324.386 529.249> 376.9 375.9 451.5 375.9 0.155776 0.987792<11.6209 281.786>
LayerCount: 2
Fore
SplineSet
119.95 375.9 m 1
 202.95 898.6 l 1
 277.4 898.6 l 1
 243.7 684.7 l 1
 289.95 710.1 326.75 737.5 387.45 737.5 c 3
 470.45 737.5 499.5 681.9 490.05 620.35 c 2
 451.5 375.9 l 9
 376.9 375.9 l 17
 413.6 609.8 l 2
 420.15 650.4 395.6 668.45 362.75 668.45 c 3
 313.25 668.45 290.15 657.35 235.8 634.4 c 1
 194.55 375.9 l 1
 119.95 375.9 l 1
EndSplineSet
Ligature2: "'ordn' Ordinals lookup 21-1" h
EndChar

StartChar: i.superior
Encoding: 384 -1 313
Width: 196
VWidth: 0
Flags: W
HStem: 711.9 20G<170.954 248.7> 776.45 85.75<188.984 267.579>
VStem: 118.1 157
DStem2: 118.1 375.9 192.7 375.9 0.150626 0.988591<11.2367 360.373 413.302 495.156>
LayerCount: 2
Fore
SplineSet
118.1 375.9 m 1
 174.1 731.9 l 1
 248.7 731.9 l 1
 192.7 375.9 l 1
 118.1 375.9 l 1
181.25 793.45 m 2
 189.3 843.2 l 2
 191.3 854.2 198.3 862.2 210.3 862.2 c 2
 261.25 862.2 l 2
 272.25 862.2 277.1 854.2 275.1 843.2 c 2
 267.05 793.45 l 2
 265.05 782.45 258.2 776.45 247.2 776.45 c 2
 196.25 776.45 l 2
 185.25 776.45 179.25 782.45 181.25 793.45 c 2
EndSplineSet
Ligature2: "'ordn' Ordinals lookup 21-1" i
EndChar

StartChar: j.superior
Encoding: 385 -1 314
Width: 197
VWidth: 0
Flags: W
HStem: 776.15 86.75<189.834 268.447>
VStem: 89.4 186.7
DStem2: 89.4 193.75 193.7 372.75 0.153136 0.988205<11.4348 543.683 597.818 680.221>
LayerCount: 2
Fore
SplineSet
89.4 193.75 m 1
 174.4 730.75 l 1
 250.7 730.75 l 1
 193.7 372.75 l 2
 185.7 314.75 172.85 254.25 144.45 193.75 c 1
 89.4 193.75 l 1
182.1 794 m 2
 190.15 843.9 l 2
 192.15 854.9 199.15 862.9 211.15 862.9 c 2
 262.1 862.9 l 2
 273.1 862.9 278.1 854.9 276.1 843.9 c 2
 268.05 794 l 2
 266.05 783 259.05 776.15 248.05 776.15 c 2
 197.1 776.15 l 2
 186.1 776.15 180.1 783 182.1 794 c 2
EndSplineSet
Ligature2: "'ordn' Ordinals lookup 21-1" j
EndChar

StartChar: k.superior
Encoding: 386 -1 315
Width: 374
VWidth: 0
Flags: W
HStem: 715.55 20G<387.15 475.7>
VStem: 393.7 82<696.57 735.55>
DStem2: 119.95 375.9 194.55 375.9 0.157325 0.987547<11.7365 187.831 232.566 527.57> 320.2 566.35 244.3 550 0.577154 -0.816635<0 180.779>
LayerCount: 2
Fore
SplineSet
119.95 375.9 m 1
 202.95 896.9 l 1
 277.55 896.9 l 1
 228.85 594.05 l 1
 288.85 612.35 380.6 682.75 393.7 735.55 c 1
 475.7 735.55 l 1
 453.8 658.65 364.85 586.65 320.2 566.35 c 1
 454.8 375.9 l 1
 363.95 375.9 l 1
 244.3 550 l 1
 221.95 549.85 l 9
 194.55 375.9 l 17
 119.95 375.9 l 1
EndSplineSet
Ligature2: "'ordn' Ordinals lookup 21-1" k
EndChar

StartChar: l.superior
Encoding: 387 -1 316
Width: 245
VWidth: 0
Flags: W
HStem: 375.9 50.15<224.019 291.95>
DStem2: 139.95 506.15 216.15 513.95 0.156319 0.987707<-43.4709 396.626>
LayerCount: 2
Fore
SplineSet
139.95 506.15 m 2
 201.95 897.9 l 1
 276.7 897.9 l 1
 216.15 513.95 l 2
 207.45 458.75 213.6 448.05 242.2 440.05 c 2
 242.2 440.05 294.85 426.05 299.85 426.05 c 1
 291.95 375.9 l 1
 223 375.9 l 2
 158.95 375.9 124.95 412.15 139.95 506.15 c 2
EndSplineSet
Ligature2: "'ordn' Ordinals lookup 21-1" l
EndChar

StartChar: m.superior
Encoding: 388 -1 317
Width: 695
VWidth: 0
Flags: W
HStem: 665.3 68.9<290.761 400.967 537.962 661.237>
VStem: 169.15 58.85<709.82 729.75>
DStem2: 371.8 375.9 446.4 375.9 0.155913 0.987771<11.6311 276.563> 631.45 375.9 706.05 375.9 0.157663 0.987493<11.7617 277.176>
LayerCount: 2
Fore
SplineSet
113.15 375.9 m 1
 169.15 729.75 l 1
 224 729.75 l 1
 235.15 682.25 l 1
 282.3 708.1 318.2 734.2 375.65 734.2 c 1
 425.1 734.2 463 712.8 474.15 677.15 c 1
 516.8 707.5 574.65 734.2 640 734.2 c 1
 703.45 734.2 754.9 683 744.6 617.35 c 2
 706.05 375.9 l 1
 631.45 375.9 l 1
 668.15 606.8 l 2
 673.85 643.15 650.85 665.3 618 665.3 c 1
 567.1 665.3 534.35 656.9 486.8 631.85 c 1
 486.65 631.1 482.25 603.15 482.1 602.25 c 2
 446.4 375.9 l 1
 371.8 375.9 l 1
 408.5 606.8 l 2
 414.2 643.15 389.5 665.3 356.65 665.3 c 1
 306.3 665.3 282.35 654.2 228 631.25 c 1
 187.75 375.9 l 1
 113.15 375.9 l 1
EndSplineSet
Ligature2: "'ordn' Ordinals lookup 21-1" m
EndChar

StartChar: n.superior
Encoding: 389 -1 318
Width: 439
VWidth: 0
Flags: W
HStem: 668.7 68.05<298.256 409.177>
VStem: 175.95 51.45<708.345 729.75>
DStem2: 119.95 375.9 194.55 375.9 0.156314 0.987707<11.661 286.31> 376.9 375.9 451.5 375.9 0.156056 0.987748<11.6418 281.305>
LayerCount: 2
Fore
SplineSet
119.95 375.9 m 1
 175.95 729.75 l 1
 227.4 729.75 l 1
 242.1 684.8 l 1
 288.8 710.5 326 736.75 386.85 736.75 c 3
 470.15 736.75 499.5 681.3 490.05 619.9 c 2
 451.5 375.9 l 9
 376.9 375.9 l 17
 414.45 610.2 l 2
 421 650.8 397.15 668.7 364.3 668.7 c 3
 313.95 668.7 290 656.75 235.65 633.8 c 1
 194.55 375.9 l 1
 119.95 375.9 l 1
EndSplineSet
Ligature2: "'ordn' Ordinals lookup 21-1" n
EndChar

StartChar: o.superior
Encoding: 390 -1 319
Width: 408
VWidth: 0
Flags: W
HStem: 370.35 68.9<204.882 355.04> 666.55 68.9<232.766 382.54>
LayerCount: 2
Fore
SplineSet
127.1 550.45 m 0
 145 689.35 189.85 735.45 318.75 735.45 c 3
 446.25 735.45 478.5 678.55 459.05 545.35 c 0
 439.75 413.5 405 370.35 271.1 370.35 c 3
 146.15 370.35 110.5 421.05 127.1 550.45 c 0
200.05 548.05 m 0
 183.25 440.45 217.55 439.25 276.2 439.25 c 3
 340.15 439.25 367.6 440 386.1 548.05 c 0
 404.6 656.4 382 666.55 311.95 666.55 c 3
 245 666.55 217.7 662.35 200.05 548.05 c 0
EndSplineSet
EndChar

StartChar: p.superior
Encoding: 391 -1 320
Width: 419
VWidth: 0
Flags: HW
LayerCount: 2
Fore
SplineSet
90.95 200.8 m 1
 173.95 721.25 l 1
 239.6 733.15 301.85 736.35 370 736.35 c 3
 469.75 736.35 486.9 644.75 474.4 551.8 c 0
 460.1 441.8 426.65 366.15 316.65 366.15 c 3
 284.65 366.15 231.8 375.85 194.15 396.15 c 1
 163 200.8 l 1
 90.95 200.8 l 1
202.35 451 m 1
 241.65 439.45 267.1 434.75 314.1 434.75 c 3
 356.75 434.75 384 454.05 400.1 554.5 c 0
 412.05 631.45 398.5 669.2 351 669.2 c 0
 237.55 669.2 l 1
 202.35 451 l 1
EndSplineSet
Ligature2: "'ordn' Ordinals lookup 21-1" p
EndChar

StartChar: q.superior
Encoding: 392 -1 321
Width: 424
VWidth: 0
Flags: HW
LayerCount: 2
Fore
SplineSet
133.9 564.55 m 0
 155.9 688.1 214.8 737.2 303.4 737.2 c 3
 383.1 737.2 455.85 723.8 491.15 718.7 c 1
 408.3 191.45 l 17
 333.7 191.45 l 9
 365.7 394.45 l 1
 319.5 374.15 282.6 367 250.6 366.15 c 1
 147.4 366.15 115.45 458.05 133.9 564.55 c 0
208.35 554.5 m 0
 200.75 515.25 191.55 433.9 265.65 433.9 c 1
 316.05 433.05 318 436.05 373.75 449.3 c 1
 408.95 669.2 l 2
 303 669.2 l 2
 229.15 669.2 216.05 591.5 208.35 554.5 c 0
EndSplineSet
Ligature2: "'ordn' Ordinals lookup 21-1" q
EndChar

StartChar: r.superior
Encoding: 393 -1 322
Width: 328
VWidth: 0
Flags: HW
LayerCount: 2
Fore
SplineSet
113.15 375.9 m 1
 169.15 729.75 l 1
 226.9 729.75 l 1
 234.7 678.9 l 1
 279.6 705.05 320.85 733.75 376.7 733.75 c 27
 397.35 733.75 419.95 732.05 428.25 728.05 c 1
 416.45 656.05 l 1
 407.15 657.75 383.75 659.45 361.9 659.45 c 27
 309.4 659.45 280.4 648.4 226.8 622.6 c 1
 187.75 375.9 l 1
 113.15 375.9 l 1
EndSplineSet
Ligature2: "'ordn' Ordinals lookup 21-1" r
EndChar

StartChar: s.superior
Encoding: 394 -1 323
Width: 374
VWidth: 0
Flags: W
HStem: 366.1 70.5<116.8 342.543> 383.9 52.7<116.8 310.261> 518.25 65.75<200.779 346.458> 669.2 69.65<208.07 428.7> 669.2 54.55<245.462 428.7>
VStem: 108.9 328.55
LayerCount: 2
Fore
SplineSet
108.9 383.9 m 9x64
 116.8 436.6 l 17
 305.65 436.6 l 18
 307.45 436.6 340.2 433.5 345.3 466.3 c 1
 348.7 487.7 l 2
 351.25 507.6 346.15 518.25 319 518.25 c 10
 217.75 518.25 l 2
 154.75 518.25 119.6 555.75 128.75 614.8 c 10
 133.6 648.9 l 18
 143.3 707.7 173.45 738.85 243.3 738.85 c 3xb4
 288.3 738.85 405.3 731.5 437.45 723.75 c 9x2c
 428.7 669.2 l 17
 248.4 669.2 l 2
 211.35 669.2 206.9 655.6 204.2 636.55 c 10
 200.8 615.4 l 18
 196.4 585.15 213.45 584 235.9 584 c 2
 337.6 584 l 2
 402.4 584 428.5 535.15 421.5 491.15 c 1
 415.35 453.7 l 2
 403.2 379.1 359.6 366.1 312.35 366.1 c 3xb4
 269.2 366.1 133.85 376.7 108.9 383.9 c 9x64
EndSplineSet
Ligature2: "'ordn' Ordinals lookup 21-1" s
EndChar

StartChar: t.superior
Encoding: 395 -1 324
Width: 277
VWidth: 0
Flags: W
HStem: 376.75 51.85<244.64 310.7> 664.2 67.85<276 369.15> 664.2 52.95<128.55 166.217>
VStem: 233.3 57.85<808.63 831.05>
DStem2: 164.4 500.6 240.6 511.5 0.156248 0.987718<-38.7669 165.669>
LayerCount: 2
Fore
SplineSet
120.1 664.2 m 1xb0
 128.55 717.15 l 1xb0
 202 730.8 l 1
 233.3 831.05 l 1
 291.15 831.05 l 1
 276 732.05 l 1
 380.05 732.05 l 1
 369.15 664.2 l 1xd0
 265.1 664.2 l 1
 240.6 511.5 l 2
 231.05 451.5 237.35 447.75 267.5 440.75 c 2
 267.5 440.75 317.15 428.6 318.75 428.6 c 1
 310.7 376.75 l 1
 247.5 376.75 l 2
 186.1 376.75 149.55 408.9 164.4 500.6 c 2
 190.5 664.2 l 1
 120.1 664.2 l 1xb0
EndSplineSet
Ligature2: "'ordn' Ordinals lookup 21-1" t
EndChar

StartChar: u.superior
Encoding: 396 -1 325
Width: 433
VWidth: 0
Flags: HW
LayerCount: 2
Fore
SplineSet
124.5 490.85 m 2
 163.05 729.75 l 9
 237.65 729.75 l 17
 200.1 495.45 l 2
 194.4 458.25 218.25 437.8 250.25 437.8 c 3
 298.05 437.8 317.75 447.2 372.1 470.15 c 1
 413.2 729.75 l 1
 487.8 729.75 l 1
 431.8 375.9 l 1
 379.5 375.9 l 1
 364.95 421.45 l 1
 317.65 394.55 288.55 368.9 227.7 368.9 c 3
 144.4 368.9 115.05 429.45 124.5 490.85 c 2
EndSplineSet
Ligature2: "'ordn' Ordinals lookup 21-1" u
EndChar

StartChar: v.superior
Encoding: 397 -1 326
Width: 375
VWidth: 0
Flags: HW
LayerCount: 2
Fore
SplineSet
129.85 729.75 m 25
 206.65 729.75 l 17
 274.05 480.05 l 1
 386.4 669.5 l 2
 397.1 686.65 400.6 702.2 404.45 730.05 c 9
 472.2 730.05 l 17
 479.8 703.7 476.05 678.3 464.85 655.65 c 1
 294.85 375.9 l 9
 227.35 375.9 l 25
 129.85 729.75 l 25
EndSplineSet
Ligature2: "'ordn' Ordinals lookup 21-1" v
EndChar

StartChar: w.superior
Encoding: 398 -1 327
Width: 572
VWidth: 0
Flags: HW
LayerCount: 2
Fore
SplineSet
129.85 729.75 m 1
 204.8 729.75 l 1
 271.35 484.3 l 1
 384.7 670.35 l 2
 395.4 687.5 398.9 702.2 402.75 730.05 c 1
 470.5 730.05 l 1
 477.5 706.55 476.3 684.45 466.15 662.25 c 1
 465.85 661.5 432.4 605.65 432.1 604.9 c 1
 469.8 484.3 l 1
 581.45 669.5 l 2
 592.15 686.65 596.5 702.2 600.35 730.05 c 1
 668.1 730.05 l 1
 675.7 703.7 671.8 678.3 660.6 655.65 c 1
 492.3 375.9 l 1
 427.1 375.9 l 1
 382.6 526.15 l 1
 294.7 375.9 l 1
 227.2 375.9 l 1
 129.85 729.75 l 1
EndSplineSet
Ligature2: "'ordn' Ordinals lookup 21-1" w
EndChar

StartChar: x.superior
Encoding: 399 -1 328
Width: 388
VWidth: 0
Flags: HW
LayerCount: 2
Fore
SplineSet
74 369.1 m 1
 234.3 551.3 l 1
 125.75 728.9 l 1
 210.05 728.9 l 1
 286.35 601.15 l 1
 396.45 728.9 l 1
 486.85 728.9 l 1
 325.25 541.6 l 1
 432.5 369.1 l 1
 348.95 369.1 l 1
 274.35 491.9 l 1
 166.8 369.1 l 1
 74 369.1 l 1
EndSplineSet
Ligature2: "'ordn' Ordinals lookup 21-1" x
EndChar

StartChar: y.superior
Encoding: 400 -1 329
Width: 407
VWidth: 0
Flags: HW
LayerCount: 2
Fore
SplineSet
133.25 163.25 m 0
 133.25 212.45 l 0
 204.05 269.5 262.8 372.35 266.55 379.7 c 1
 227.65 382.25 202.4 411.95 196 445.6 c 2
 133.25 730.75 l 1
 210.1 730.75 l 1
 266.1 470.75 l 2
 269.65 454 280.1 442.2 298.75 442.05 c 1
 417.8 667.05 l 2
 426.65 685.8 432.1 700.7 436.25 730.05 c 9
 504 730.05 l 17
 511.6 703.55 508.45 678.15 497.7 655.2 c 1
 352.45 377.15 l 2
 262.75 208.5 181.75 170.8 133.25 163.25 c 0
EndSplineSet
Ligature2: "'ordn' Ordinals lookup 21-1" y
EndChar

StartChar: z.superior
Encoding: 401 -1 330
Width: 378
VWidth: 0
Flags: HW
LayerCount: 2
Fore
SplineSet
105.7 376.9 m 25
 116.9 446.7 l 25
 347.95 659.65 l 17
 139.5 659.65 l 17
 150.85 729.75 l 25
 459.95 729.75 l 25
 449.9 661.65 l 25
 219.95 447 l 17
 414.3 447 l 17
 415.3 446 403.1 376.9 403.1 376.9 c 25
 105.7 376.9 l 25
EndSplineSet
Ligature2: "'ordn' Ordinals lookup 21-1" z
EndChar

StartChar: zero.tnum
Encoding: 402 -1 331
Width: 616
VWidth: 0
Flags: W
HStem: 0 89<179.822 465.156> 643 89<267.072 548.183>
DStem2: 79.85 166.5 172.9 172.65 0.157385 0.987537<-41.5477 476.634> 497.75 172.5 588.85 166.5 0.15717 0.987572<-66.1754 454.379>
LayerCount: 2
Fore
SplineSet
79.85 166.5 m 10
 143.2 564 l 2
 161.65 681.25 230.15 732 341.55 732 c 2
 505.55 732 l 2
 630.15 732 665.8 647.65 652.35 565.5 c 2
 588.85 166.5 l 18
 569.85 47.5 505.2 0 395.4 0 c 2
 231.4 0 l 2
 134.55 0 60.85 46.5 79.85 166.5 c 10
172.9 172.65 m 2
 159.65 86.9 207.25 89 251.35 89 c 10
 397.05 89 l 18
 456.4 89 488.75 118.5 497.75 172.5 c 2
 559.45 559.5 l 2
 568.15 614.85 553.4 643 486.45 643 c 2
 338.5 643 l 2
 263.55 643 240.7 600.55 234.45 559.5 c 2
 172.9 172.65 l 2
EndSplineSet
Substitution2: "'onum' Oldstyle Figures in Latin lookup 5-1" zero.tosf
Substitution2: "'lnum' Lining Figures lookup 19-1" zero
EndChar

StartChar: one.tnum
Encoding: 403 -1 332
Width: 616
VWidth: 0
Flags: W
HStem: 0 89.4004<140.7 305.8 398.65 542.9> 584.1 63.5<233.65 317.449> 712 20G<404.7 500.85>
DStem2: 305.8 89.4004 398.65 89.4004 0.157066 0.987588<14.5837 541.386>
LayerCount: 2
Fore
SplineSet
126.9 0 m 5
 140.7 89.4004 l 5
 305.8 89.4004 l 5
 393.45 623.65 l 5
 366.6 603.15 305.6 584.1 224 584.1 c 5
 233.65 647.6 l 5
 318.65 647.6 401.1 723.75 408.3 732 c 5
 500.85 732 l 5
 398.65 89.4004 l 5
 556.7 89.4004 l 5
 542.9 0 l 5
 126.9 0 l 5
EndSplineSet
Substitution2: "'onum' Oldstyle Figures in Latin lookup 5-1" one.tosf
Substitution2: "'lnum' Lining Figures lookup 19-1" one
EndChar

StartChar: two.tnum
Encoding: 404 -1 333
Width: 616
VWidth: 0
Flags: W
HStem: 0 89<252.65 558.75> 652 90<217.42 525.714> 652 68.5<166.1 400.05>
LayerCount: 2
Fore
SplineSet
59.25 0 m 25xc0
 72.65 83 l 17
 204.15 163.35 530.35 376.4 554.25 528.75 c 1
 565.95 605.9 537.2 652 446 652 c 2xc0
 155 652 l 2
 166.1 720.5 l 1xa0
 267.25 734.25 356.8 742 472.75 742 c 3
 610.9 742 657.9 635.15 646.1 524.05 c 0
 628.35 344.4 338.1 145.85 252.65 89 c 9
 573.15 89 l 25
 558.75 0 l 25
 59.25 0 l 25xc0
EndSplineSet
Substitution2: "'onum' Oldstyle Figures in Latin lookup 5-1" two.tosf
Substitution2: "'lnum' Lining Figures lookup 19-1" two
EndChar

StartChar: three.tnum
Encoding: 405 -1 334
Width: 616
VWidth: 0
Flags: W
HStem: -7 90<118.768 444.627> 21 62<80.2 167.352> 318.65 90<256.577 484.404> 325.95 73<192 359.423> 645 89<245.284 535.577>
DStem2: 486.65 169.25 579.45 161 0.157463 0.987525<-60.6404 125.398 268.063 453.166>
LayerCount: 2
Fore
SplineSet
69.8 21 m 1x48
 80.2 83 l 1x48
 366.2 83 l 2
 418.7 83 476.25 105.25 486.65 169.25 c 2
 495.3 220.9 l 2
 509.95 312.8 464.95 316.35 409.6 318.65 c 2xa8
 179.6 325.95 l 2
 192 398.95 l 1x18
 424 408.65 l 2
 493 411.65 531.75 441.4 541.3 500.15 c 2
 550.8 560 l 2
 562.35 632.25 513.4 645 461.4 645 c 2
 162.4 645 l 1
 171.8 706 l 1
 264.8 737 379.3 736 496.3 734 c 0
 594.4 732 659.15 661.6 643.55 563 c 2
 633.15 498.5 l 2
 620.3 418.7 585.3 374.7 542.3 364 c 1
 583.35 343.6 600.7 291.5 588.7 215.5 c 2
 579.45 161 l 2
 562.15 50.2 494.3 -7 372.3 -7 c 0xa8
 258.3 -7 152.8 -10 69.8 21 c 1x48
EndSplineSet
Substitution2: "'onum' Oldstyle Figures in Latin lookup 5-1" three.tosf
Substitution2: "'lnum' Lining Figures lookup 19-1" three
EndChar

StartChar: four.tnum
Encoding: 406 -1 335
Width: 616
VWidth: 0
Flags: W
HStem: 179.5 93<209.7 444.45> 200 72.5<597.478 627.8> 712 20G<430.562 555.95>
DStem2: 61.2 224 209.7 272.5 0.60351 0.797355<128.293 637.106> 416.65 2 511.2 2 0.155911 0.987771<14.7414 179.664 288.513 472.312>
LayerCount: 2
Fore
SplineSet
61.2 224 m 1xa0
 445.7 732 l 1
 555.95 732 l 1
 209.7 272.5 l 1xa0
 458.85 272.5 l 1
 490.2 468.55 l 1
 540.25 544 l 1
 596.75 544 l 1
 553.4 272.5 l 1
 638.9 272.5 l 1
 627.8 200 l 1x60
 539 179.5 l 1
 511.2 2 l 1
 416.65 2 l 1
 444.45 179.5 l 1
 88 179.5 l 1
 61.2 224 l 1xa0
EndSplineSet
Substitution2: "'onum' Oldstyle Figures in Latin lookup 5-1" four.tosf
Substitution2: "'lnum' Lining Figures lookup 19-1" four
EndChar

StartChar: five.tnum
Encoding: 407 -1 336
Width: 616
VWidth: 0
Flags: W
HStem: -1.45 94<119.208 445.909> 22.55 70<85.45 214.458> 364.7 88.35<248.93 485.679> 644.7 89<285.2 624.65>
DStem2: 118.3 294.2 205.7 294.2 0.160774 0.986991<14.0517 70.2273 147.197 279.803> 481.05 179.55 572 167.05 0.15158 0.988445<-66.6559 160.707>
LayerCount: 2
Fore
SplineSet
74.05 22.55 m 1x70
 85.45 92.55 l 1x70
 383.45 92.55 l 2
 451.4 92.55 475.5 144.25 481.05 179.55 c 2
 496.25 272.6 l 2
 501.25 302.2 507 364.7 428.2 364.7 c 1
 294.1 364.7 l 2
 256.15 364.7 214.1 344.75 205.7 294.2 c 1
 118.3 294.2 l 1
 210.05 733.7 l 17
 639.05 733.7 l 1
 624.65 644.7 l 1
 285.2 644.7 l 25
 238.85 423.7 l 1
 258.5 442.25 290.6 450.35 324 453.05 c 0
 372.1 457.6 425.95 452.35 452.55 452.2 c 0
 547.15 450.7 604.4 376.85 588.7 275.95 c 2
 572 167.05 l 2
 550 30.05 467.6 2.8 375.55 -1.45 c 1xb0
 250.7 -7.4 204.05 -0.45 74.05 22.55 c 1x70
EndSplineSet
Substitution2: "'onum' Oldstyle Figures in Latin lookup 5-1" five.tosf
Substitution2: "'lnum' Lining Figures lookup 19-1" five
EndChar

StartChar: six.tnum
Encoding: 408 -1 337
Width: 616
VWidth: 0
Flags: W
HStem: -0.15 86.45<219.596 464.584> 345 87.5<216.908 503.17> 649 88.25<308.041 596.55> 649 68.95<415.903 636.65>
DStem2: 494 163.75 582.5 148 0.150442 0.988619<-60.2943 167.428>
LayerCount: 2
Fore
SplineSet
116.25 387 m 0xe0
 158.25 652 260.2 735.15 344.4 737.25 c 0xe0
 445.7 739.65 549.25 736.25 647.75 717.95 c 1
 636.65 649 l 1xd0
 358.15 649 l 2
 271.4 649 227.7 493.85 213.15 411.5 c 1
 293.1 422.85 387.15 431.65 462.65 432.5 c 1
 599.3 434.2 611.95 338.45 601.75 274.5 c 2
 582.5 148 l 2
 564.05 33.3 489.85 -0.15 392.55 -0.15 c 2
 246.9 -0.15 l 2
 147.85 -0.15 66.25 72 116.25 387 c 0xe0
202.05 345 m 1
 184.2 232.2 174.25 86.3 269 86.3 c 2
 398.95 86.3 l 2
 431.95 86.3 483.75 97.85 494 163.75 c 2
 510.75 273 l 2
 520.3 331.3 500.75 345 441.65 345 c 2
 202.05 345 l 1
EndSplineSet
Substitution2: "'onum' Oldstyle Figures in Latin lookup 5-1" six.tosf
Substitution2: "'lnum' Lining Figures lookup 19-1" six
EndChar

StartChar: seven.tnum
Encoding: 409 -1 338
Width: 616
VWidth: 0
Flags: W
HStem: 0 21G<179.65 296.147> 0 21G<179.65 296.147> 643 89<168.65 530.25>
DStem2: 179.65 0 285.35 0 0.475069 0.879948<50.2145 732.366>
LayerCount: 2
Fore
SplineSet
154.25 643 m 1xa0
 168.65 732 l 1
 630.95 732 l 1
 652.2 679.5 l 1
 285.35 0 l 1
 179.65 0 l 1
 530.25 643 l 1
 154.25 643 l 1xa0
EndSplineSet
Substitution2: "'onum' Oldstyle Figures in Latin lookup 5-1" seven.tosf
Substitution2: "'lnum' Lining Figures lookup 19-1" seven
EndChar

StartChar: eight.tnum
Encoding: 410 -1 339
Width: 616
VWidth: 0
Flags: W
HStem: 0 87.5<191.6 459.531> 331 85<245.695 490.453> 649.5 87.5<273.788 541.888>
DStem2: 88.1 160.75 180 159.85 0.156568 0.987667<-39.2567 168.683 298.587 493.362> 487.5 159.85 579.75 155.65 0.156607 0.987661<-55.1929 149.939 277.478 474.014>
LayerCount: 2
Fore
SplineSet
88.1 160.75 m 2
 102.05 252 l 2
 113.45 322.4 161.85 356.15 211.2 361.75 c 1
 144.9 386 133.35 452.05 141.65 502 c 2
 152.5 567 l 2
 173.65 702.75 247 737 358.5 737 c 2
 506 737 l 2
 607.85 737 661.45 673.55 644 560.85 c 2
 633.6 499 l 2
 631.3 476.25 609 398.4 536.2 384.3 c 1
 592.15 367.05 602.15 293.35 594.3 250.35 c 2
 579.75 155.65 l 2
 556.3 10.5 468 0 388 0 c 2
 241.5 0 l 2
 70.2 0 81.5 119.7 88.1 160.75 c 2
180 159.85 m 2
 171.45 105.3 195.05 87.5 262.35 87.5 c 2
 393.4 87.5 l 2
 433.15 87.5 479.25 104.65 487.5 159.85 c 2
 502.85 255.1 l 2
 511.1 307.45 478.5 331 435.25 331 c 2
 292 331 l 2
 246.6 331 204.45 311.85 195.35 255.1 c 2
 180 159.85 l 2
232.65 494 m 2
 222.4 431.2 270.95 416 304.95 416 c 2
 447.9 416 l 2
 516.55 416 534.3 458.9 540.15 494 c 2
 550.1 556.3 l 2
 562.35 631.5 541.05 649.5 483.05 649.5 c 2
 351.15 649.5 l 2
 276.1 649.5 253 622.7 242.6 556.3 c 2
 232.65 494 l 2
EndSplineSet
Substitution2: "'onum' Oldstyle Figures in Latin lookup 5-1" eight.tosf
Substitution2: "'lnum' Lining Figures lookup 19-1" eight
EndChar

StartChar: nine.tnum
Encoding: 411 -1 340
Width: 616
VWidth: 0
Flags: W
HStem: -0.15 88.25<134.901 422.943> 19.15 68.95<94.2 318.618> 304.6 87.5<227.69 514.092> 650.8 86.45<265.994 511.165>
DStem2: 129.4 464.1 220.25 464.1 0.151666 0.988432<-41.8874 183.116>
LayerCount: 2
Fore
SplineSet
83.1 19.15 m 1x70
 94.2 88.1 l 1x70
 372.7 88.1 l 2
 459.45 88.1 503.3 243.25 517.85 325.6 c 1
 437.9 314.25 343.7 305.45 268.2 304.6 c 1
 131.55 302.9 119.2 400.15 129.4 464.1 c 2
 148.35 587.6 l 2
 166.65 702.3 240.7 737.25 338 737.25 c 2
 483.65 737.25 l 2
 583.6 737.25 664.45 662.1 614.45 347.1 c 0
 572.45 82.1 470.8 1.95 386.6 -0.15 c 0xb0
 285.3 -2.55 170.55 0 83.1 19.15 c 1x70
220.25 464.1 m 2
 210.7 405.8 230.1 392.1 289.2 392.1 c 2
 528.8 392.1 l 1
 546.65 504.9 556.45 650.8 461.7 650.8 c 2
 331.9 650.8 l 2
 298.9 650.8 247.1 639.25 236.85 573.35 c 2
 220.25 464.1 l 2
EndSplineSet
Substitution2: "'onum' Oldstyle Figures in Latin lookup 5-1" nine.tosf
Substitution2: "'lnum' Lining Figures lookup 19-1" nine
EndChar

StartChar: zero.tosf
Encoding: 412 -1 341
Width: 616
VWidth: 0
Flags: W
HStem: 0 89<179.809 465.156> 543 89<251.498 533.201>
DStem2: 79.85 166.5 172.9 172.65 0.157667 0.987492<-41.5535 375.388> 497.9 172.5 588.85 166.5 0.157862 0.987461<-66.1555 353.224>
LayerCount: 2
Fore
SplineSet
79.85 166.5 m 10
 127.35 464 l 2
 145.8 581.25 214.3 632 325.7 632 c 2
 489.7 632 l 2
 617.3 632 650.1 547.65 636.65 465.5 c 2
 588.85 166.5 l 18
 569.85 47.5 505.2 0 395.4 0 c 2
 231.4 0 l 2
 134.55 0 60.7 46.5 79.85 166.5 c 10
172.9 172.65 m 2
 159.65 86.9 207.25 89 251.35 89 c 10
 397.05 89 l 18
 456.4 89 488.9 118.5 497.9 172.5 c 2
 543.6 459.5 l 2
 552.3 514.85 537.7 543 470.75 543 c 2
 322.8 543 l 2
 248.3 543 224.85 500.55 218.6 459.5 c 2
 172.9 172.65 l 2
EndSplineSet
Substitution2: "'lnum' Lining Figures lookup 19-1" zero
EndChar

StartChar: one.tosf
Encoding: 413 -1 342
Width: 616
VWidth: 0
Flags: W
HStem: 0 89.4004<151.55 308 400.6 536.75> 484.1 63.5<220.9 304.282>
DStem2: 308 89.4004 400.6 89.4004 0.153167 0.9882<14.1832 439.725>
LayerCount: 2
Fore
SplineSet
137.75 0 m 5
 151.55 89.4004 l 5
 308 89.4004 l 5
 377.2 523.65 l 5
 352.9 505.7 292 484.1 210.4 484.1 c 5
 220.9 547.6 l 5
 305.9 547.6 387.5 623.75 394.7 632 c 5
 484.7 632 l 5
 400.6 89.4004 l 5
 550.55 89.4004 l 5
 536.75 0 l 5
 137.75 0 l 5
EndSplineSet
Substitution2: "'lnum' Lining Figures lookup 19-1" one
EndChar

StartChar: two.tosf
Encoding: 414 -1 343
Width: 616
VWidth: 0
Flags: W
HStem: 0 89<275.9 557.9> 547.95 89.15<202.524 517.396>
LayerCount: 2
Fore
SplineSet
58.4 0 m 25
 71.8 83 l 17
 221.95 160.4 516.85 307.2 538.2 443.4 c 1
 549.9 514.6 527 549.65 433.25 547.95 c 1
 390.75 547.95 140.55 547.1 140.55 547.1 c 2
 152.5 615.6 l 1
 251.95 630.2 333.85 637.1 457.45 637.1 c 3
 617.7 637.1 644.3 537.5 634.2 441.7 c 1
 618.15 271.4 340.6 119.6 275.9 89 c 9
 572.3 89 l 25
 557.9 0 l 25
 58.4 0 l 25
EndSplineSet
Substitution2: "'lnum' Lining Figures lookup 19-1" two
EndChar

StartChar: three.tosf
Encoding: 415 -1 344
Width: 616
VWidth: 0
Flags: W
HStem: -101.9 90<103.768 429.627> -73.9 62<65.2 152.352> 223.75 90<241.578 469.404> 231.05 73<177 344.422> 550.1 89<230.284 520.577>
DStem2: 471.65 74.35 564.45 66.1 0.157463 0.987525<-60.6404 125.398 268.063 453.166>
LayerCount: 2
Fore
SplineSet
54.8 -73.9 m 1x48
 65.2 -11.9 l 1
 351.2 -11.9 l 2
 403.7 -11.9 461.25 10.35 471.65 74.35 c 2
 480.3 126 l 2
 494.95 217.9 449.95 221.45 394.6 223.75 c 2x68
 164.6 231.05 l 2
 177 304.05 l 1x18
 409 313.75 l 2
 478 316.75 516.75 346.5 526.3 405.25 c 2
 535.8 465.1 l 2
 547.35 537.35 498.4 550.1 446.4 550.1 c 2
 147.4 550.1 l 1
 156.8 611.1 l 1
 249.8 642.1 364.3 641.1 481.3 639.1 c 0
 579.4 637.1 644.15 566.7 628.55 468.1 c 2
 618.15 403.6 l 2
 605.3 323.8 570.3 279.8 527.3 269.1 c 1
 568.35 248.7 585.7 196.6 573.7 120.6 c 2
 564.45 66.1 l 2
 547.15 -44.7 479.3 -101.9 357.3 -101.9 c 0xa8
 243.3 -101.9 137.8 -104.9 54.8 -73.9 c 1x48
EndSplineSet
Substitution2: "'lnum' Lining Figures lookup 19-1" three
EndChar

StartChar: four.tosf
Encoding: 416 -1 345
Width: 616
VWidth: 0
Flags: W
HStem: 79.5 93<193.7 428.45> 100 72.5<581.478 611.8>
DStem2: 45.2 124 193.7 172.5 0.60351 0.797355<128.293 637.106> 400.65 -98 495.2 -98 0.155911 0.987771<14.7414 179.664 288.513 472.312>
LayerCount: 2
Fore
SplineSet
45.2 124 m 1x80
 429.7 632 l 1
 539.95 632 l 1
 193.7 172.5 l 1x80
 442.85 172.5 l 1
 474.2 368.55 l 1
 524.25 444 l 1
 580.75 444 l 1
 537.4 172.5 l 1
 622.9 172.5 l 1
 611.8 100 l 1x40
 523 79.5 l 1
 495.2 -98 l 1
 400.65 -98 l 1
 428.45 79.5 l 1
 72 79.5 l 1
 45.2 124 l 1x80
EndSplineSet
Substitution2: "'lnum' Lining Figures lookup 19-1" four
EndChar

StartChar: five.tosf
Encoding: 417 -1 346
Width: 616
VWidth: 0
Flags: W
HStem: -103.15 94<103.208 429.909> -79.15 70<69.45 198.458> 263 88.35<232.93 469.679> 543 89<269.2 608.65>
DStem2: 102.3 192.5 189.7 192.5 0.160774 0.986991<14.0517 70.2273 147.197 279.803> 465.05 77.85 556 65.35 0.15158 0.988445<-66.6559 160.707>
LayerCount: 2
Fore
SplineSet
58.05 -79.15 m 1x70
 69.45 -9.15 l 1
 367.45 -9.15 l 2
 435.4 -9.15 459.5 42.55 465.05 77.85 c 2
 480.25 170.9 l 2
 485.25 200.5 491 263 412.2 263 c 1
 278.1 263 l 2
 240.15 263 198.1 243.05 189.7 192.5 c 1
 102.3 192.5 l 1
 194.05 632 l 17
 623.05 632 l 1
 608.65 543 l 1
 269.2 543 l 25
 222.85 322 l 1
 242.5 340.55 274.6 348.65 308 351.35 c 0
 356.1 355.9 409.95 350.65 436.55 350.5 c 0
 531.15 349 588.4 275.15 572.7 174.25 c 2
 556 65.35 l 2
 534 -71.65 451.6 -98.9 359.55 -103.15 c 1xb0
 234.7 -109.1 188.05 -102.15 58.05 -79.15 c 1x70
EndSplineSet
Substitution2: "'lnum' Lining Figures lookup 19-1" five
EndChar

StartChar: six.tosf
Encoding: 418 -1 347
Width: 616
VWidth: 0
Flags: W
HStem: -0.15 86.45<219.596 464.584> 345 87.5<216.908 503.17> 649 88.25<308.041 598.683> 649 68.95<414.938 636.65>
DStem2: 494 163.75 582.5 148 0.150442 0.988619<-60.2943 167.428>
LayerCount: 2
Fore
SplineSet
116.25 387 m 0xe0
 158.25 652 260.2 735.15 344.4 737.25 c 0xe0
 445.7 739.65 541.6 734.55 647.75 717.95 c 1
 636.65 649 l 1xd0
 358.15 649 l 2
 271.4 649 227.7 493.85 213.15 411.5 c 1
 293.1 422.85 387.15 431.65 462.65 432.5 c 1
 599.3 434.2 611.95 338.45 601.75 274.5 c 2
 582.5 148 l 2
 564.05 33.3 489.85 -0.15 392.55 -0.15 c 2
 246.9 -0.15 l 2
 147.85 -0.15 66.25 72 116.25 387 c 0xe0
202.05 345 m 1
 184.2 232.2 174.25 86.3 269 86.3 c 2
 398.95 86.3 l 2
 431.95 86.3 483.75 97.85 494 163.75 c 2
 510.75 273 l 2
 520.3 331.3 500.75 345 441.65 345 c 2
 202.05 345 l 1
EndSplineSet
Substitution2: "'lnum' Lining Figures lookup 19-1" six
EndChar

StartChar: seven.tosf
Encoding: 419 -1 348
Width: 616
VWidth: 0
Flags: W
HStem: 543 89<162.65 524.25>
DStem2: 173.65 -100 279.35 -100 0.475069 0.879949<50.2148 732.366>
LayerCount: 2
Fore
SplineSet
148.25 543 m 1
 162.65 632 l 1
 624.95 632 l 1
 646.2 579.5 l 1
 279.35 -100 l 1
 173.65 -100 l 1
 524.25 543 l 1
 148.25 543 l 1
EndSplineSet
Substitution2: "'lnum' Lining Figures lookup 19-1" seven
EndChar

StartChar: eight.tosf
Encoding: 420 -1 349
Width: 616
VWidth: 0
Flags: W
HStem: 0 87.5<191.6 459.531> 331 85<245.695 490.453> 649.5 87.5<273.788 541.888>
DStem2: 88.1 160.75 180 159.85 0.156568 0.987667<-39.2567 168.683 298.587 493.362> 487.5 159.85 579.75 155.65 0.156607 0.987661<-55.1929 149.939 277.478 474.014>
LayerCount: 2
Fore
SplineSet
88.1 160.75 m 2
 102.05 252 l 2
 113.45 322.4 161.85 356.15 211.2 361.75 c 1
 144.9 386 133.35 452.05 141.65 502 c 2
 152.5 567 l 2
 173.65 702.75 247 737 358.5 737 c 2
 506 737 l 2
 607.85 737 661.45 673.55 644 560.85 c 2
 633.6 499 l 2
 631.3 476.25 609 398.4 536.2 384.3 c 1
 592.15 367.05 602.15 293.35 594.3 250.35 c 2
 579.75 155.65 l 2
 556.3 10.5 468 0 388 0 c 2
 241.5 0 l 2
 70.2 0 81.5 119.7 88.1 160.75 c 2
180 159.85 m 2
 171.45 105.3 195.05 87.5 262.35 87.5 c 2
 393.4 87.5 l 2
 433.15 87.5 479.25 104.65 487.5 159.85 c 2
 502.85 255.1 l 2
 511.1 307.45 478.5 331 435.25 331 c 2
 292 331 l 2
 246.6 331 204.45 311.85 195.35 255.1 c 2
 180 159.85 l 2
232.65 494 m 2
 222.4 431.2 270.95 416 304.95 416 c 2
 447.9 416 l 2
 516.55 416 534.3 458.9 540.15 494 c 2
 550.1 556.3 l 2
 562.35 631.5 541.05 649.5 483.05 649.5 c 2
 351.15 649.5 l 2
 276.1 649.5 253 622.7 242.6 556.3 c 2
 232.65 494 l 2
EndSplineSet
Substitution2: "'lnum' Lining Figures lookup 19-1" eight
EndChar

StartChar: nine.tosf
Encoding: 421 -1 350
Width: 616
VWidth: 0
Flags: W
HStem: -105.25 88.25<119.213 406.943> -85.95 68.95<78.2 299.398> 199.5 87.5<211.69 498.092> 545.7 86.45<249.994 495.165>
DStem2: 113.4 359 204.25 359 0.151666 0.988432<-41.8874 183.116>
LayerCount: 2
Fore
SplineSet
67.1 -85.95 m 1x70
 78.2 -17 l 1x70
 356.7 -17 l 2
 443.45 -17 487.3 138.15 501.85 220.5 c 1
 421.9 209.15 327.7 200.35 252.2 199.5 c 1
 115.55 197.8 103.2 295.05 113.4 359 c 2
 132.35 482.5 l 2
 150.65 597.2 224.7 632.15 322 632.15 c 2
 467.65 632.15 l 2
 567.6 632.15 648.45 557 598.45 242 c 0
 556.45 -23 454.8 -103.15 370.6 -105.25 c 0xb0
 269.3 -107.65 168.15 -110.2 67.1 -85.95 c 1x70
204.25 359 m 2
 194.7 300.7 214.1 287 273.2 287 c 2
 512.8 287 l 1
 530.65 399.8 540.45 545.7 445.7 545.7 c 2
 315.9 545.7 l 2
 282.9 545.7 231.1 534.15 220.85 468.25 c 2
 204.25 359 l 2
EndSplineSet
Substitution2: "'lnum' Lining Figures lookup 19-1" nine
EndChar

StartChar: partialdiff
Encoding: 422 8706 351
Width: 636
VWidth: 0
Flags: HW
LayerCount: 2
Fore
SplineSet
87.4 230 m 1
 111.4 381 217.1 465 379.15 465 c 3
 430.15 465 489.7 454.25 536.4 408 c 1
 556.8 597.3 502.95 651 392.9 651 c 3
 317.45 651 245.65 623 204.65 600 c 1
 191.9 662 l 1
 265.9 706 321.05 740 410.3 740 c 3
 576.4 740 658.7 594.45 625.55 381 c 0
 591.1 159.05 487.75 -5 304.2 -5 c 3
 164.7 -5 70.05 99.2 87.4 230 c 1
179.25 230 m 0
 164.6 135.15 230.3 83.55 313.05 83.55 c 3
 448.7 83.55 512.1 270.95 523.9 340.05 c 1
 495.6 357.4 440.3 376.45 371.2 376.45 c 3
 248.35 376.45 192.05 311.2 179.25 230 c 0
EndSplineSet
EndChar

StartChar: summation
Encoding: 423 8721 352
Width: 582
VWidth: 0
Flags: HW
LayerCount: 2
Fore
SplineSet
5.45 -200 m 1
 19.85 -108 l 1
 293.45 270 l 1
 139.05 643 l 1
 153.45 732 l 1
 679.45 732 l 1
 665.05 643 l 9
 249.65 643 l 17
 404.8 257.25 l 9
 144.65 -108 l 25
 545.85 -108 l 17
 531.45 -200 l 1
 5.45 -200 l 1
EndSplineSet
EndChar

StartChar: product
Encoding: 424 8719 353
Width: 646
VWidth: 0
Flags: HW
LayerCount: 2
Fore
SplineSet
101.65 0 m 1
 203.25 643 l 1
 120.25 643 l 1
 134.65 732 l 1
 743.15 732 l 1
 728.75 643 l 1
 644.75 643 l 1
 543.15 0 l 1
 451.15 0 l 1
 552.75 643 l 1
 295.25 643 l 1
 193.65 0 l 1
 101.65 0 l 1
EndSplineSet
EndChar

StartChar: pi
Encoding: 425 960 354
Width: 640
VWidth: 0
Flags: HW
LayerCount: 2
Fore
SplineSet
88.25 442 m 1
 102.65 531 l 1
 657.15 531 l 1
 642.75 442 l 1
 524.25 442 l 1
 481.55 172 l 2
 470 100.25 489.7 80.5 536.3 80.5 c 2
 633.8 80.5 l 1
 625.15 26 l 1
 597.15 9 557.35 -5 509.15 -5 c 3
 428.5 -5 368.25 38.5 389.25 170.5 c 2
 432.25 442 l 1
 263.25 442 l 1
 193.5 0 l 1
 101.5 0 l 1
 171.25 442 l 1
 88.25 442 l 1
EndSplineSet
EndChar

StartChar: integral
Encoding: 426 8747 355
Width: 442
VWidth: 0
Flags: HW
LayerCount: 2
Fore
SplineSet
-9.35 -179 m 1
 0.3 -119.5 l 1
 82.8 -119.5 l 1
 152.8 -119.5 172.05 -6.65 188.15 88 c 9
 254.15 506 l 18
 279.45 666.35 327.65 800 444.65 800 c 3
 510.3 800 528.65 782 545.65 775 c 1
 536 715.5 l 1
 455.5 715.5 l 1
 386.5 715.5 362.7 603.2 346.15 506 c 1
 280.15 88 l 2
 254.55 -75.05 213.65 -204 93.65 -204 c 3
 47.85 -204 9.65 -193 -9.35 -179 c 1
EndSplineSet
EndChar

StartChar: Omega
Encoding: 427 937 356
Width: 773
VWidth: 0
Flags: HW
LayerCount: 2
Fore
SplineSet
66.65 0 m 1
 79.75 81.5 l 1
 208.75 91.5 l 1
 91.4 183.1 108.5 316.65 123.1 395.5 c 0
 151.35 548.65 241.4 739 503.4 739 c 3
 732.7 739 799.3 566.5 770.3 384.5 c 0
 751.3 267.5 726.15 169.9 606.25 90.5 c 1
 727.25 80.5 l 1
 714.15 0 l 1
 480.15 0 l 1
 495.25 91.5 l 1
 638.45 179.8 658.2 258.6 678.15 385 c 0
 699.2 518 678.5 650 490.5 650 c 3
 311.2 650 233.85 516.3 212.65 380 c 0
 192.7 254.75 189.45 199.4 307.75 91.5 c 1
 292.65 0 l 1
 66.65 0 l 1
EndSplineSet
EndChar

StartChar: radical
Encoding: 428 8730 357
Width: 636
VWidth: 0
Flags: HW
LayerCount: 2
Fore
SplineSet
60.85 272 m 1
 75.25 361 l 1
 211.7 361 l 1
 291.55 127 l 1
 649.05 800 l 1
 743.9 800 l 1
 327.55 0 l 1
 240.8 0 l 1
 143.45 272 l 1
 60.85 272 l 1
EndSplineSet
EndChar

StartChar: florin
Encoding: 429 402 358
Width: 464
VWidth: 0
Flags: HW
LayerCount: 2
Fore
SplineSet
-9.35 -179 m 1
 2.3 -119.5 l 1
 84.8 -119.5 l 2
 154.8 -119.5 178.55 -6.65 194.6 88 c 2
 248.15 391 l 1
 150.35 391 l 1
 167.7 474.85 l 1
 265.5 474.85 l 1
 270.5 506 l 2
 298.65 663.2 347.9 798.5 464.9 800 c 1
 520.2 801.2 560.8 777.75 568.3 775 c 1
 556.8 715.5 l 1
 476.3 715.5 l 1
 406.45 715.5 383.7 603.2 365.05 506 c 2
 360.05 474 l 1
 494.15 474 l 1
 476.8 391 l 1
 342.7 391 l 1
 289.15 88 l 2
 260.7 -69.95 224.6 -202.2 94.55 -204 c 1
 50.3 -205.05 -1.7 -184.5 -9.35 -179 c 1
EndSplineSet
EndChar

StartChar: approxequal
Encoding: 430 8776 359
Width: 525
VWidth: 0
Flags: HW
LayerCount: 2
Fore
SplineSet
86.15 252.7 m 17
 130.1 285.55 180.15 323.7 244.15 323.7 c 27
 304.15 323.7 327.15 286.7 387.15 286.7 c 27
 434.15 286.7 458.05 306.35 507.15 325.7 c 9
 522 278.15 l 17
 479.3 249.35 433.4 205.7 373.1 205.7 c 3
 315.35 205.7 290.1 243.7 230.1 243.7 c 27
 179.1 243.7 150.95 220.7 100.1 205.7 c 25
 86.15 252.7 l 17
114.3 430.75 m 17
 158.25 463.6 208.3 501.75 272.3 501.75 c 27
 332.3 501.75 355.45 464.75 415.45 464.75 c 27
 462.45 464.75 486.2 484.4 535.3 503.75 c 9
 550.15 456.2 l 17
 507.45 427.4 461.55 383.75 401.25 383.75 c 3
 343.5 383.75 318.25 421.75 258.25 421.75 c 27
 207.25 421.75 179.1 398.75 128.25 383.75 c 25
 114.3 430.75 l 17
EndSplineSet
EndChar

StartChar: uni2206
Encoding: 431 8710 360
Width: 724
VWidth: 0
Flags: HW
LayerCount: 2
Fore
SplineSet
18.65 0 m 1
 445.65 732 l 1
 523.05 732 l 1
 706.05 0 l 1
 18.65 0 l 1
174 87.5 m 1
 597.45 87.5 l 1
 471.2 605.25 l 1
 174 87.5 l 1
EndSplineSet
EndChar

StartChar: lozenge
Encoding: 432 9674 361
Width: 519
VWidth: 0
Flags: HW
LayerCount: 2
Fore
SplineSet
77.65 373 m 1
 341.65 732 l 1
 415.65 732 l 1
 559.65 373 l 1
 299.65 0 l 1
 225.65 0 l 1
 77.65 373 l 1
182.2 369.4 m 1
 274.8 122.85 l 1
 460.1 382.55 l 1
 364.5 615.55 l 1
 182.2 369.4 l 1
EndSplineSet
EndChar

StartChar: onequarter
Encoding: 188 188 362
Width: 920
VWidth: 0
Flags: HW
LayerCount: 2
Fore
SplineSet
113.5 619.3 m 1
 121.7 670 l 1
 189.7 670 255 729.65 259.8 735.2 c 1
 332.4 735.2 l 1
 256.25 255.85 l 1
 181.65 255.85 l 1
 245.3 650.15 l 1
 226.65 635.8 178.95 619.3 113.5 619.3 c 1
177.4 0 m 1
 750.4 770 l 1
 823.4 770 l 1
 250.4 0 l 1
 177.4 0 l 1
529.85 144 m 1
 780.95 476.65 l 1
 866.8 476.65 l 1
 654.05 189.2 l 1
 800.95 189.2 l 1
 819.2 305.1 l 1
 854.15 353.55 l 1
 900.9 353.55 l 1
 874.65 189.2 l 1
 930.8 189.2 l 1
 921.3 128.2 l 1
 862.55 114 l 1
 845.05 0.15 l 1
 771.35 0.15 l 1
 789.3 113.85 l 1
 549.45 113.85 l 1
 529.85 144 l 1
EndSplineSet
Ligature2: "'frac' Diagonal Fractions lookup 11 subtable" one slash four
Ligature2: "'frac' Diagonal Fractions lookup 11 subtable" one fraction four
EndChar

StartChar: brokenbar
Encoding: 166 166 363
Width: 246
VWidth: 0
Flags: HW
LayerCount: 2
Fore
SplineSet
68.3 -72 m 1
 120.3 256 l 1
 206.3 256 l 1
 154.3 -72 l 1
 68.3 -72 l 1
147.3 429 m 1
 201.3 770 l 1
 287.3 770 l 1
 233.3 429 l 1
 147.3 429 l 1
EndSplineSet
EndChar

StartChar: currency
Encoding: 164 164 364
Width: 460
VWidth: 0
Flags: HW
LayerCount: 2
Fore
SplineSet
76.3 177.75 m 1
 129.2 222.8 l 1
 115.25 250.05 107 278.45 112.7 314.1 c 0
 117.55 346.9 127.7 377 148.5 402.25 c 1
 110.45 446.85 l 1
 159.15 486.3 l 1
 195.2 443.55 l 1
 224.05 462.25 256.9 473.1 290.6 473.1 c 0
 327.4 473.1 365.3 462.4 389 442.3 c 1
 444.55 489.45 l 1
 481.4 441.55 l 1
 425.8 393.8 l 1
 437.35 369.95 442.9 337.85 438.05 307.3 c 0
 432.9 272.3 420.3 239.45 398.15 212.6 c 1
 441.4 161.1 l 1
 391.3 120.5 l 1
 350.1 170.1 l 1
 322.3 151.75 286.55 145.05 253.35 145.05 c 0
 220.8 145.05 188.7 156.6 166.7 174.15 c 1
 114.4 128.55 l 1
 76.3 177.75 l 1
178.8 312.4 m 0
 170.25 257.85 206.15 212 259 211.15 c 0
 327.15 210.3 362.55 255.3 373.65 309 c 0
 384.75 360.15 350.55 409.55 290.05 408.7 c 0
 227 407.85 187.35 365.25 178.8 312.4 c 0
EndSplineSet
EndChar

StartChar: onehalf
Encoding: 189 189 365
Width: 992
VWidth: 0
Flags: HW
LayerCount: 2
Fore
SplineSet
113.5 619.3 m 1
 121.7 670 l 1
 189.7 670 255 729.65 259.8 735.2 c 1
 332.4 735.2 l 1
 256.25 255.85 l 1
 181.65 255.85 l 1
 245.3 650.15 l 1
 226.65 635.8 178.95 619.3 113.5 619.3 c 1
167.9 0 m 1
 740.9 770 l 1
 813.9 770 l 1
 240.9 0 l 1
 167.9 0 l 1
636.7 -0.15 m 25
 647.35 68.05 l 17
 720.8 118.75 915.3 237.2 931.65 339.85 c 1
 939.35 390.3 925 411.3 867.6 411.3 c 2
 699.2 411.3 l 2
 697.5 411.3 706.85 468.45 707.7 467.6 c 1
 773.5 476.35 819.95 483.65 896.15 483.65 c 3
 989.85 483.65 1018.85 391.9 1009.95 342.85 c 1
 989.15 202.15 817.75 103.1 785.3 72.2 c 9
 966.05 72.2 l 25
 954.4 -0.15 l 25
 636.7 -0.15 l 25
EndSplineSet
Ligature2: "'frac' Diagonal Fractions lookup 11 subtable" one slash two
Ligature2: "'frac' Diagonal Fractions lookup 11 subtable" one fraction two
EndChar

StartChar: threequarters
Encoding: 190 190 366
Width: 1034
VWidth: 0
Flags: HW
LayerCount: 2
Fore
SplineSet
74.05 270.15 m 1
 83.55 323.2 l 1
 110.75 323.2 255.9 324.05 255.9 324.05 c 2
 296 324.05 328.7 338.65 335.1 379.5 c 2
 338.65 399.8 l 2
 345.9 446.45 317.7 461.05 281.5 462.2 c 2
 145.45 467.05 l 2
 154.95 525.7 l 1
 293.15 531.4 l 2
 338.3 533.4 364.65 551.95 370.2 589.25 c 2
 372.75 608.55 l 2
 379.45 647.85 364.2 663.15 313.9 663.15 c 2
 132.55 663.15 l 1
 141.05 716.05 l 1
 201.8 736.5 266.55 735.8 343.45 734.65 c 0
 420.45 733.65 457.4 677.65 447.8 614.8 c 2
 442.1 581.15 l 2
 434.1 533.85 409.95 498.05 379.4 488.65 c 1
 407 472.4 419.1 435.55 412.8 396.45 c 2
 408.8 369.65 l 2
 397.5 297.15 360.75 250.85 262.15 251.7 c 0
 187.25 251.7 128.5 249.7 74.05 270.15 c 1
276 0 m 1
 849 770 l 1
 922 770 l 1
 349 0 l 1
 276 0 l 1
615.9 144 m 1
 867.15 476.65 l 1
 952.15 476.65 l 1
 739.25 189.2 l 1
 887 189.2 l 1
 905.25 305.1 l 1
 940.2 353.55 l 1
 986.95 353.55 l 1
 960.7 189.2 l 1
 1016 189.2 l 1
 1006.65 128.2 l 1
 948.6 114 l 1
 931.1 0.15 l 1
 856.55 0.15 l 1
 875.35 113.85 l 1
 634.65 113.85 l 1
 615.9 144 l 1
EndSplineSet
Ligature2: "'frac' Diagonal Fractions lookup 11 subtable" three slash four
Ligature2: "'frac' Diagonal Fractions lookup 11 subtable" three fraction four
EndChar

StartChar: Hbar
Encoding: 435 294 369
Width: 645
VWidth: 0
Flags: HW
LayerCount: 2
Fore
SplineSet
79.15 0 m 1
 161.15 516.85 l 1
 99.55 516.85 l 1
 108 574.7 l 1
 169.6 574.7 l 1
 195.15 732 l 1
 287.15 732 l 1
 261.6 574.7 l 1
 584.6 574.7 l 1
 610.15 732 l 1
 702.15 732 l 1
 676.6 574.7 l 1
 736.5 574.7 l 1
 728.05 516.85 l 1
 668.15 516.85 l 1
 586.15 0 l 1
 494.15 0 l 1
 544.65 310.35 l 1
 221.65 310.35 l 1
 171.15 0 l 1
 79.15 0 l 1
234.35 400.2 m 1
 557.35 400.2 l 1
 576.15 516.85 l 1
 253.15 516.85 l 1
 234.35 400.2 l 1
EndSplineSet
Substitution2: "'c2sc' Capitals to Small Capitals in Latin lookup 17 subtable" hbar.smcp
EndChar

StartChar: hbar
Encoding: 440 295 374
Width: 543
VWidth: 0
Flags: HW
LayerCount: 2
Fore
SplineSet
60 0 m 1
 156.7 608.5 l 1
 82.25 608.5 l 1
 90.85 665.5 l 1
 165.3 665.5 l 1
 184 783.7 l 1
 278.4 783.7 l 1
 259.7 665.5 l 1
 387.85 665.5 l 1
 379.25 608.5 l 1
 251.1 608.5 l 1
 228.7 470.5 l 1
 293.15 504.6 352.3 540.85 420.55 540 c 0
 531.35 540 569.9 457.1 555.3 365.5 c 2
 497.05 0 l 1
 405.05 0 l 1
 463.3 366.1 l 2
 472.85 428.5 442.6 456.35 395.95 455.5 c 0
 344.5 454.65 291.3 437 218.35 401.5 c 1
 154.55 0 l 1
 60 0 l 1
EndSplineSet
Substitution2: "'smcp' Lowercase to Small Capitals lookup 16-1" hbar.smcp
EndChar

StartChar: jcircumflex
Encoding: 442 309 376
Width: 217
VWidth: 0
Flags: HW
LayerCount: 2
Fore
SplineSet
22.1 -270 m 1
 149.1 531 l 1
 245.35 531 l 1
 160.35 -4 l 2
 147.35 -90 129.35 -180.1 89.35 -270 c 1
 22.1 -270 l 1
47.45 596.55 m 1
 182.2 731.45 l 1
 262.2 731.45 l 1
 343.95 596.55 l 1
 268.65 596.55 l 1
 218.15 672.2 l 1
 135.65 596.55 l 1
 47.45 596.55 l 1
EndSplineSet
Substitution2: "'smcp' Lowercase to Small Capitals lookup 16-1" jcircumflex.smcp
EndChar

StartChar: f_f
Encoding: 457 64256 391
Width: 793
VWidth: 0
Flags: HW
LayerCount: 2
Fore
SplineSet
89.15 448 m 1
 99.65 514 l 1
 201.5 531 l 1
 215.5 620 l 2
 224.8 676.7 249.5 776 369.5 776 c 0
 418.5 776 458.6 768.3 503.8 752.85 c 1
 494.3 694.4 l 1
 494.15 694.4 382.15 694.55 382.15 694.55 c 2
 321.85 694.7 314.3 660.05 306.3 612.05 c 2
 293.5 531 l 1
 588.95 531 l 1
 604.1 630 l 2
 614.6 694.05 641.25 786 761.25 786 c 0
 810.25 786 849.4 778.6 894.75 762.85 c 1
 885.25 704.55 l 1
 885.1 704.55 771.45 704.7 771.45 704.7 c 2
 710.4 704.85 702.9 671.1 694.6 621 c 2
 680.95 531 l 1
 819.75 531 l 1
 806.4 448 l 1
 665.9 448 l 1
 595.25 0 l 1
 503.25 0 l 1
 573.9 448 l 1
 278.15 448 l 1
 207.5 0 l 1
 115.5 0 l 1
 186.15 448 l 1
 89.15 448 l 1
EndSplineSet
Ligature2: "'dlig' Discretionary Ligatures lookup 14-1" f f
EndChar

StartChar: f_f_i
Encoding: 458 64259 392
Width: 981
VWidth: 0
Flags: HW
LayerCount: 2
Fore
SplineSet
89.15 448 m 1
 99.65 514 l 1
 201.5 531 l 1
 215.5 620 l 2
 224.8 676.7 249.5 776 369.5 776 c 0
 418.5 776 458.6 768.3 503.8 752.85 c 1
 494.3 694.4 l 1
 494.15 694.4 382.15 694.55 382.15 694.55 c 2
 321.85 694.7 315.45 660.05 306.15 612.05 c 2
 291.65 531 l 1
 562.1 531 l 1
 569.5 580.4 l 2
 589.35 707.35 680.6 785.4 803.8 786 c 1
 872.35 786.15 953.75 778.6 999.1 762.85 c 1
 989.75 704.55 l 1
 989.6 704.55 817.15 704.7 817.15 704.7 c 2
 755.25 704.7 678.05 684.5 661.35 578.9 c 2
 654.1 531 l 1
 1007.65 521 l 1
 925.65 0 l 1
 832.8 0 l 1
 903.45 448 l 1
 639.05 448 l 1
 568.4 0 l 1
 476.4 0 l 1
 547.05 448 l 1
 278.3 448 l 1
 207.65 0 l 1
 115.5 0 l 1
 186.15 448 l 1
 89.15 448 l 1
EndSplineSet
Ligature2: "'dlig' Discretionary Ligatures lookup 14-1" f f i
EndChar

StartChar: ffl
Encoding: 459 64260 393
Width: 1082
VWidth: 0
Flags: HW
LayerCount: 2
Fore
SplineSet
89.15 448 m 1
 99.65 514 l 1
 201.5 531 l 1
 215.5 620 l 2
 224.8 676.7 249.5 776 369.5 776 c 0
 418.5 776 458.6 768.3 503.8 752.85 c 1
 494.3 694.4 l 1
 494.15 694.4 382.15 694.55 382.15 694.55 c 2
 321.85 694.7 315.15 660.05 306.15 612.05 c 2
 291.65 531 l 1
 562.85 531 l 1
 570.55 581.9 l 2
 589.35 701.45 649.9 782.6 775 786 c 1
 1051.8 785.55 l 1
 958.85 195 l 2
 945.3 110.7 956.6 95 994.45 83 c 1
 994.45 83 1067.3 62 1074.3 62 c 1
 1064.8 0 l 1
 973.8 0 l 2
 879.65 0 843.8 48 865.8 189 c 2
 945.75 704.55 l 1
 939 704.55 782.35 704.7 782.35 704.7 c 2
 720.45 704.7 678.5 683 662.55 581.9 c 2
 654.85 531 l 1
 793.65 531 l 1
 780.15 448 l 1
 639.65 448 l 1
 569 0 l 1
 477 0 l 1
 547.65 448 l 1
 278.3 448 l 1
 207.65 0 l 1
 115.5 0 l 1
 186.15 448 l 1
 89.15 448 l 1
EndSplineSet
Ligature2: "'dlig' Discretionary Ligatures lookup 14-1" f f l
EndChar

StartChar: c_t
Encoding: 460 -1 394
Width: 855
VWidth: 0
Flags: HW
LayerCount: 2
Fore
SplineSet
77.45 269.75 m 0
 120.4 519.6 201.75 530.45 296.95 530.45 c 0
 684.8 532.7 l 1
 728.15 679.85 l 1
 800.65 679.85 l 1
 776.8 531.85 l 1
 921.9 531.85 l 1
 908.55 447.15 l 1
 763.45 447.15 l 1
 723.7 195.85 l 2
 708.45 101.05 721.3 93.85 761.7 83.55 c 2
 761.7 83.55 830.45 65.1 832.35 65.1 c 1
 822 0.55 l 1
 737.7 0.55 l 2
 644.95 0.55 608.8 49.7 630.8 189.85 c 2
 671.45 447.15 l 1
 299.95 447 l 3
 240.8 447 202.65 448.95 168.45 261.25 c 0
 142.5 115.4 173 77.5 239.05 77.5 c 3
 331.05 77.5 464.2 88.05 464.2 88.05 c 1
 453.85 23.35 l 17
 369.3 -0.85 307.6 -7 217.55 -6.15 c 0
 115.55 -5.3 42.15 63.95 77.45 269.75 c 0
EndSplineSet
Ligature2: "'dlig' Discretionary Ligatures lookup 14-1" c t
EndChar

StartChar: s_t
Encoding: 461 64262 395
Width: 886
VWidth: 0
Flags: HW
LayerCount: 2
Fore
SplineSet
61.75 11.6 m 9
 72.1 75.45 l 17
 339.65 75.45 l 18
 342.2 75.45 388.55 71.4 397.35 123.9 c 2
 405.15 167.15 l 2
 410.55 198.7 402.45 216.6 362.65 216.6 c 10
 222.6 216.6 l 2
 128.6 216.6 78.15 253.3 94.15 353.75 c 10
 101.7 400.6 l 18
 115.65 486.15 159.5 531.85 262.5 531.85 c 1
 709.45 531.85 l 1
 751.95 679.85 l 1
 824.45 679.85 l 1
 801.45 531.85 l 1
 946.55 531.85 l 1
 933.05 450.55 l 1
 787.95 450.55 l 1
 748.35 195.85 l 2
 733.95 101.05 745.1 93.85 785.5 83.55 c 2
 785.5 83.55 854.95 65.1 856.85 65.1 c 1
 846.5 0.55 l 1
 762.2 0.55 l 2
 669.45 0.55 633.3 49.7 655.3 189.85 c 2
 695.8 448.9 l 1
 259.9 448.9 l 1
 203.55 448.9 196.25 414.05 193.25 395.2 c 10
 186.3 354.35 l 18
 176.5 295 210.45 303.5 236.05 303.5 c 2
 378.55 303.5 l 2
 469.45 303.5 509.6 244.85 497.45 169.25 c 1
 488.9 110.25 l 2
 472.65 1.1 395.5 -10.1 338.3 -10.1 c 3
 282.7 -10.1 97.7 2.05 61.75 11.6 c 9
EndSplineSet
Ligature2: "'dlig' Discretionary Ligatures lookup 14-1" s t
EndChar

StartChar: t_t
Encoding: 462 -1 396
Width: 742
VWidth: 0
Flags: HW
LayerCount: 2
Fore
SplineSet
89.3 449 m 1
 99.2 511 l 1
 198.05 532 l 1
 240.7 680 l 1
 313.2 680 l 1
 290.05 532 l 1
 571.05 532 l 1
 613.7 680 l 1
 686.2 680 l 1
 663.05 532 l 1
 808.15 532 l 1
 794.8 449 l 1
 649.7 449 l 1
 610.1 196 l 2
 594.85 101.2 610.95 93.15 647.1 83.7 c 1
 647.1 83.7 715.85 65.25 717.75 65.25 c 1
 708.25 0.7 l 1
 632.45 0.7 l 2
 549.9 0.7 495.05 49.85 517.05 190 c 2
 557.7 449 l 1
 276.7 449 l 1
 236.1 196 l 2
 220.85 101.2 237.1 93.15 273.25 83.7 c 1
 273.25 83.7 342 65.25 343.9 65.25 c 1
 334.4 0.7 l 1
 258.6 0.7 l 2
 176.05 0.7 121.2 49.85 144.05 190 c 2
 184.7 449 l 1
 89.3 449 l 1
EndSplineSet
Ligature2: "'dlig' Discretionary Ligatures lookup 14-1" t t
EndChar

StartChar: f_t
Encoding: 463 -1 397
Width: 764
VWidth: 0
Flags: HW
LayerCount: 2
Fore
SplineSet
89.15 448 m 1
 99.65 514 l 1
 197.45 531 l 1
 212.6 630 l 2
 223.1 694.05 249.75 786 369.75 786 c 0
 418.75 786 457.9 778.6 503.25 762.85 c 1
 493.75 704.55 l 1
 493.6 704.55 379.95 704.7 379.95 704.7 c 2
 318.9 704.85 311.4 671.1 303.1 621 c 2
 289.45 532 l 1
 592.75 532 l 1
 635.25 680 l 1
 707.75 680 l 1
 684.75 532 l 1
 829.85 532 l 1
 816.5 449 l 1
 671.4 449 l 1
 633.35 196 l 2
 618.95 101.2 634.35 93.15 670.5 83.7 c 1
 670.5 83.7 739.95 65.25 741.85 65.25 c 1
 731.65 0.7 l 1
 655.85 0.7 l 2
 573.3 0.7 519.3 49.85 540.45 190 c 2
 579.4 449 l 1
 274.4 449 l 1
 203.75 0 l 1
 111.75 0 l 1
 182.4 448 l 1
 89.15 448 l 1
EndSplineSet
Ligature2: "'dlig' Discretionary Ligatures lookup 14-1" f t
EndChar

StartChar: t_y
Encoding: 464 -1 398
Width: 930
VWidth: 0
Flags: HW
LayerCount: 2
Fore
SplineSet
89.3 449 m 1
 99.2 511 l 1
 198.05 532 l 1
 240.7 680 l 1
 313.2 680 l 1
 290.05 532 l 1
 444.75 532 l 1
 544.35 531.15 584.5 494.15 597.55 410.55 c 2
 643.2 129.55 l 2
 650.15 83.25 700.9 90.7 704.05 90.55 c 1
 884.4 445.85 l 2
 897.8 473 904.55 493.2 910.4 534.55 c 1
 990.15 534.55 l 1
 1001.45 494.95 992.15 455.6 976.25 421.75 c 1
 768.05 2.55 l 2
 681.3 -173.85 600.7 -252.65 497.95 -272.55 c 1
 497.95 -207.1 l 1
 581.2 -155.45 628.6 -69.75 665.6 1.7 c 1
 626.05 1.7 563.8 20.1 550.15 118.6 c 2
 502.75 399.15 l 2
 496.2 442.5 477.6 449 420.15 449 c 1
 276.7 449 l 1
 236.95 195.15 l 2
 221.7 100.35 237.95 92.3 274.1 82.85 c 2
 274.1 82.85 342.85 64.4 344.75 64.4 c 1
 335.25 -0.15 l 1
 259.45 -0.15 l 2
 176.9 -0.15 122.05 49 144.05 189.15 c 2
 184.7 449 l 1
 89.3 449 l 1
EndSplineSet
Ligature2: "'dlig' Discretionary Ligatures lookup 14-1" t y
EndChar

StartChar: f_y
Encoding: 465 -1 399
Width: 943
VWidth: 0
Flags: HW
LayerCount: 2
Fore
SplineSet
89.15 448 m 1
 99.65 514 l 1
 197.45 531 l 1
 212.6 630 l 2
 223.1 694.05 249.75 786 369.75 786 c 0
 418.75 786 457.9 778.6 503.25 762.85 c 1
 493.75 704.55 l 1
 493.6 704.55 379.95 704.7 379.95 704.7 c 2
 318.9 704.85 311.4 671.1 303.1 621 c 2
 289.45 531 l 1
 457.15 531 l 1
 557.5 531.15 598.5 489.9 611.55 407.15 c 2
 658.2 126.15 l 2
 666 79.85 722.55 87.3 724.95 87.15 c 1
 898.5 442.45 l 2
 911.05 469.6 917.8 489.8 923.65 531.15 c 1
 1003.4 531.15 l 1
 1014.7 491.55 1006.25 452.2 990.35 418.35 c 1
 781.3 -0.85 l 2
 694.55 -177.25 614.8 -256.05 512.05 -275.95 c 1
 512.05 -210.5 l 1
 595.3 -158.85 642.85 -73.15 679.85 -1.7 c 1
 641.2 -1.7 580.35 16.7 564.15 115.2 c 2
 517.6 395.75 l 2
 510.2 439.1 490.75 448.15 433.15 448 c 1
 274.4 448 l 1
 203.75 0 l 1
 111.75 0 l 1
 182.4 448 l 1
 89.15 448 l 1
EndSplineSet
Ligature2: "'dlig' Discretionary Ligatures lookup 14-1" f y
EndChar

StartChar: kgreenlandic
Encoding: 466 312 400
Width: 538
VWidth: 0
Flags: HW
LayerCount: 2
Fore
SplineSet
56.1 0 m 1
 140.1 531 l 1
 232.25 531 l 1
 196.85 304.5 l 1
 280.2 304.5 l 1
 488.85 531 l 1
 604.3 531 l 1
 365.45 260.45 l 1
 517.35 0 l 1
 410.05 0 l 1
 278.1 221.5 l 1
 184.35 221.5 l 9
 148.25 0 l 17
 56.1 0 l 1
EndSplineSet
EndChar

StartChar: Tbar
Encoding: 472 358 406
Width: 584
VWidth: 0
Flags: HW
LayerCount: 2
Fore
SplineSet
134.35 643 m 1
 148.75 732 l 1
 665.75 732 l 1
 651.35 643 l 1
 435.85 643 l 1
 403.8 441 l 1
 517.8 441 l 1
 509.2 384 l 1
 395.2 384 l 1
 334.25 0 l 1
 242.25 0 l 1
 303.2 384 l 1
 189.2 384 l 1
 197.8 441 l 1
 311.8 441 l 1
 343.85 643 l 1
 134.35 643 l 1
EndSplineSet
Substitution2: "'c2sc' Capitals to Small Capitals in Latin lookup 17 subtable" tbar.smcp
EndChar

StartChar: gcommaaccent
Encoding: 477 291 411
Width: 560
VWidth: 0
Flags: HW
LayerCount: 2
Fore
SplineSet
36.5 -248 m 1
 46.3 -187 l 1
 295.3 -187 l 2
 343.2 -187 385.3 -156 395.3 -92 c 2
 414.8 31.25 l 1
 353.1 4.95 290.5 -6.75 245.5 -6.75 c 3
 86.55 -6.75 66.7 117.6 92.45 280.7 c 0
 119.9 451.85 202.1 537.9 316.05 537.9 c 3
 422.05 537.9 536.9 519.65 583.65 512.95 c 1
 487 -96.5 l 2
 466.55 -223.8 383.05 -281.8 286 -272 c 2
 36.5 -248 l 1
184.6 271.45 m 0
 173.4 194.3 150.45 76.3 255.15 76.3 c 3
 321.05 76.3 350.1 80.3 425.3 100.4 c 1
 482.15 454.9 l 2
 320.4 454.9 l 2
 220.75 454.9 192.05 318.7 184.6 271.45 c 0
333 619.1 m 2
 346.35 708.2 l 2
 360.95 798.1 451.45 778.05 451.45 778.05 c 1
 445.85 745 l 0
 418.85 746 415.85 728.2 414 718.35 c 2
 410.45 698.2 l 1
 420.45 698.2 l 2
 433.45 698.2 441.45 691.2 439.45 676.2 c 2
 431.1 619.1 l 2
 428.1 603.1 418.95 595.1 404.1 595.1 c 2
 350 595.1 l 2
 334 595.1 331 605.1 333 619.1 c 2
EndSplineSet
AlternateSubs2: "'salt' Access All Alternates in Latin lookup 4-1" gcommaaccent.salt
Substitution2: "'smcp' Lowercase to Small Capitals lookup 16-1" gcommaaccent.smcp
EndChar

StartChar: gcommaaccent.salt
Encoding: 478 -1 412
Width: 517
VWidth: 0
Flags: HW
LayerCount: 2
Fore
SplineSet
17.65 -113 m 0
 62.05 114 l 0
 67.05 150 89.05 200 139.05 200 c 1
 95.75 229.2 86.05 295.5 94.05 348.5 c 0
 114.5 480.9 191 535 296.05 533 c 2
 399.55 531 l 2
 467.55 530.85 553.35 486.65 533.55 339.5 c 0
 523.25 262.5 476.55 148 334.55 148 c 2
 202.55 148 l 2
 186.55 148 161.7 153 156.7 123.25 c 0
 152.55 98.45 172.15 90.65 193 87.5 c 2
 365.3 62.95 l 2
 433.15 52.9 500.75 2 487.15 -81.5 c 2
 481.55 -117.5 l 2
 470.1 -190.35 450.05 -270 303.05 -270 c 2
 168.55 -270 l 2
 58.15 -270 -1.35 -209 17.65 -113 c 0
110.8 -111.5 m 2
 96.6 -180.55 141.2 -182.5 177.2 -182.5 c 2
 310.7 -182.5 l 2
 364.45 -182.5 383.75 -155.65 390.15 -113 c 2
 394.55 -87.55 l 2
 401.1 -43.4 373.3 -23.55 326.2 -16 c 2
 136.65 12 l 1
 110.8 -111.5 l 2
186.05 344 m 0
 178.05 295 183.7 232 254.55 232 c 2
 342.05 232 l 2
 410.45 232 435.7 306.6 441.55 344 c 0
 450.55 399 443.6 450 376.2 450 c 2
 288.7 450 l 2
 214.5 450 195.05 396 186.05 344 c 0
307.4 617.6 m 2
 321.6 706.7 l 2
 336.2 796.6 425.7 776.55 425.7 776.55 c 1
 421.1 743.5 l 0
 394.1 744.5 390.25 726.7 388.4 716.85 c 2
 385.7 696.7 l 1
 395.7 696.7 l 2
 408.7 696.7 416.7 689.7 414.7 674.7 c 2
 405.5 617.6 l 2
 402.5 601.6 394.2 593.6 379.35 593.6 c 2
 325.25 593.6 l 2
 309.25 593.6 305.4 603.6 307.4 617.6 c 2
EndSplineSet
EndChar

StartChar: tbar
Encoding: 479 359 413
Width: 369
VWidth: 0
Flags: HW
LayerCount: 2
Fore
SplineSet
75.95 265 m 1
 85.4 322 l 1
 163.55 322 l 1
 183.2 449 l 1
 87.8 449 l 1
 97.7 511 l 1
 196.55 532 l 1
 239.05 680 l 1
 311.55 680 l 1
 288.55 532 l 1
 433.65 532 l 1
 420.3 449 l 1
 275.2 449 l 1
 255.55 322 l 1
 354.4 322 l 1
 344.95 265 l 1
 246.1 265 l 1
 235.45 196 l 2
 220.2 101.2 236.45 93.15 272.6 83.7 c 1
 272.6 83.7 342.2 65.25 344.1 65.25 c 1
 333.75 0.7 l 1
 257.95 0.7 l 2
 175.4 0.7 120.55 49.85 142.55 190 c 2
 154.1 265 l 1
 75.95 265 l 1
EndSplineSet
AlternateSubs2: "'salt' Access All Alternates in Latin lookup 4-1" tbar.salt
Substitution2: "'smcp' Lowercase to Small Capitals lookup 16-1" tbar.smcp
EndChar

StartChar: Eng
Encoding: 480 330 414
Width: 662
VWidth: 0
Flags: HW
LayerCount: 2
Fore
SplineSet
74.75 0 m 1
 190.75 732 l 1
 281.35 732 l 1
 541 171 l 1
 629.75 732 l 1
 721.75 732 l 1
 606.6 3.4 l 1
 593.2 -81 l 1
 568.15 -239.15 458.25 -258.95 340.25 -257 c 1
 351.2 -188 l 1
 410.7 -174.25 485.4 -179.2 502.9 -68.5 c 1
 514.6 5.1 l 1
 256.35 559.5 l 1
 167.75 0 l 1
 74.75 0 l 1
EndSplineSet
Substitution2: "'c2sc' Capitals to Small Capitals in Latin lookup 17 subtable" eng.smcp
EndChar

StartChar: eng
Encoding: 481 331 415
Width: 555
VWidth: 0
Flags: HW
LayerCount: 2
Fore
SplineSet
56.1 0 m 1
 140.1 531 l 1
 208.6 531 l 1
 222.4 470.5 l 1
 286.85 504.6 341.6 540 422.6 540 c 3
 533.4 540 571.95 457.1 557.35 365.5 c 2
 499.1 0 l 1
 485 -84 l 1
 455.3 -226.15 352.35 -251.3 284.1 -268 c 1
 260.25 -219.5 l 1
 307.05 -197.7 378 -172 393 -88 c 1
 407.1 0 l 1
 465.35 366.1 l 2
 474.9 428.5 444.65 455.5 398 455.5 c 3
 324.45 455.5 284.85 437 211.9 401.5 c 1
 148.1 0 l 1
 56.1 0 l 1
EndSplineSet
Substitution2: "'smcp' Lowercase to Small Capitals lookup 16-1" eng.smcp
EndChar

StartChar: exclam.smcp
Encoding: 502 -1 436
Width: 265
VWidth: 0
Flags: HW
LayerCount: 2
Fore
SplineSet
80.65 23 m 2
 91.15 89 l 2
 93.15 104 103.15 114 119.15 114 c 2
 183.15 114 l 2
 198.15 114 204.15 103 202.15 89 c 2
 191.65 23 l 2
 189.65 8 179.65 0 165.65 0 c 2
 101.65 0 l 2
 87.65 0 78.65 9 80.65 23 c 2
113.4 171.5 m 1
 168.3 570 l 1
 271.4 570 l 1
 198.9 171.5 l 1
 113.4 171.5 l 1
EndSplineSet
EndChar

StartChar: quotedbl.smcp
Encoding: 503 -1 437
Width: 397
VWidth: 0
Flags: HW
LayerCount: 2
Fore
SplineSet
157.95 426.1 m 1
 167.8 560.1 l 1
 178.8 627.1 l 1
 269.3 627.1 l 1
 258.3 560.1 l 1
 227.3 426.1 l 1
 157.95 426.1 l 1
305.1 426.1 m 1
 315.25 560.1 l 1
 326.25 627.1 l 1
 416.75 627.1 l 1
 405.75 560.1 l 1
 374.75 426.1 l 1
 305.1 426.1 l 1
EndSplineSet
EndChar

StartChar: numbersign.smcp
Encoding: 504 -1 438
Width: 577
VWidth: 0
Flags: HW
LayerCount: 2
Fore
SplineSet
44.6 167.7 m 1
 64.35 230.85 l 1
 186.6 230.85 l 1
 224.2 342.25 l 1
 100.25 342.25 l 1
 119.15 405.4 l 1
 243.95 405.4 l 1
 299.1 573.45 l 1
 363.1 573.45 l 1
 307.95 405.4 l 1
 424.3 405.4 l 1
 478.6 573.45 l 1
 542.6 573.45 l 1
 488.3 405.4 l 1
 623.45 405.4 l 1
 604.55 342.25 l 1
 468.55 342.25 l 1
 431.8 230.85 l 1
 568.35 230.7 l 1
 548.9 167.55 l 1
 411.9 167.55 l 1
 356.3 -0.85 l 1
 292.3 -0.85 l 1
 347.05 167.55 l 1
 231.55 167.7 l 1
 175.95 -0.85 l 1
 111.95 -0.85 l 1
 166.7 167.7 l 1
 44.6 167.7 l 1
251.45 230.85 m 1
 367.8 230.85 l 1
 403.7 342.25 l 1
 288.2 342.25 l 1
 251.45 230.85 l 1
EndSplineSet
EndChar

StartChar: dollar.smcp
Encoding: 505 -1 439
Width: 506
VWidth: 0
Flags: HW
LayerCount: 2
Fore
SplineSet
66.45 11.75 m 1
 77.25 79.6 l 1
 102.75 79.6 223.55 79.4 298.65 79.4 c 0
 328.75 79.4 377.8 85.8 387.15 142.75 c 1
 392.7 177.15 l 2
 399.95 223.9 377.2 241.35 330.6 241.35 c 2
 251 241.35 l 2
 120.9 241.35 97.2 324.45 107.1 388.15 c 2
 112.25 420.05 l 1
 132.2 547.15 224.65 573.55 308.2 574.7 c 1
 318.65 642.4 l 1
 389.25 642.4 l 1
 377.95 572.4 l 1
 425.75 568.4 492.05 559.7 524.2 555.65 c 1
 513.4 486.65 l 1
 513.4 486.65 319.75 488 302.65 488 c 1
 255.2 488 213.75 475.45 204.1 415.55 c 2
 199.55 387.4 l 1
 191.6 339.4 218.55 326.3 268.15 326.3 c 2
 355.2 326.3 l 2
 458.55 326.3 497.15 246.2 485.7 174.9 c 2
 479.85 138.1 l 2
 459.95 12.55 386.05 -7.45 285.95 -7.45 c 1
 275.5 -72.15 l 1
 205.75 -72.15 l 1
 216.2 -3.6 l 1
 167.8 1.1 85.3 8.1 66.45 11.75 c 1
EndSplineSet
EndChar

